<svg width="40" height="40" viewBox="0 0 40 40" fill="none" xmlns="http://www.w3.org/2000/svg">
<rect x="0.5" y="0.5" width="39" height="39" rx="9.5" fill="white"/>
<rect x="0.5" y="0.5" width="39" height="39" rx="9.5" stroke="#E6E6E6"/>
<path d="M23.9516 8.10584H16.0484C11.6731 8.10584 8.11736 13.4385 8.11736 20C8.11736 26.5615 11.6733 31.8942 16.0484 31.8942H23.9516C28.3229 31.8942 31.8826 26.5535 31.8826 20C31.8826 13.4465 28.3227 8.10584 23.9516 8.10584ZM21.0493 8.93057C19.7619 9.74546 18.7064 10.8683 17.9817 12.1936L13.2794 14.3743L10.906 12.392C12.1938 10.2668 14.0222 8.93057 16.0482 8.93057H21.0493ZM16.0766 18.66L12.4198 20.8368L9.00524 18.8107C9.12043 16.8465 9.62496 14.9234 10.4906 13.1492L12.9405 15.1831C13.0152 15.2478 13.1115 15.2832 13.2109 15.2823C13.2736 15.2809 13.3352 15.2675 13.3925 15.2427L17.3602 13.3991C16.634 15.0694 16.2 16.8481 16.0768 18.6602L16.0766 18.66ZM8.96907 19.7503L12.1981 21.6772C12.3337 21.7561 12.5023 21.7561 12.6381 21.6772L16.0286 19.6552V20.0002C16.0182 21.9711 16.3585 23.9287 17.0337 25.7846L14.4666 27.7471L9.96213 25.5507H9.90964C9.26851 23.7685 8.94909 21.8902 8.96508 20C8.96508 19.9166 8.9691 19.8334 8.9691 19.7502L8.96907 19.7503ZM16.0484 31.0698C13.7517 31.0698 11.7094 29.3531 10.3975 26.7085L14.3047 28.6155V28.6157C14.3638 28.6437 14.4287 28.6584 14.4944 28.6592C14.5891 28.6584 14.6807 28.6245 14.7528 28.5642L17.3401 26.5818C18.2322 28.588 19.5196 30.1501 21.0332 31.062L16.0484 31.0698ZM23.9512 31.0698C21.4286 31.0698 19.2086 28.9923 17.9532 25.8722C17.9444 25.8047 17.918 25.7406 17.8765 25.6859C17.1991 23.8649 16.8586 21.9394 16.8716 20.0007C16.8716 13.895 20.0482 8.93101 23.951 8.93101C27.854 8.93081 31.0344 13.8947 31.0344 20.0007C31.0344 26.1064 27.8579 31.0704 23.951 31.0704L23.9512 31.0698Z" fill="#4F46E5"/>
<path d="M23.9517 12.7998C21.7034 12.7998 19.9397 15.9717 19.9397 20C19.9397 24.0283 21.7036 27.2002 23.9517 27.2002C26.1999 27.2002 27.9879 24.0283 27.9879 20C27.9879 15.9717 26.2039 12.7998 23.9517 12.7998ZM23.9517 26.3712C22.2362 26.371 20.8074 23.453 20.8074 20C20.8074 16.5467 22.2565 13.6289 23.9717 13.6289C25.6872 13.6289 27.12 16.5469 27.12 20C27.12 23.4531 25.6711 26.3712 23.9517 26.3712Z" fill="#4F46E5"/>
<path d="M31.7653 20C31.7653 16.7393 30.8794 13.7853 29.4557 11.6499C28.0306 9.51239 26.0797 8.21169 23.9516 8.21169H16.0484C13.9181 8.21169 11.9673 9.51047 10.5427 11.6469C9.11957 13.7812 8.23472 16.7352 8.23472 20C8.23472 23.2648 9.11963 26.2188 10.5428 28.3531C11.9674 30.4895 13.9182 31.7883 16.0484 31.7883H23.9516C26.0798 31.7883 28.0307 30.4876 29.4558 28.3501C30.8795 26.2147 31.7653 23.2607 31.7653 20ZM30.917 20.0007C30.917 16.963 30.1257 14.2144 28.8547 12.229C27.5918 10.2561 25.8698 9.05561 23.9953 9.03706L23.951 9.03686C22.0594 9.03686 20.3213 10.2407 19.0494 12.2291C17.7794 14.2145 16.989 16.9631 16.989 20.0007V20.0013C16.9761 21.9239 17.313 23.8332 17.983 25.6392C18.0272 25.7017 18.0561 25.7726 18.0678 25.8467C19.319 28.9486 21.5084 30.964 23.9512 30.964H24.0166C25.8848 30.9365 27.5985 29.7376 28.8561 27.7723C30.1266 25.7868 30.917 23.0383 30.917 20.0007ZM17.449 26.5424C18.335 28.535 19.6099 30.0772 21.0984 30.9739L21.4191 31.1672L16.0486 31.1757H16.0484C13.6816 31.1757 11.609 29.4099 10.2904 26.7518L10.1491 26.4669L14.3606 28.5224L14.366 28.525C14.4065 28.543 14.4502 28.5526 14.4945 28.5533C14.5581 28.5525 14.6214 28.5297 14.6729 28.4866L14.6748 28.485L14.6768 28.4835L17.3883 26.406L17.449 26.5424ZM14.83 28.6438C14.738 28.7199 14.6198 28.764 14.4955 28.765H14.4928C14.4087 28.764 14.3256 28.7451 14.2502 28.7094L14.1874 28.6797V28.6786L10.6524 26.9533C11.9589 29.4174 13.9041 30.9639 16.0483 30.964L20.6647 30.9567C19.2925 30.0338 18.1272 28.5791 17.2926 26.7571L14.83 28.6438ZM16.1459 20.0007C16.1356 21.9604 16.4739 23.9066 17.1452 25.7516L17.1698 25.8193L14.4813 27.8746L9.93245 25.6566H9.82434L9.79801 25.5834C9.15304 23.7905 8.83174 21.9012 8.84773 20C8.84773 19.957 8.84877 19.9142 8.84977 19.8727C8.8503 19.8505 8.8508 19.8286 8.85117 19.8069L8.8408 19.8007L8.85332 19.7328L8.97526 19.7419L9.03383 19.6621L12.2617 21.5882L12.2709 21.5934C12.366 21.6445 12.4805 21.6429 12.5746 21.5882L16.1459 19.4583V20.0007ZM12.7029 21.7655L12.7017 21.7662C12.5272 21.8675 12.3088 21.8676 12.1345 21.7661L12.1339 21.7658L12.1333 21.7655L9.08294 19.9452C9.08263 19.9636 9.08242 19.9818 9.08242 20V20.0008C9.06674 21.8546 9.37565 23.6967 9.99588 25.4469L14.4518 27.6196L16.8977 25.7498C16.2349 23.9033 15.9009 21.9583 15.9112 20.0002V19.8521L12.7029 21.7655ZM13.02 15.1052L13.0209 15.106L13.0218 15.1068C13.0753 15.1531 13.1421 15.1769 13.209 15.1764C13.2543 15.1753 13.299 15.1656 13.3409 15.1477L17.5831 13.1765L17.4695 13.4378C16.7478 15.0976 16.3164 16.8655 16.194 18.6667L16.1793 18.8822L16.0665 18.7929L12.4199 20.9635L8.88449 18.8658L8.88805 18.8052C9.00397 16.8283 9.51173 14.8926 10.3832 13.1066L10.4493 12.9711L13.02 15.1052ZM10.5325 13.3279C9.72143 15.034 9.24421 16.8753 9.12617 18.7558L12.4196 20.71L15.9634 18.6005C16.0855 16.8894 16.4831 15.2085 17.1408 13.6201L13.4463 15.3368L13.4448 15.3375L13.4433 15.3382C13.3711 15.3694 13.2932 15.3863 13.2137 15.3881H13.213L13.2122 15.3881C13.0813 15.3894 12.9565 15.343 12.861 15.261L10.5325 13.3279ZM21.4208 8.82473L21.1167 9.01719C19.8461 9.82145 18.8033 10.9303 18.087 12.2405L18.0698 12.2718L13.2599 14.5023L10.7591 12.4136L10.803 12.3412C12.1003 10.2005 13.9602 8.82474 16.0482 8.82473H21.4208ZM16.0482 9.03642C14.1067 9.03642 12.3286 10.3037 11.0531 12.3706L13.2988 14.2463L17.8938 12.1154C18.5704 10.8895 19.5281 9.83565 20.6903 9.03642H16.0482ZM31.1518 20.0007C31.1518 23.0688 30.3539 25.8551 29.0594 27.8781C27.7668 29.8982 25.9642 31.1762 23.951 31.1762H23.7853L23.7866 31.1727C21.2568 31.0848 19.0765 28.9743 17.8429 25.9083L17.8382 25.8968L17.8366 25.8846C17.83 25.8337 17.8101 25.7859 17.7796 25.7456L17.7704 25.7335L17.7652 25.7196C17.0838 23.8876 16.7413 21.9507 16.7543 20.0007L16.7544 19.9288C16.7668 16.8891 17.5622 14.1305 18.8461 12.1233C20.1382 10.1033 21.9397 8.82517 23.951 8.82517C25.9623 8.82507 27.7648 10.1031 29.0579 12.1231C30.3529 14.1461 31.1518 16.9325 31.1518 20.0007ZM32 20C32 23.2928 31.106 26.2858 29.6569 28.4592C28.2094 30.6304 26.1947 32 23.9516 32H16.0484C13.8035 32 11.7888 30.6325 10.3416 28.4622C8.89306 26.2898 8 23.2967 8 20C8 16.7033 8.893 13.7102 10.3415 11.5378C11.7887 9.36753 13.8034 8 16.0484 8H23.9516C26.1946 8 28.2093 9.36964 29.6569 11.5408C31.1059 13.7142 32 16.7072 32 20Z" fill="#4F46E5"/>
<path d="M27.8705 20C27.8705 17.9985 27.4271 16.2156 26.7097 14.9371C25.9893 13.6534 25.011 12.9057 23.9517 12.9057C22.8947 12.9057 21.9223 13.6531 21.2075 14.9368C20.4955 16.2153 20.0571 17.9983 20.0571 20C20.0571 22.0017 20.4956 23.7847 21.2076 25.0632C21.9224 26.347 22.8948 27.0943 23.9517 27.0943C25.009 27.0943 25.9873 26.3466 26.7082 25.0629C27.4261 23.7844 27.8705 22.0015 27.8705 20ZM27.0026 20C27.0026 18.2852 26.6467 16.7076 26.0819 15.5625C25.7995 14.9898 25.4671 14.53 25.1058 14.2149C24.7447 13.9 24.3613 13.7347 23.9717 13.7347C23.5822 13.7347 23.1976 13.9 22.8351 14.215C22.4722 14.5302 22.1379 14.99 21.8534 15.5627C21.2848 16.7077 20.9247 18.2853 20.9247 20C20.9247 21.7147 21.2798 23.2923 21.8435 24.4374C22.1255 25.0101 22.4573 25.4699 22.8183 25.7851C23.1789 26.0999 23.5621 26.2653 23.9517 26.2653L23.97 26.2652C24.3544 26.2601 24.7333 26.095 25.0908 25.785C25.4542 25.4698 25.7889 25.0099 26.0735 24.4372C26.6427 23.2921 27.0026 21.7146 27.0026 20ZM27.2374 20C27.2374 21.7385 26.8729 23.3465 26.2877 24.5238C25.9952 25.1123 25.6453 25.5977 25.2535 25.9376C24.8613 26.2777 24.4207 26.477 23.9517 26.477C23.4835 26.4769 23.0448 26.2774 22.655 25.9372C22.2657 25.5973 21.9186 25.1118 21.629 24.5233C21.0494 23.3461 20.69 21.7382 20.69 20C20.69 18.2614 21.0546 16.6534 21.6392 15.4762C21.9315 14.8877 22.281 14.4023 22.6723 14.0625C23.0638 13.7224 23.5036 13.523 23.9717 13.523C24.4399 13.523 24.8788 13.7225 25.2689 14.0627C25.6587 14.4026 26.0062 14.8881 26.2964 15.4765C26.877 16.6537 27.2374 18.2617 27.2374 20ZM28.1052 20C28.1052 22.0268 27.6557 23.844 26.9176 25.1585C26.1824 26.4678 25.1426 27.306 23.9517 27.306C22.7606 27.306 21.7269 26.4675 20.9978 25.1582C20.2658 23.8437 19.8224 22.0266 19.8224 20C19.8224 17.9734 20.2658 16.1563 20.9977 14.8418C21.7268 13.5325 22.7605 12.694 23.9517 12.694C25.1446 12.694 26.1844 13.5322 26.9191 14.8415C27.6567 16.156 28.1052 17.9732 28.1052 20Z" fill="#4F46E5"/>
</svg>
