<svg width="56" height="56" viewBox="0 0 56 56" fill="none" xmlns="http://www.w3.org/2000/svg">
<rect x="0.5" y="0.5" width="55" height="55" rx="13.5" fill="white"/>
<rect x="0.5" y="0.5" width="55" height="55" rx="13.5" stroke="#E6E6E6"/>
<path d="M33.2689 12.1411H22.7311C16.8974 12.1411 12.1565 19.2513 12.1565 28C12.1565 36.7487 16.8977 43.8589 22.7311 43.8589H33.2689C39.0972 43.8589 43.8435 36.738 43.8435 28C43.8435 19.262 39.097 12.1411 33.2689 12.1411ZM29.3991 13.2408C27.6825 14.3273 26.2752 15.8243 25.3089 17.5915L19.0392 20.4991L15.8746 17.856C17.5917 15.0225 20.0296 13.2408 22.7309 13.2408H29.3991ZM22.7688 26.2134L17.893 29.1157L13.3403 26.4143C13.4939 23.7953 14.1666 21.2312 15.3208 18.8656L18.5873 21.5775C18.6869 21.6638 18.8154 21.711 18.9478 21.7097C19.0314 21.7079 19.1137 21.69 19.1901 21.657L24.4803 19.1988C23.512 21.4259 22.9333 23.7975 22.7691 26.2136L22.7688 26.2134ZM13.2921 27.6671L17.5975 30.2363C17.7783 30.3415 18.0031 30.3415 18.1842 30.2363L22.7048 27.5402V28.0003C22.6909 30.6282 23.1446 33.2383 24.0449 35.7128L20.6221 38.3295L14.6162 35.401H14.5462C13.6913 33.0246 13.2654 30.5203 13.2868 28C13.2868 27.8888 13.2921 27.7779 13.2921 27.6669L13.2921 27.6671ZM22.7312 42.7598C19.6689 42.7598 16.9458 40.4708 15.1967 36.9447L20.4063 39.4873V39.4876C20.4851 39.5249 20.5716 39.5445 20.6592 39.5456C20.7855 39.5445 20.9075 39.4994 21.0037 39.4189L24.4534 36.7758C25.6429 39.4506 27.3595 41.5335 29.3776 42.7493L22.7312 42.7598ZM33.2682 42.7598C29.9048 42.7598 26.9448 39.9897 25.2709 35.8296C25.2592 35.7396 25.2239 35.6541 25.1687 35.5812C24.2655 33.1532 23.8115 30.5859 23.8289 28.0009C23.8289 19.86 28.0642 13.2413 33.268 13.2413C38.4719 13.2411 42.7125 19.8596 42.7125 28.0009C42.7125 36.1419 38.4771 42.7605 33.268 42.7605L33.2682 42.7598Z" fill="#4F46E5"/>
<path d="M33.2689 18.3998C30.2713 18.3998 27.9196 22.6289 27.9196 28C27.9196 33.3711 30.2715 37.6002 33.2689 37.6002C36.2666 37.6002 38.6505 33.3711 38.6505 28C38.6505 22.6289 36.2719 18.3998 33.2689 18.3998ZM33.2689 36.4949C30.9816 36.4946 29.0765 32.6039 29.0765 28C29.0765 23.3956 31.0086 19.5051 33.2956 19.5051C35.5829 19.5051 37.4934 23.3958 37.4934 28C37.4934 32.6042 35.5615 36.4949 33.2689 36.4949Z" fill="#4F46E5"/>
<path d="M43.687 28C43.687 23.6524 42.5059 19.7137 40.6076 16.8666C38.7074 14.0165 36.1063 12.2822 33.2688 12.2822H22.7312C19.8908 12.2822 17.2897 14.014 15.3903 16.8625C13.4928 19.7083 12.313 23.6469 12.313 28C12.313 32.3531 13.4928 36.2917 15.3904 39.1375C17.2898 41.986 19.891 43.7178 22.7312 43.7178H33.2688C36.1064 43.7178 38.7076 41.9835 40.6077 39.1334C42.5059 36.2863 43.687 32.3476 43.687 28ZM42.556 28.0009C42.556 23.9506 41.5009 20.2859 39.8062 17.6386C38.1224 15.0082 35.8264 13.4075 33.3271 13.3828L33.268 13.3825C30.7459 13.3825 28.4283 14.9876 26.7325 17.6388C25.0392 20.2861 23.9853 23.9508 23.9853 28.0009V28.0018C23.9681 30.5652 24.4173 33.111 25.3106 35.519C25.3696 35.6023 25.4081 35.6968 25.4237 35.7956C27.092 39.9315 30.0112 42.6187 33.2682 42.6187H33.3554C35.8463 42.582 38.1313 40.9835 39.8081 38.363C41.5021 35.7158 42.556 32.0511 42.556 28.0009ZM24.5987 36.7233C25.78 39.38 27.4798 41.4362 29.4645 42.6319L29.8922 42.8896L22.7315 42.9009H22.7312C19.5755 42.9009 16.812 40.5465 15.0539 37.0023L14.8655 36.6226L20.4808 39.3632L20.488 39.3667C20.5419 39.3907 20.6003 39.4034 20.6593 39.4044C20.7441 39.4033 20.8286 39.3729 20.8972 39.3155L20.8998 39.3133L20.9024 39.3113L24.5178 36.5413L24.5987 36.7233ZM21.1067 39.5251C20.9839 39.6265 20.8264 39.6853 20.6606 39.6867H20.6571C20.5449 39.6854 20.4342 39.6601 20.3336 39.6126L20.2498 39.573V39.5714L15.5365 37.271C17.2786 40.5565 19.8722 42.6186 22.7311 42.6186L28.8863 42.6089C27.0566 41.3784 25.503 39.4388 24.3901 37.0095L21.1067 39.5251ZM22.8612 28.001C22.8474 30.6138 23.2986 33.2088 24.1935 35.6689L24.2264 35.7591L20.6417 38.4995L14.5766 35.5421H14.4325L14.3973 35.4446C13.5374 33.054 13.109 30.5349 13.1303 28C13.1303 27.9426 13.1317 27.8856 13.133 27.8303C13.1337 27.8006 13.1344 27.7714 13.1349 27.7425L13.1211 27.7343L13.1378 27.6438L13.3004 27.6558L13.3784 27.5494L17.6823 30.1177L17.6945 30.1245C17.8213 30.1927 17.974 30.1905 18.0994 30.1176L22.8612 27.2777V28.001ZM18.2705 30.354L18.2689 30.3549C18.0363 30.4901 17.7451 30.4901 17.5126 30.3548L17.5119 30.3544L17.5111 30.3539L13.4439 27.927C13.4435 27.9515 13.4432 27.9758 13.4432 28V28.0011C13.4223 30.4728 13.8342 32.929 14.6612 35.2625L20.6025 38.1595L23.8636 35.6664C22.9798 33.2044 22.5346 30.611 22.5483 28.0003V27.8027L18.2705 30.354ZM18.6933 21.4736L18.6946 21.4747L18.6958 21.4757C18.7671 21.5375 18.8562 21.5692 18.9453 21.5685C19.0057 21.567 19.0653 21.5542 19.1212 21.5302L24.7774 18.902L24.626 19.2503C23.6637 21.4635 23.0885 23.8206 22.9253 26.2223L22.9058 26.5096L22.7553 26.3905L17.8931 29.2847L13.1793 26.4877L13.1841 26.4069C13.3386 23.7711 14.0156 21.1902 15.1776 18.8088L15.2657 18.6281L18.6933 21.4736ZM15.3767 19.1039C14.2952 21.3786 13.659 23.8337 13.5016 26.3411L17.8928 28.9467L22.6179 26.1341C22.7806 23.8526 23.3108 21.6113 24.1878 19.4935L19.2617 21.7824L19.2597 21.7834L19.2577 21.7842C19.1615 21.8258 19.0576 21.8485 18.9516 21.8508H18.9506L18.9495 21.8508C18.7751 21.8525 18.6087 21.7906 18.4814 21.6813L15.3767 19.1039ZM29.8944 13.0996L29.489 13.3563C27.7948 14.4286 26.4044 15.9071 25.4493 17.6539L25.4265 17.6957L19.0133 20.6698L15.6788 17.8848L15.7373 17.7883C17.467 14.934 19.947 13.0996 22.7309 13.0996H29.8944ZM22.7309 13.3819C20.1422 13.3819 17.7714 15.0715 16.0708 17.8275L19.0651 20.3283L25.1917 17.4872C26.0939 15.8527 27.3707 14.4475 28.9204 13.3819H22.7309ZM42.869 28.0009C42.869 32.0917 41.8052 35.8069 40.0792 38.5041C38.3557 41.1976 35.9523 42.9016 33.268 42.9016H33.047L33.0488 42.897C29.6758 42.7797 26.7686 39.9657 25.1238 35.8777L25.1176 35.8624L25.1155 35.8461C25.1067 35.7782 25.0802 35.7145 25.0395 35.6608L25.0272 35.6446L25.0203 35.6261C24.1117 33.1835 23.655 30.601 23.6724 28.0009L23.6726 27.9051C23.689 23.8522 24.7496 20.174 26.4615 17.4978C28.1843 14.8044 30.5863 13.1002 33.268 13.1002C35.9497 13.1001 38.3531 14.8041 40.0772 17.4975C41.8039 20.1947 42.869 23.9099 42.869 28.0009ZM44 28C44 32.3903 42.8079 36.3811 40.8759 39.2789C38.9458 42.1738 36.2596 44 33.2688 44H22.7312C19.738 44 17.0517 42.1766 15.1222 39.2829C13.1908 36.3864 12 32.3956 12 28C12 23.6044 13.1907 19.6136 15.1221 16.7171C17.0516 13.8234 19.7378 12 22.7312 12H33.2688C36.2595 12 38.9457 13.8262 40.8758 16.7211C42.8079 19.6189 44 23.6097 44 28Z" fill="#4F46E5"/>
<path d="M38.494 28C38.494 25.3313 37.9028 22.9541 36.9462 21.2495C35.9858 19.5379 34.6813 18.5409 33.2689 18.5409C31.8596 18.5409 30.5631 19.5374 29.61 21.2491C28.6607 22.9538 28.0761 25.3311 28.0761 28C28.0761 30.6689 28.6608 33.0462 29.6101 34.7509C30.5633 36.4626 31.8597 37.4591 33.2689 37.4591C34.6786 37.4591 35.9831 36.4622 36.9442 34.7505C37.9014 33.0458 38.494 30.6687 38.494 28ZM37.3369 28C37.3369 25.7136 36.8622 23.6101 36.1093 22.0834C35.7327 21.3198 35.2895 20.7067 34.8077 20.2865C34.3263 19.8667 33.815 19.6463 33.2956 19.6463C32.7762 19.6463 32.2635 19.8667 31.7801 20.2866C31.2962 20.7069 30.8505 21.32 30.4713 22.0836C29.713 23.6103 29.233 25.7137 29.233 28C29.233 30.2863 29.7064 32.3898 30.458 33.9165C30.8339 34.6801 31.2764 35.2932 31.7577 35.7135C32.2386 36.1332 32.7495 36.3537 33.2689 36.3538L33.2933 36.3536C33.8059 36.3468 34.3111 36.1266 34.7877 35.7133C35.2723 35.293 35.7185 34.6798 36.0981 33.9163C36.8569 32.3895 37.3369 30.2862 37.3369 28ZM37.6498 28C37.6498 30.318 37.1639 32.462 36.3837 34.0317C35.9937 34.8163 35.527 35.4636 35.0046 35.9167C34.4817 36.3702 33.8943 36.636 33.2689 36.636C32.6447 36.6359 32.0597 36.3699 31.5401 35.9163C31.0209 35.463 30.5582 34.8157 30.1719 34.0311C29.3992 32.4615 28.92 30.3176 28.92 28C28.92 25.6819 29.4061 23.5379 30.1856 21.9682C30.5753 21.1837 31.0414 20.5364 31.563 20.0833C32.0851 19.6299 32.6715 19.364 33.2956 19.364C33.9199 19.364 34.5051 19.63 35.0252 20.0836C35.5449 20.5368 36.0083 21.1841 36.3952 21.9687C37.1693 23.5383 37.6498 25.6822 37.6498 28ZM38.807 28C38.8069 30.7024 38.2075 33.1254 37.2234 34.878C36.2432 36.6237 34.8568 37.7413 33.2689 37.7413C31.6807 37.7413 30.3025 36.6233 29.3304 34.8776C28.3544 33.125 27.7632 30.7022 27.7632 28C27.7632 25.2979 28.3544 22.875 29.3303 21.1224C30.3024 19.3767 31.6806 18.2587 33.2689 18.2587C34.8595 18.2587 36.2458 19.3763 37.2254 21.122C38.2089 22.8747 38.807 25.2976 38.807 28Z" fill="#4F46E5"/>
</svg>
