<svg width="387" height="100" viewBox="0 0 387 100" fill="none" xmlns="http://www.w3.org/2000/svg">
<rect x="0.5" y="0.5" width="386" height="99" rx="15.5" fill="white"/>
<rect x="0.5" y="0.5" width="386" height="99" rx="15.5" stroke="#E6E8ED"/>
<path d="M28.0568 29.5455L32.5994 43.2841H32.7784L37.3125 29.5455H40.7898L34.6364 47H30.733L24.5881 29.5455H28.0568ZM42.9524 47V33.9091H46.0376V47H42.9524ZM44.5036 32.0511C44.0149 32.0511 43.5945 31.8892 43.2422 31.5653C42.8899 31.2358 42.7138 30.8409 42.7138 30.3807C42.7138 29.9148 42.8899 29.5199 43.2422 29.196C43.5945 28.8665 44.0149 28.7017 44.5036 28.7017C44.9979 28.7017 45.4183 28.8665 45.7649 29.196C46.1172 29.5199 46.2933 29.9148 46.2933 30.3807C46.2933 30.8409 46.1172 31.2358 45.7649 31.5653C45.4183 31.8892 44.9979 32.0511 44.5036 32.0511ZM52.2955 39.3295V47H49.2102V33.9091H52.1591V36.1335H52.3125C52.6136 35.4006 53.0938 34.8182 53.7528 34.3864C54.4176 33.9545 55.2386 33.7386 56.2159 33.7386C57.1193 33.7386 57.9063 33.9318 58.5767 34.3182C59.2528 34.7045 59.7756 35.2642 60.1449 35.9972C60.5199 36.7301 60.7045 37.6193 60.6989 38.6648V47H57.6136V39.142C57.6136 38.267 57.3864 37.5824 56.9318 37.0881C56.483 36.5937 55.8608 36.3466 55.0653 36.3466C54.5256 36.3466 54.0455 36.4659 53.625 36.7045C53.2102 36.9375 52.8835 37.2756 52.6449 37.7188C52.4119 38.1619 52.2955 38.6989 52.2955 39.3295ZM84.8651 35.4347H81.6776C81.5866 34.9119 81.419 34.4489 81.1747 34.0455C80.9304 33.6364 80.6264 33.2898 80.2628 33.0057C79.8991 32.7216 79.4844 32.5085 79.0185 32.3665C78.5582 32.2188 78.0611 32.1449 77.527 32.1449C76.5781 32.1449 75.7372 32.3835 75.0043 32.8608C74.2713 33.3324 73.6974 34.0256 73.2827 34.9403C72.8679 35.8494 72.6605 36.9602 72.6605 38.2727C72.6605 39.608 72.8679 40.733 73.2827 41.6477C73.7031 42.5568 74.277 43.2443 75.0043 43.7102C75.7372 44.1705 76.5753 44.4006 77.5185 44.4006C78.0412 44.4006 78.5298 44.3324 78.9844 44.196C79.4446 44.054 79.8565 43.8466 80.2202 43.5739C80.5895 43.3011 80.8991 42.9659 81.1491 42.5682C81.4048 42.1705 81.581 41.7159 81.6776 41.2045L84.8651 41.2216C84.7457 42.0511 84.4872 42.8295 84.0895 43.5568C83.6974 44.2841 83.1832 44.9261 82.5469 45.483C81.9105 46.0341 81.1662 46.4659 80.3139 46.7784C79.4616 47.0852 78.5156 47.2386 77.4759 47.2386C75.9418 47.2386 74.5724 46.8835 73.3679 46.1733C72.1634 45.4631 71.2145 44.4375 70.5213 43.0966C69.8281 41.7557 69.4815 40.1477 69.4815 38.2727C69.4815 36.392 69.831 34.7841 70.5298 33.4489C71.2287 32.108 72.1804 31.0824 73.3849 30.3722C74.5895 29.6619 75.9531 29.3068 77.4759 29.3068C78.4474 29.3068 79.3509 29.4432 80.1861 29.7159C81.0213 29.9886 81.7656 30.3892 82.419 30.9176C83.0724 31.4403 83.6094 32.0824 84.0298 32.8438C84.456 33.5994 84.7344 34.4631 84.8651 35.4347ZM91.3913 47.2642C90.5618 47.2642 89.8146 47.1165 89.1499 46.821C88.4908 46.5199 87.968 46.0767 87.5817 45.4915C87.201 44.9062 87.0107 44.1847 87.0107 43.3267C87.0107 42.5881 87.147 41.9773 87.4197 41.4943C87.6925 41.0114 88.0646 40.625 88.5362 40.3352C89.0078 40.0455 89.5391 39.8267 90.13 39.679C90.7266 39.5256 91.343 39.4148 91.9794 39.3466C92.7464 39.267 93.3686 39.196 93.8459 39.1335C94.3232 39.0653 94.6697 38.9631 94.8857 38.8267C95.1072 38.6847 95.218 38.4659 95.218 38.1705V38.1193C95.218 37.4773 95.0277 36.9801 94.647 36.6278C94.2663 36.2756 93.718 36.0994 93.0021 36.0994C92.2464 36.0994 91.647 36.2642 91.2038 36.5938C90.7663 36.9233 90.4709 37.3125 90.3175 37.7614L87.4368 37.3523C87.6641 36.5568 88.0391 35.892 88.5618 35.358C89.0845 34.8182 89.7237 34.4148 90.4794 34.1477C91.2351 33.875 92.0703 33.7386 92.9851 33.7386C93.6158 33.7386 94.2436 33.8125 94.8686 33.9602C95.4936 34.108 96.0646 34.3523 96.5817 34.6932C97.0987 35.0284 97.5135 35.4858 97.826 36.0653C98.1442 36.6449 98.3033 37.3693 98.3033 38.2386V47H95.3374V45.2017H95.2351C95.0476 45.5653 94.7834 45.9062 94.4425 46.2244C94.1072 46.5369 93.6839 46.7898 93.1726 46.983C92.6669 47.1705 92.0732 47.2642 91.3913 47.2642ZM92.1925 44.9972C92.8118 44.9972 93.3487 44.875 93.8033 44.6307C94.2578 44.3807 94.6072 44.0511 94.8516 43.642C95.1016 43.233 95.2266 42.7869 95.2266 42.304V40.7614C95.13 40.8409 94.9652 40.9148 94.7322 40.983C94.505 41.0511 94.2493 41.1108 93.9652 41.1619C93.6811 41.2131 93.3999 41.2585 93.1214 41.2983C92.843 41.3381 92.6016 41.3722 92.397 41.4006C91.9368 41.4631 91.5249 41.5653 91.1612 41.7074C90.7976 41.8494 90.5107 42.0483 90.3004 42.304C90.0902 42.554 89.9851 42.8778 89.9851 43.2756C89.9851 43.8438 90.1925 44.2727 90.6072 44.5625C91.022 44.8523 91.5504 44.9972 92.1925 44.9972ZM107.942 33.9091V36.2955H100.417V33.9091H107.942ZM102.275 30.7727H105.36V43.0625C105.36 43.4773 105.423 43.7955 105.548 44.017C105.678 44.233 105.849 44.3807 106.059 44.4602C106.269 44.5398 106.502 44.5795 106.758 44.5795C106.951 44.5795 107.127 44.5653 107.286 44.5369C107.451 44.5085 107.576 44.483 107.661 44.4602L108.181 46.8722C108.016 46.929 107.781 46.9915 107.474 47.0597C107.173 47.1278 106.803 47.1676 106.366 47.179C105.593 47.2017 104.897 47.0852 104.278 46.8295C103.658 46.5682 103.167 46.1648 102.803 45.6193C102.445 45.0739 102.269 44.392 102.275 43.5739V30.7727ZM114.29 47.2642C113.46 47.2642 112.713 47.1165 112.048 46.821C111.389 46.5199 110.866 46.0767 110.48 45.4915C110.099 44.9062 109.909 44.1847 109.909 43.3267C109.909 42.5881 110.045 41.9773 110.318 41.4943C110.591 41.0114 110.963 40.625 111.435 40.3352C111.906 40.0455 112.438 39.8267 113.028 39.679C113.625 39.5256 114.241 39.4148 114.878 39.3466C115.645 39.267 116.267 39.196 116.744 39.1335C117.222 39.0653 117.568 38.9631 117.784 38.8267C118.006 38.6847 118.116 38.4659 118.116 38.1705V38.1193C118.116 37.4773 117.926 36.9801 117.545 36.6278C117.165 36.2756 116.616 36.0994 115.901 36.0994C115.145 36.0994 114.545 36.2642 114.102 36.5938C113.665 36.9233 113.369 37.3125 113.216 37.7614L110.335 37.3523C110.563 36.5568 110.938 35.892 111.46 35.358C111.983 34.8182 112.622 34.4148 113.378 34.1477C114.134 33.875 114.969 33.7386 115.884 33.7386C116.514 33.7386 117.142 33.8125 117.767 33.9602C118.392 34.108 118.963 34.3523 119.48 34.6932C119.997 35.0284 120.412 35.4858 120.724 36.0653C121.043 36.6449 121.202 37.3693 121.202 38.2386V47H118.236V45.2017H118.134C117.946 45.5653 117.682 45.9062 117.341 46.2244C117.006 46.5369 116.582 46.7898 116.071 46.983C115.565 47.1705 114.972 47.2642 114.29 47.2642ZM115.091 44.9972C115.71 44.9972 116.247 44.875 116.702 44.6307C117.156 44.3807 117.506 44.0511 117.75 43.642C118 43.233 118.125 42.7869 118.125 42.304V40.7614C118.028 40.8409 117.864 40.9148 117.631 40.983C117.403 41.0511 117.148 41.1108 116.864 41.1619C116.58 41.2131 116.298 41.2585 116.02 41.2983C115.741 41.3381 115.5 41.3722 115.295 41.4006C114.835 41.4631 114.423 41.5653 114.06 41.7074C113.696 41.8494 113.409 42.0483 113.199 42.304C112.989 42.554 112.884 42.8778 112.884 43.2756C112.884 43.8438 113.091 44.2727 113.506 44.5625C113.92 44.8523 114.449 44.9972 115.091 44.9972ZM127.389 29.5455V47H124.304V29.5455H127.389ZM136.272 47.2557C134.994 47.2557 133.886 46.9744 132.948 46.4119C132.011 45.8494 131.283 45.0625 130.766 44.0511C130.255 43.0398 129.999 41.858 129.999 40.5057C129.999 39.1534 130.255 37.9687 130.766 36.9517C131.283 35.9347 132.011 35.1449 132.948 34.5824C133.886 34.0199 134.994 33.7386 136.272 33.7386C137.55 33.7386 138.658 34.0199 139.596 34.5824C140.533 35.1449 141.258 35.9347 141.769 36.9517C142.286 37.9687 142.545 39.1534 142.545 40.5057C142.545 41.858 142.286 43.0398 141.769 44.0511C141.258 45.0625 140.533 45.8494 139.596 46.4119C138.658 46.9744 137.55 47.2557 136.272 47.2557ZM136.289 44.7841C136.982 44.7841 137.562 44.5937 138.028 44.2131C138.494 43.8267 138.84 43.3097 139.067 42.6619C139.3 42.0142 139.417 41.2926 139.417 40.4972C139.417 39.696 139.3 38.9716 139.067 38.3239C138.84 37.6705 138.494 37.1506 138.028 36.7642C137.562 36.3778 136.982 36.1847 136.289 36.1847C135.579 36.1847 134.988 36.3778 134.516 36.7642C134.05 37.1506 133.701 37.6705 133.468 38.3239C133.241 38.9716 133.127 39.696 133.127 40.4972C133.127 41.2926 133.241 42.0142 133.468 42.6619C133.701 43.3097 134.05 43.8267 134.516 44.2131C134.988 44.5937 135.579 44.7841 136.289 44.7841ZM150.857 52.1818C149.749 52.1818 148.797 52.0313 148.001 51.7301C147.206 51.4347 146.567 51.0369 146.084 50.5369C145.601 50.0369 145.266 49.483 145.078 48.875L147.857 48.2017C147.982 48.4574 148.163 48.7102 148.402 48.9602C148.641 49.2159 148.962 49.4261 149.365 49.5909C149.774 49.7614 150.288 49.8466 150.908 49.8466C151.783 49.8466 152.507 49.6335 153.081 49.2074C153.655 48.7869 153.942 48.0938 153.942 47.1278V44.6477H153.788C153.629 44.9659 153.396 45.2926 153.089 45.6278C152.788 45.9631 152.388 46.2443 151.888 46.4716C151.393 46.6989 150.771 46.8125 150.021 46.8125C149.016 46.8125 148.104 46.5767 147.286 46.1051C146.473 45.6278 145.825 44.9176 145.342 43.9744C144.865 43.0256 144.626 41.8381 144.626 40.4119C144.626 38.9744 144.865 37.7614 145.342 36.7727C145.825 35.7784 146.476 35.0256 147.294 34.5142C148.112 33.9972 149.024 33.7386 150.03 33.7386C150.797 33.7386 151.428 33.8693 151.922 34.1307C152.422 34.3864 152.82 34.696 153.115 35.0597C153.411 35.4176 153.635 35.7557 153.788 36.0739H153.959V33.9091H157.001V47.2131C157.001 48.3324 156.734 49.2585 156.2 49.9915C155.666 50.7244 154.936 51.2727 154.01 51.6364C153.084 52 152.033 52.1818 150.857 52.1818ZM150.882 44.392C151.536 44.392 152.092 44.233 152.553 43.9148C153.013 43.5966 153.362 43.1392 153.601 42.5426C153.839 41.946 153.959 41.2301 153.959 40.3949C153.959 39.571 153.839 38.8494 153.601 38.2301C153.368 37.6108 153.021 37.1307 152.561 36.7898C152.107 36.4432 151.547 36.2699 150.882 36.2699C150.195 36.2699 149.621 36.4489 149.161 36.8068C148.7 37.1648 148.354 37.6562 148.121 38.2812C147.888 38.9006 147.771 39.6051 147.771 40.3949C147.771 41.196 147.888 41.8977 148.121 42.5C148.359 43.0966 148.709 43.5625 149.169 43.8977C149.635 44.2273 150.206 44.392 150.882 44.392Z" fill="#121214"/>
<path d="M25.4148 73H24.3068L27.5114 64.2727H28.6023L31.8068 73H30.6989L28.0909 65.6534H28.0227L25.4148 73ZM25.8239 69.5909H30.2898V70.5284H25.8239V69.5909ZM35.6889 73.1364C35.0753 73.1364 34.5469 72.9915 34.1037 72.7017C33.6605 72.4119 33.3196 72.0128 33.081 71.5043C32.8423 70.9957 32.723 70.4148 32.723 69.7614C32.723 69.0966 32.8452 68.5099 33.0895 68.0014C33.3366 67.4901 33.6804 67.0909 34.1207 66.804C34.5639 66.5142 35.081 66.3693 35.6719 66.3693C36.1321 66.3693 36.5469 66.4545 36.9162 66.625C37.2855 66.7955 37.5881 67.0341 37.8239 67.3409C38.0597 67.6477 38.206 68.0057 38.2628 68.4148H37.2571C37.1804 68.1165 37.0099 67.8523 36.7457 67.6222C36.4844 67.3892 36.1321 67.2727 35.6889 67.2727C35.2969 67.2727 34.9531 67.375 34.6577 67.5795C34.3651 67.7812 34.1364 68.0668 33.9716 68.4361C33.8097 68.8026 33.7287 69.233 33.7287 69.7273C33.7287 70.233 33.8082 70.6733 33.9673 71.0483C34.1293 71.4233 34.3565 71.7145 34.6491 71.9219C34.9446 72.1293 35.2912 72.233 35.6889 72.233C35.9503 72.233 36.1875 72.1875 36.4006 72.0966C36.6136 72.0057 36.794 71.875 36.9418 71.7045C37.0895 71.5341 37.1946 71.3295 37.2571 71.0909H38.2628C38.206 71.4773 38.0653 71.8253 37.8409 72.1349C37.6193 72.4418 37.3253 72.6861 36.9588 72.8679C36.5952 73.0469 36.1719 73.1364 35.6889 73.1364ZM42.5795 66.4545V67.3068H39.1875V66.4545H42.5795ZM40.1761 64.8864H41.1818V71.125C41.1818 71.4091 41.223 71.6222 41.3054 71.7642C41.3906 71.9034 41.4986 71.9972 41.6293 72.0455C41.7628 72.0909 41.9034 72.1136 42.0511 72.1136C42.1619 72.1136 42.2528 72.108 42.3239 72.0966C42.3949 72.0824 42.4517 72.071 42.4943 72.0625L42.6989 72.9659C42.6307 72.9915 42.5355 73.017 42.4134 73.0426C42.2912 73.071 42.1364 73.0852 41.9489 73.0852C41.6648 73.0852 41.3864 73.0241 41.1136 72.902C40.8438 72.7798 40.6193 72.5938 40.4403 72.3438C40.2642 72.0938 40.1761 71.7784 40.1761 71.3977V64.8864ZM44.0923 73V66.4545H45.098V73H44.0923ZM44.6037 65.3636C44.4077 65.3636 44.2386 65.2969 44.0966 65.1634C43.9574 65.0298 43.8878 64.8693 43.8878 64.6818C43.8878 64.4943 43.9574 64.3338 44.0966 64.2003C44.2386 64.0668 44.4077 64 44.6037 64C44.7997 64 44.9673 64.0668 45.1065 64.2003C45.2486 64.3338 45.3196 64.4943 45.3196 64.6818C45.3196 64.8693 45.2486 65.0298 45.1065 65.1634C44.9673 65.2969 44.7997 65.3636 44.6037 65.3636ZM52.2923 66.4545L49.8718 73H48.8491L46.4286 66.4545H47.5195L49.3263 71.6705H49.3945L51.2013 66.4545H52.2923ZM56.1296 73.1364C55.4989 73.1364 54.9549 72.9972 54.4975 72.7188C54.043 72.4375 53.6921 72.0455 53.445 71.5426C53.2006 71.0369 53.0785 70.4489 53.0785 69.7784C53.0785 69.108 53.2006 68.517 53.445 68.0057C53.6921 67.4915 54.0359 67.0909 54.4762 66.804C54.9194 66.5142 55.4364 66.3693 56.0273 66.3693C56.3683 66.3693 56.7049 66.4261 57.0373 66.5398C57.3697 66.6534 57.6722 66.8381 57.945 67.0938C58.2177 67.3466 58.435 67.6818 58.5969 68.0994C58.7589 68.517 58.8398 69.0312 58.8398 69.642V70.0682H53.7944V69.1989H57.8171C57.8171 68.8295 57.7433 68.5 57.5955 68.2102C57.4506 67.9205 57.2433 67.6918 56.9734 67.5241C56.7063 67.3565 56.391 67.2727 56.0273 67.2727C55.6268 67.2727 55.2802 67.3722 54.9876 67.571C54.6978 67.767 54.4748 68.0227 54.3185 68.3381C54.1623 68.6534 54.0842 68.9915 54.0842 69.3523V69.9318C54.0842 70.4261 54.1694 70.8452 54.3398 71.1889C54.5131 71.5298 54.7532 71.7898 55.06 71.9688C55.3668 72.1449 55.7234 72.233 56.1296 72.233C56.3938 72.233 56.6325 72.196 56.8455 72.1222C57.0614 72.0455 57.2475 71.9318 57.4038 71.7812C57.56 71.6278 57.6808 71.4375 57.766 71.2102L58.7376 71.483C58.6353 71.8125 58.4634 72.1023 58.2219 72.3523C57.9805 72.5994 57.6822 72.7926 57.3271 72.9318C56.9719 73.0682 56.5728 73.1364 56.1296 73.1364ZM64.7504 64.2727V73H63.7447V64.2727H64.7504ZM69.2514 73.1364C68.6605 73.1364 68.142 72.9957 67.696 72.7145C67.2528 72.4332 66.9062 72.0398 66.6562 71.5341C66.4091 71.0284 66.2855 70.4375 66.2855 69.7614C66.2855 69.0795 66.4091 68.4844 66.6562 67.9759C66.9062 67.4673 67.2528 67.0724 67.696 66.7912C68.142 66.5099 68.6605 66.3693 69.2514 66.3693C69.8423 66.3693 70.3594 66.5099 70.8026 66.7912C71.2486 67.0724 71.5952 67.4673 71.8423 67.9759C72.0923 68.4844 72.2173 69.0795 72.2173 69.7614C72.2173 70.4375 72.0923 71.0284 71.8423 71.5341C71.5952 72.0398 71.2486 72.4332 70.8026 72.7145C70.3594 72.9957 69.8423 73.1364 69.2514 73.1364ZM69.2514 72.233C69.7003 72.233 70.0696 72.1179 70.3594 71.8878C70.6491 71.6577 70.8636 71.3551 71.0028 70.9801C71.142 70.6051 71.2116 70.1989 71.2116 69.7614C71.2116 69.3239 71.142 68.9162 71.0028 68.5384C70.8636 68.1605 70.6491 67.8551 70.3594 67.6222C70.0696 67.3892 69.7003 67.2727 69.2514 67.2727C68.8026 67.2727 68.4332 67.3892 68.1435 67.6222C67.8537 67.8551 67.6392 68.1605 67.5 68.5384C67.3608 68.9162 67.2912 69.3239 67.2912 69.7614C67.2912 70.1989 67.3608 70.6051 67.5 70.9801C67.6392 71.3551 67.8537 71.6577 68.1435 71.8878C68.4332 72.1179 68.8026 72.233 69.2514 72.233ZM76.5991 66.4545V67.3068H73.207V66.4545H76.5991ZM74.1957 64.8864H75.2013V71.125C75.2013 71.4091 75.2425 71.6222 75.3249 71.7642C75.4102 71.9034 75.5181 71.9972 75.6488 72.0455C75.7823 72.0909 75.9229 72.1136 76.0707 72.1136C76.1815 72.1136 76.2724 72.108 76.3434 72.0966C76.4144 72.0824 76.4712 72.071 76.5138 72.0625L76.7184 72.9659C76.6502 72.9915 76.555 73.017 76.4329 73.0426C76.3107 73.071 76.1559 73.0852 75.9684 73.0852C75.6843 73.0852 75.4059 73.0241 75.1332 72.902C74.8633 72.7798 74.6388 72.5938 74.4599 72.3438C74.2837 72.0938 74.1957 71.7784 74.1957 71.3977V64.8864ZM82.631 67.9205L81.7276 68.1761C81.6708 68.0256 81.587 67.8793 81.4762 67.7372C81.3683 67.5923 81.2205 67.473 81.033 67.3793C80.8455 67.2855 80.6055 67.2386 80.3129 67.2386C79.9123 67.2386 79.5785 67.331 79.3114 67.5156C79.0472 67.6974 78.9151 67.929 78.9151 68.2102C78.9151 68.4602 79.006 68.6577 79.1879 68.8026C79.3697 68.9474 79.6538 69.0682 80.0401 69.1648L81.0117 69.4034C81.5969 69.5455 82.033 69.7628 82.32 70.0554C82.6069 70.3452 82.7504 70.7187 82.7504 71.1761C82.7504 71.5511 82.6424 71.8864 82.4265 72.1818C82.2134 72.4773 81.9151 72.7102 81.5316 72.8807C81.1481 73.0511 80.7021 73.1364 80.1935 73.1364C79.5259 73.1364 78.9734 72.9915 78.5359 72.7017C78.0984 72.4119 77.8214 71.9886 77.7049 71.4318L78.6594 71.1932C78.7504 71.5455 78.9222 71.8097 79.1751 71.9858C79.4308 72.1619 79.7646 72.25 80.1765 72.25C80.6452 72.25 81.0174 72.1506 81.293 71.9517C81.5714 71.75 81.7106 71.5085 81.7106 71.2273C81.7106 71 81.631 70.8097 81.4719 70.6562C81.3129 70.5 81.0685 70.3835 80.739 70.3068L79.6481 70.0511C79.0487 69.9091 78.6083 69.6889 78.3271 69.3906C78.0487 69.0895 77.9094 68.7131 77.9094 68.2614C77.9094 67.892 78.0131 67.5653 78.2205 67.2812C78.4308 66.9972 78.7163 66.7741 79.0771 66.6122C79.4407 66.4503 79.8526 66.3693 80.3129 66.3693C80.9606 66.3693 81.4691 66.5114 81.8384 66.7955C82.2106 67.0795 82.4748 67.4545 82.631 67.9205ZM84.9972 73.0682C84.7869 73.0682 84.6065 72.9929 84.456 72.8423C84.3054 72.6918 84.2301 72.5114 84.2301 72.3011C84.2301 72.0909 84.3054 71.9105 84.456 71.7599C84.6065 71.6094 84.7869 71.5341 84.9972 71.5341C85.2074 71.5341 85.3878 71.6094 85.5384 71.7599C85.6889 71.9105 85.7642 72.0909 85.7642 72.3011C85.7642 72.4403 85.7287 72.5682 85.6577 72.6847C85.5895 72.8011 85.4972 72.8949 85.3807 72.9659C85.267 73.0341 85.1392 73.0682 84.9972 73.0682ZM84.9972 68.2102C84.7869 68.2102 84.6065 68.1349 84.456 67.9844C84.3054 67.8338 84.2301 67.6534 84.2301 67.4432C84.2301 67.233 84.3054 67.0526 84.456 66.902C84.6065 66.7514 84.7869 66.6761 84.9972 66.6761C85.2074 66.6761 85.3878 66.7514 85.5384 66.902C85.6889 67.0526 85.7642 67.233 85.7642 67.4432C85.7642 67.5824 85.7287 67.7102 85.6577 67.8267C85.5895 67.9432 85.4972 68.0369 85.3807 68.108C85.267 68.1761 85.1392 68.2102 84.9972 68.2102ZM90.9439 75.4545V66.4545H91.9155V67.4943H92.0348C92.1087 67.3807 92.2109 67.2358 92.3416 67.0597C92.4751 66.8807 92.6655 66.7216 92.9126 66.5824C93.1626 66.4403 93.5007 66.3693 93.9268 66.3693C94.478 66.3693 94.9638 66.5071 95.3842 66.7827C95.8047 67.0582 96.1328 67.4489 96.3686 67.9545C96.6044 68.4602 96.7223 69.0568 96.7223 69.7443C96.7223 70.4375 96.6044 71.0384 96.3686 71.5469C96.1328 72.0526 95.8061 72.4446 95.3885 72.723C94.9709 72.9986 94.4893 73.1364 93.9439 73.1364C93.5234 73.1364 93.1868 73.0668 92.9339 72.9276C92.6811 72.7855 92.4865 72.625 92.3501 72.446C92.2138 72.2642 92.1087 72.1136 92.0348 71.9943H91.9496V75.4545H90.9439ZM91.9325 69.7273C91.9325 70.2216 92.005 70.6577 92.1499 71.0355C92.2947 71.4105 92.5064 71.7045 92.7848 71.9176C93.0632 72.1278 93.4041 72.233 93.8075 72.233C94.228 72.233 94.5788 72.1222 94.8601 71.9006C95.1442 71.6761 95.3572 71.375 95.4993 70.9972C95.6442 70.6165 95.7166 70.1932 95.7166 69.7273C95.7166 69.267 95.6456 68.8523 95.5036 68.483C95.3643 68.1108 95.1527 67.8168 94.8686 67.6009C94.5874 67.3821 94.2337 67.2727 93.8075 67.2727C93.3984 67.2727 93.0547 67.3764 92.7763 67.5838C92.4979 67.7884 92.2876 68.0753 92.1456 68.4446C92.0036 68.8111 91.9325 69.2386 91.9325 69.7273ZM99.2621 69.0625V73H98.2564V64.2727H99.2621V67.4773H99.3473C99.5007 67.1392 99.7308 66.8707 100.038 66.6719C100.347 66.4702 100.759 66.3693 101.273 66.3693C101.719 66.3693 102.11 66.4588 102.445 66.6378C102.781 66.8139 103.04 67.0852 103.225 67.4517C103.413 67.8153 103.506 68.2784 103.506 68.8409V73H102.501V68.9091C102.501 68.3892 102.366 67.9872 102.096 67.7031C101.829 67.4162 101.458 67.2727 100.984 67.2727C100.654 67.2727 100.359 67.3423 100.097 67.4815C99.8388 67.6207 99.6342 67.8239 99.4837 68.0909C99.3359 68.358 99.2621 68.6818 99.2621 69.0625ZM108.005 73.1364C107.414 73.1364 106.896 72.9957 106.45 72.7145C106.007 72.4332 105.66 72.0398 105.41 71.5341C105.163 71.0284 105.039 70.4375 105.039 69.7614C105.039 69.0795 105.163 68.4844 105.41 67.9759C105.66 67.4673 106.007 67.0724 106.45 66.7912C106.896 66.5099 107.414 66.3693 108.005 66.3693C108.596 66.3693 109.113 66.5099 109.556 66.7912C110.002 67.0724 110.349 67.4673 110.596 67.9759C110.846 68.4844 110.971 69.0795 110.971 69.7614C110.971 70.4375 110.846 71.0284 110.596 71.5341C110.349 72.0398 110.002 72.4332 109.556 72.7145C109.113 72.9957 108.596 73.1364 108.005 73.1364ZM108.005 72.233C108.454 72.233 108.824 72.1179 109.113 71.8878C109.403 71.6577 109.618 71.3551 109.757 70.9801C109.896 70.6051 109.966 70.1989 109.966 69.7614C109.966 69.3239 109.896 68.9162 109.757 68.5384C109.618 68.1605 109.403 67.8551 109.113 67.6222C108.824 67.3892 108.454 67.2727 108.005 67.2727C107.556 67.2727 107.187 67.3892 106.897 67.6222C106.608 67.8551 106.393 68.1605 106.254 68.5384C106.115 68.9162 106.045 69.3239 106.045 69.7614C106.045 70.1989 106.115 70.6051 106.254 70.9801C106.393 71.3551 106.608 71.6577 106.897 71.8878C107.187 72.1179 107.556 72.233 108.005 72.233ZM115.353 66.4545V67.3068H111.961V66.4545H115.353ZM112.95 64.8864H113.955V71.125C113.955 71.4091 113.996 71.6222 114.079 71.7642C114.164 71.9034 114.272 71.9972 114.403 72.0455C114.536 72.0909 114.677 72.1136 114.825 72.1136C114.935 72.1136 115.026 72.108 115.097 72.0966C115.168 72.0824 115.225 72.071 115.268 72.0625L115.472 72.9659C115.404 72.9915 115.309 73.017 115.187 73.0426C115.065 73.071 114.91 73.0852 114.722 73.0852C114.438 73.0852 114.16 73.0241 113.887 72.902C113.617 72.7798 113.393 72.5938 113.214 72.3438C113.038 72.0938 112.95 71.7784 112.95 71.3977V64.8864ZM119.455 73.1364C118.864 73.1364 118.345 72.9957 117.899 72.7145C117.456 72.4332 117.109 72.0398 116.859 71.5341C116.612 71.0284 116.489 70.4375 116.489 69.7614C116.489 69.0795 116.612 68.4844 116.859 67.9759C117.109 67.4673 117.456 67.0724 117.899 66.7912C118.345 66.5099 118.864 66.3693 119.455 66.3693C120.045 66.3693 120.563 66.5099 121.006 66.7912C121.452 67.0724 121.798 67.4673 122.045 67.9759C122.295 68.4844 122.42 69.0795 122.42 69.7614C122.42 70.4375 122.295 71.0284 122.045 71.5341C121.798 72.0398 121.452 72.4332 121.006 72.7145C120.563 72.9957 120.045 73.1364 119.455 73.1364ZM119.455 72.233C119.903 72.233 120.273 72.1179 120.562 71.8878C120.852 71.6577 121.067 71.3551 121.206 70.9801C121.345 70.6051 121.415 70.1989 121.415 69.7614C121.415 69.3239 121.345 68.9162 121.206 68.5384C121.067 68.1605 120.852 67.8551 120.562 67.6222C120.273 67.3892 119.903 67.2727 119.455 67.2727C119.006 67.2727 118.636 67.3892 118.347 67.6222C118.057 67.8551 117.842 68.1605 117.703 68.5384C117.564 68.9162 117.494 69.3239 117.494 69.7614C117.494 70.1989 117.564 70.6051 117.703 70.9801C117.842 71.3551 118.057 71.6577 118.347 71.8878C118.636 72.1179 119.006 72.233 119.455 72.233ZM128.592 67.9205L127.689 68.1761C127.632 68.0256 127.548 67.8793 127.437 67.7372C127.329 67.5923 127.181 67.473 126.994 67.3793C126.806 67.2855 126.566 67.2386 126.274 67.2386C125.873 67.2386 125.539 67.331 125.272 67.5156C125.008 67.6974 124.876 67.929 124.876 68.2102C124.876 68.4602 124.967 68.6577 125.149 68.8026C125.331 68.9474 125.615 69.0682 126.001 69.1648L126.973 69.4034C127.558 69.5455 127.994 69.7628 128.281 70.0554C128.568 70.3452 128.711 70.7187 128.711 71.1761C128.711 71.5511 128.603 71.8864 128.387 72.1818C128.174 72.4773 127.876 72.7102 127.493 72.8807C127.109 73.0511 126.663 73.1364 126.154 73.1364C125.487 73.1364 124.934 72.9915 124.497 72.7017C124.059 72.4119 123.782 71.9886 123.666 71.4318L124.62 71.1932C124.711 71.5455 124.883 71.8097 125.136 71.9858C125.392 72.1619 125.725 72.25 126.137 72.25C126.606 72.25 126.978 72.1506 127.254 71.9517C127.532 71.75 127.672 71.5085 127.672 71.2273C127.672 71 127.592 70.8097 127.433 70.6562C127.274 70.5 127.029 70.3835 126.7 70.3068L125.609 70.0511C125.01 69.9091 124.569 69.6889 124.288 69.3906C124.01 69.0895 123.87 68.7131 123.87 68.2614C123.87 67.892 123.974 67.5653 124.181 67.2812C124.392 66.9972 124.677 66.7741 125.038 66.6122C125.402 66.4503 125.814 66.3693 126.274 66.3693C126.922 66.3693 127.43 66.5114 127.799 66.7955C128.172 67.0795 128.436 67.4545 128.592 67.9205ZM131.725 71.8068L131.657 72.267C131.609 72.5909 131.535 72.9375 131.435 73.3068C131.339 73.6761 131.238 74.0241 131.133 74.3509C131.028 74.6776 130.941 74.9375 130.873 75.1307H130.106C130.143 74.9489 130.191 74.7088 130.251 74.4105C130.31 74.1122 130.37 73.7784 130.43 73.4091C130.492 73.0426 130.543 72.6676 130.583 72.2841L130.634 71.8068H131.725ZM141.6 67.9205L140.696 68.1761C140.64 68.0256 140.556 67.8793 140.445 67.7372C140.337 67.5923 140.189 67.473 140.002 67.3793C139.814 67.2855 139.574 67.2386 139.282 67.2386C138.881 67.2386 138.547 67.331 138.28 67.5156C138.016 67.6974 137.884 67.929 137.884 68.2102C137.884 68.4602 137.975 68.6577 138.157 68.8026C138.338 68.9474 138.623 69.0682 139.009 69.1648L139.98 69.4034C140.566 69.5455 141.002 69.7628 141.289 70.0554C141.576 70.3452 141.719 70.7187 141.719 71.1761C141.719 71.5511 141.611 71.8864 141.395 72.1818C141.182 72.4773 140.884 72.7102 140.5 72.8807C140.117 73.0511 139.671 73.1364 139.162 73.1364C138.495 73.1364 137.942 72.9915 137.505 72.7017C137.067 72.4119 136.79 71.9886 136.674 71.4318L137.628 71.1932C137.719 71.5455 137.891 71.8097 138.144 71.9858C138.4 72.1619 138.733 72.25 139.145 72.25C139.614 72.25 139.986 72.1506 140.262 71.9517C140.54 71.75 140.679 71.5085 140.679 71.2273C140.679 71 140.6 70.8097 140.441 70.6562C140.282 70.5 140.037 70.3835 139.708 70.3068L138.617 70.0511C138.017 69.9091 137.577 69.6889 137.296 69.3906C137.017 69.0895 136.878 68.7131 136.878 68.2614C136.878 67.892 136.982 67.5653 137.189 67.2812C137.4 66.9972 137.685 66.7741 138.046 66.6122C138.409 66.4503 138.821 66.3693 139.282 66.3693C139.929 66.3693 140.438 66.5114 140.807 66.7955C141.179 67.0795 141.444 67.4545 141.6 67.9205ZM143.233 75.4545V66.4545H144.205V67.4943H144.324C144.398 67.3807 144.5 67.2358 144.631 67.0597C144.764 66.8807 144.955 66.7216 145.202 66.5824C145.452 66.4403 145.79 66.3693 146.216 66.3693C146.767 66.3693 147.253 66.5071 147.673 66.7827C148.094 67.0582 148.422 67.4489 148.658 67.9545C148.893 68.4602 149.011 69.0568 149.011 69.7443C149.011 70.4375 148.893 71.0384 148.658 71.5469C148.422 72.0526 148.095 72.4446 147.678 72.723C147.26 72.9986 146.778 73.1364 146.233 73.1364C145.813 73.1364 145.476 73.0668 145.223 72.9276C144.97 72.7855 144.776 72.625 144.639 72.446C144.503 72.2642 144.398 72.1136 144.324 71.9943H144.239V75.4545H143.233ZM144.222 69.7273C144.222 70.2216 144.294 70.6577 144.439 71.0355C144.584 71.4105 144.795 71.7045 145.074 71.9176C145.352 72.1278 145.693 72.233 146.097 72.233C146.517 72.233 146.868 72.1222 147.149 71.9006C147.433 71.6761 147.646 71.375 147.788 70.9972C147.933 70.6165 148.006 70.1932 148.006 69.7273C148.006 69.267 147.935 68.8523 147.793 68.483C147.653 68.1108 147.442 67.8168 147.158 67.6009C146.876 67.3821 146.523 67.2727 146.097 67.2727C145.688 67.2727 145.344 67.3764 145.065 67.5838C144.787 67.7884 144.577 68.0753 144.435 68.4446C144.293 68.8111 144.222 69.2386 144.222 69.7273ZM153.29 73.1364C152.659 73.1364 152.115 72.9972 151.658 72.7188C151.203 72.4375 150.852 72.0455 150.605 71.5426C150.361 71.0369 150.239 70.4489 150.239 69.7784C150.239 69.108 150.361 68.517 150.605 68.0057C150.852 67.4915 151.196 67.0909 151.636 66.804C152.08 66.5142 152.597 66.3693 153.188 66.3693C153.528 66.3693 153.865 66.4261 154.197 66.5398C154.53 66.6534 154.832 66.8381 155.105 67.0938C155.378 67.3466 155.595 67.6818 155.757 68.0994C155.919 68.517 156 69.0312 156 69.642V70.0682H150.955V69.1989H154.977C154.977 68.8295 154.903 68.5 154.756 68.2102C154.611 67.9205 154.403 67.6918 154.134 67.5241C153.866 67.3565 153.551 67.2727 153.188 67.2727C152.787 67.2727 152.44 67.3722 152.148 67.571C151.858 67.767 151.635 68.0227 151.479 68.3381C151.322 68.6534 151.244 68.9915 151.244 69.3523V69.9318C151.244 70.4261 151.33 70.8452 151.5 71.1889C151.673 71.5298 151.913 71.7898 152.22 71.9688C152.527 72.1449 152.884 72.233 153.29 72.233C153.554 72.233 153.793 72.196 154.006 72.1222C154.222 72.0455 154.408 71.9318 154.564 71.7812C154.72 71.6278 154.841 71.4375 154.926 71.2102L155.898 71.483C155.795 71.8125 155.624 72.1023 155.382 72.3523C155.141 72.5994 154.842 72.7926 154.487 72.9318C154.132 73.0682 153.733 73.1364 153.29 73.1364ZM160.189 73.1364C159.575 73.1364 159.047 72.9915 158.604 72.7017C158.161 72.4119 157.82 72.0128 157.581 71.5043C157.342 70.9957 157.223 70.4148 157.223 69.7614C157.223 69.0966 157.345 68.5099 157.589 68.0014C157.837 67.4901 158.18 67.0909 158.621 66.804C159.064 66.5142 159.581 66.3693 160.172 66.3693C160.632 66.3693 161.047 66.4545 161.416 66.625C161.786 66.7955 162.088 67.0341 162.324 67.3409C162.56 67.6477 162.706 68.0057 162.763 68.4148H161.757C161.68 68.1165 161.51 67.8523 161.246 67.6222C160.984 67.3892 160.632 67.2727 160.189 67.2727C159.797 67.2727 159.453 67.375 159.158 67.5795C158.865 67.7812 158.636 68.0668 158.472 68.4361C158.31 68.8026 158.229 69.233 158.229 69.7273C158.229 70.233 158.308 70.6733 158.467 71.0483C158.629 71.4233 158.857 71.7145 159.149 71.9219C159.445 72.1293 159.791 72.233 160.189 72.233C160.45 72.233 160.688 72.1875 160.901 72.0966C161.114 72.0057 161.294 71.875 161.442 71.7045C161.589 71.5341 161.695 71.3295 161.757 71.0909H162.763C162.706 71.4773 162.565 71.8253 162.341 72.1349C162.119 72.4418 161.825 72.6861 161.459 72.8679C161.095 73.0469 160.672 73.1364 160.189 73.1364ZM168.869 67.9205L167.966 68.1761C167.909 68.0256 167.825 67.8793 167.714 67.7372C167.607 67.5923 167.459 67.473 167.271 67.3793C167.084 67.2855 166.844 67.2386 166.551 67.2386C166.151 67.2386 165.817 67.331 165.55 67.5156C165.286 67.6974 165.153 67.929 165.153 68.2102C165.153 68.4602 165.244 68.6577 165.426 68.8026C165.608 68.9474 165.892 69.0682 166.278 69.1648L167.25 69.4034C167.835 69.5455 168.271 69.7628 168.558 70.0554C168.845 70.3452 168.989 70.7187 168.989 71.1761C168.989 71.5511 168.881 71.8864 168.665 72.1818C168.452 72.4773 168.153 72.7102 167.77 72.8807C167.386 73.0511 166.94 73.1364 166.432 73.1364C165.764 73.1364 165.212 72.9915 164.774 72.7017C164.337 72.4119 164.06 71.9886 163.943 71.4318L164.898 71.1932C164.989 71.5455 165.161 71.8097 165.413 71.9858C165.669 72.1619 166.003 72.25 166.415 72.25C166.884 72.25 167.256 72.1506 167.531 71.9517C167.81 71.75 167.949 71.5085 167.949 71.2273C167.949 71 167.869 70.8097 167.71 70.6562C167.551 70.5 167.307 70.3835 166.977 70.3068L165.886 70.0511C165.287 69.9091 164.847 69.6889 164.565 69.3906C164.287 69.0895 164.148 68.7131 164.148 68.2614C164.148 67.892 164.251 67.5653 164.459 67.2812C164.669 66.9972 164.955 66.7741 165.315 66.6122C165.679 66.4503 166.091 66.3693 166.551 66.3693C167.199 66.3693 167.707 66.5114 168.077 66.7955C168.449 67.0795 168.713 67.4545 168.869 67.9205ZM172.002 71.8068L171.934 72.267C171.886 72.5909 171.812 72.9375 171.713 73.3068C171.616 73.6761 171.515 74.0241 171.41 74.3509C171.305 74.6776 171.218 74.9375 171.15 75.1307H170.383C170.42 74.9489 170.468 74.7088 170.528 74.4105C170.588 74.1122 170.647 73.7784 170.707 73.4091C170.77 73.0426 170.821 72.6676 170.86 72.2841L170.912 71.8068H172.002ZM181.877 67.9205L180.974 68.1761C180.917 68.0256 180.833 67.8793 180.722 67.7372C180.614 67.5923 180.467 67.473 180.279 67.3793C180.092 67.2855 179.852 67.2386 179.559 67.2386C179.158 67.2386 178.825 67.331 178.558 67.5156C178.293 67.6974 178.161 67.929 178.161 68.2102C178.161 68.4602 178.252 68.6577 178.434 68.8026C178.616 68.9474 178.9 69.0682 179.286 69.1648L180.258 69.4034C180.843 69.5455 181.279 69.7628 181.566 70.0554C181.853 70.3452 181.996 70.7187 181.996 71.1761C181.996 71.5511 181.888 71.8864 181.673 72.1818C181.46 72.4773 181.161 72.7102 180.778 72.8807C180.394 73.0511 179.948 73.1364 179.44 73.1364C178.772 73.1364 178.219 72.9915 177.782 72.7017C177.344 72.4119 177.067 71.9886 176.951 71.4318L177.906 71.1932C177.996 71.5455 178.168 71.8097 178.421 71.9858C178.677 72.1619 179.011 72.25 179.423 72.25C179.891 72.25 180.263 72.1506 180.539 71.9517C180.817 71.75 180.957 71.5085 180.957 71.2273C180.957 71 180.877 70.8097 180.718 70.6562C180.559 70.5 180.315 70.3835 179.985 70.3068L178.894 70.0511C178.295 69.9091 177.854 69.6889 177.573 69.3906C177.295 69.0895 177.156 68.7131 177.156 68.2614C177.156 67.892 177.259 67.5653 177.467 67.2812C177.677 66.9972 177.962 66.7741 178.323 66.6122C178.687 66.4503 179.099 66.3693 179.559 66.3693C180.207 66.3693 180.715 66.5114 181.085 66.7955C181.457 67.0795 181.721 67.4545 181.877 67.9205ZM186.357 66.4545V67.3068H182.965V66.4545H186.357ZM183.953 64.8864H184.959V71.125C184.959 71.4091 185 71.6222 185.083 71.7642C185.168 71.9034 185.276 71.9972 185.407 72.0455C185.54 72.0909 185.681 72.1136 185.828 72.1136C185.939 72.1136 186.03 72.108 186.101 72.0966C186.172 72.0824 186.229 72.071 186.272 72.0625L186.476 72.9659C186.408 72.9915 186.313 73.017 186.191 73.0426C186.069 73.071 185.914 73.0852 185.726 73.0852C185.442 73.0852 185.164 73.0241 184.891 72.902C184.621 72.7798 184.397 72.5938 184.218 72.3438C184.042 72.0938 183.953 71.7784 183.953 71.3977V64.8864ZM189.796 73.1534C189.381 73.1534 189.005 73.0753 188.667 72.919C188.328 72.7599 188.06 72.5312 187.861 72.233C187.662 71.9318 187.563 71.5682 187.563 71.142C187.563 70.767 187.637 70.4631 187.784 70.2301C187.932 69.9943 188.13 69.8097 188.377 69.6761C188.624 69.5426 188.897 69.4432 189.195 69.3778C189.496 69.3097 189.799 69.2557 190.103 69.2159C190.5 69.1648 190.823 69.1264 191.07 69.1009C191.32 69.0724 191.502 69.0256 191.615 68.9602C191.732 68.8949 191.79 68.7812 191.79 68.6193V68.5852C191.79 68.1648 191.675 67.8381 191.445 67.6051C191.218 67.3722 190.873 67.2557 190.409 67.2557C189.929 67.2557 189.553 67.3608 189.28 67.571C189.007 67.7812 188.816 68.0057 188.705 68.2443L187.75 67.9034C187.921 67.5057 188.148 67.196 188.432 66.9744C188.719 66.75 189.032 66.5937 189.37 66.5057C189.711 66.4148 190.046 66.3693 190.375 66.3693C190.586 66.3693 190.827 66.3949 191.1 66.446C191.375 66.4943 191.641 66.5952 191.897 66.7486C192.155 66.902 192.37 67.1335 192.54 67.4432C192.711 67.7528 192.796 68.1676 192.796 68.6875V73H191.79V72.1136H191.739C191.671 72.2557 191.557 72.4077 191.398 72.5696C191.239 72.7315 191.027 72.8693 190.763 72.983C190.499 73.0966 190.176 73.1534 189.796 73.1534ZM189.949 72.25C190.347 72.25 190.682 72.1719 190.955 72.0156C191.23 71.8594 191.438 71.6577 191.577 71.4105C191.719 71.1634 191.79 70.9034 191.79 70.6307V69.7102C191.748 69.7614 191.654 69.8082 191.509 69.8509C191.367 69.8906 191.202 69.9261 191.015 69.9574C190.83 69.9858 190.65 70.0114 190.473 70.0341C190.3 70.054 190.159 70.071 190.051 70.0852C189.79 70.1193 189.546 70.1747 189.319 70.2514C189.094 70.3253 188.912 70.4375 188.773 70.5881C188.637 70.7358 188.569 70.9375 188.569 71.1932C188.569 71.5426 188.698 71.8068 188.956 71.9858C189.218 72.1619 189.549 72.25 189.949 72.25ZM197.478 66.4545V67.3068H194.086V66.4545H197.478ZM195.075 64.8864H196.08V71.125C196.08 71.4091 196.121 71.6222 196.204 71.7642C196.289 71.9034 196.397 71.9972 196.528 72.0455C196.661 72.0909 196.802 72.1136 196.95 72.1136C197.06 72.1136 197.151 72.108 197.222 72.0966C197.293 72.0824 197.35 72.071 197.393 72.0625L197.597 72.9659C197.529 72.9915 197.434 73.017 197.312 73.0426C197.19 73.071 197.035 73.0852 196.847 73.0852C196.563 73.0852 196.285 73.0241 196.012 72.902C195.742 72.7798 195.518 72.5938 195.339 72.3438C195.163 72.0938 195.075 71.7784 195.075 71.3977V64.8864ZM203.116 70.3239V66.4545H204.121V73H203.116V71.892H203.048C202.894 72.2244 202.656 72.5071 202.332 72.7401C202.008 72.9702 201.599 73.0852 201.104 73.0852C200.695 73.0852 200.332 72.9957 200.013 72.8168C199.695 72.6349 199.445 72.3622 199.263 71.9986C199.082 71.6321 198.991 71.1705 198.991 70.6136V66.4545H199.996V70.5455C199.996 71.0227 200.13 71.4034 200.397 71.6875C200.667 71.9716 201.011 72.1136 201.428 72.1136C201.678 72.1136 201.933 72.0497 202.191 71.9219C202.452 71.794 202.671 71.598 202.847 71.3338C203.026 71.0696 203.116 70.733 203.116 70.3239ZM210.6 67.9205L209.696 68.1761C209.64 68.0256 209.556 67.8793 209.445 67.7372C209.337 67.5923 209.189 67.473 209.002 67.3793C208.814 67.2855 208.574 67.2386 208.282 67.2386C207.881 67.2386 207.547 67.331 207.28 67.5156C207.016 67.6974 206.884 67.929 206.884 68.2102C206.884 68.4602 206.975 68.6577 207.157 68.8026C207.338 68.9474 207.623 69.0682 208.009 69.1648L208.98 69.4034C209.566 69.5455 210.002 69.7628 210.289 70.0554C210.576 70.3452 210.719 70.7187 210.719 71.1761C210.719 71.5511 210.611 71.8864 210.395 72.1818C210.182 72.4773 209.884 72.7102 209.5 72.8807C209.117 73.0511 208.671 73.1364 208.162 73.1364C207.495 73.1364 206.942 72.9915 206.505 72.7017C206.067 72.4119 205.79 71.9886 205.674 71.4318L206.628 71.1932C206.719 71.5455 206.891 71.8097 207.144 71.9858C207.4 72.1619 207.733 72.25 208.145 72.25C208.614 72.25 208.986 72.1506 209.262 71.9517C209.54 71.75 209.679 71.5085 209.679 71.2273C209.679 71 209.6 70.8097 209.441 70.6562C209.282 70.5 209.037 70.3835 208.708 70.3068L207.617 70.0511C207.017 69.9091 206.577 69.6889 206.296 69.3906C206.017 69.0895 205.878 68.7131 205.878 68.2614C205.878 67.892 205.982 67.5653 206.189 67.2812C206.4 66.9972 206.685 66.7741 207.046 66.6122C207.409 66.4503 207.821 66.3693 208.282 66.3693C208.929 66.3693 209.438 66.5114 209.807 66.7955C210.179 67.0795 210.444 67.4545 210.6 67.9205ZM214.977 73.1364C214.347 73.1364 213.803 72.9972 213.345 72.7188C212.891 72.4375 212.54 72.0455 212.293 71.5426C212.048 71.0369 211.926 70.4489 211.926 69.7784C211.926 69.108 212.048 68.517 212.293 68.0057C212.54 67.4915 212.884 67.0909 213.324 66.804C213.767 66.5142 214.284 66.3693 214.875 66.3693C215.216 66.3693 215.553 66.4261 215.885 66.5398C216.217 66.6534 216.52 66.8381 216.793 67.0938C217.065 67.3466 217.283 67.6818 217.445 68.0994C217.607 68.517 217.688 69.0312 217.688 69.642V70.0682H212.642V69.1989H216.665C216.665 68.8295 216.591 68.5 216.443 68.2102C216.298 67.9205 216.091 67.6918 215.821 67.5241C215.554 67.3565 215.239 67.2727 214.875 67.2727C214.474 67.2727 214.128 67.3722 213.835 67.571C213.545 67.767 213.322 68.0227 213.166 68.3381C213.01 68.6534 212.932 68.9915 212.932 69.3523V69.9318C212.932 70.4261 213.017 70.8452 213.188 71.1889C213.361 71.5298 213.601 71.7898 213.908 71.9688C214.214 72.1449 214.571 72.233 214.977 72.233C215.241 72.233 215.48 72.196 215.693 72.1222C215.909 72.0455 216.095 71.9318 216.251 71.7812C216.408 71.6278 216.528 71.4375 216.614 71.2102L217.585 71.483C217.483 71.8125 217.311 72.1023 217.07 72.3523C216.828 72.5994 216.53 72.7926 216.175 72.9318C215.82 73.0682 215.42 73.1364 214.977 73.1364ZM223.854 67.9205L222.95 68.1761C222.893 68.0256 222.81 67.8793 222.699 67.7372C222.591 67.5923 222.443 67.473 222.256 67.3793C222.068 67.2855 221.828 67.2386 221.536 67.2386C221.135 67.2386 220.801 67.331 220.534 67.5156C220.27 67.6974 220.138 67.929 220.138 68.2102C220.138 68.4602 220.229 68.6577 220.411 68.8026C220.592 68.9474 220.876 69.0682 221.263 69.1648L222.234 69.4034C222.82 69.5455 223.256 69.7628 223.543 70.0554C223.83 70.3452 223.973 70.7187 223.973 71.1761C223.973 71.5511 223.865 71.8864 223.649 72.1818C223.436 72.4773 223.138 72.7102 222.754 72.8807C222.371 73.0511 221.925 73.1364 221.416 73.1364C220.749 73.1364 220.196 72.9915 219.759 72.7017C219.321 72.4119 219.044 71.9886 218.928 71.4318L219.882 71.1932C219.973 71.5455 220.145 71.8097 220.398 71.9858C220.653 72.1619 220.987 72.25 221.399 72.25C221.868 72.25 222.24 72.1506 222.516 71.9517C222.794 71.75 222.933 71.5085 222.933 71.2273C222.933 71 222.854 70.8097 222.695 70.6562C222.536 70.5 222.291 70.3835 221.962 70.3068L220.871 70.0511C220.271 69.9091 219.831 69.6889 219.55 69.3906C219.271 69.0895 219.132 68.7131 219.132 68.2614C219.132 67.892 219.236 67.5653 219.443 67.2812C219.653 66.9972 219.939 66.7741 220.3 66.6122C220.663 66.4503 221.075 66.3693 221.536 66.3693C222.183 66.3693 222.692 66.5114 223.061 66.7955C223.433 67.0795 223.697 67.4545 223.854 67.9205ZM226.987 71.8068L226.919 72.267C226.87 72.5909 226.797 72.9375 226.697 73.3068C226.6 73.6761 226.5 74.0241 226.395 74.3509C226.289 74.6776 226.203 74.9375 226.135 75.1307H225.368C225.404 74.9489 225.453 74.7088 225.512 74.4105C225.572 74.1122 225.632 73.7784 225.691 73.4091C225.754 73.0426 225.805 72.6676 225.845 72.2841L225.896 71.8068H226.987ZM236.862 67.9205L235.958 68.1761C235.901 68.0256 235.817 67.8793 235.707 67.7372C235.599 67.5923 235.451 67.473 235.263 67.3793C235.076 67.2855 234.836 67.2386 234.543 67.2386C234.143 67.2386 233.809 67.331 233.542 67.5156C233.278 67.6974 233.146 67.929 233.146 68.2102C233.146 68.4602 233.237 68.6577 233.418 68.8026C233.6 68.9474 233.884 69.0682 234.271 69.1648L235.242 69.4034C235.827 69.5455 236.263 69.7628 236.55 70.0554C236.837 70.3452 236.981 70.7187 236.981 71.1761C236.981 71.5511 236.873 71.8864 236.657 72.1818C236.444 72.4773 236.146 72.7102 235.762 72.8807C235.379 73.0511 234.933 73.1364 234.424 73.1364C233.756 73.1364 233.204 72.9915 232.766 72.7017C232.329 72.4119 232.052 71.9886 231.935 71.4318L232.89 71.1932C232.981 71.5455 233.153 71.8097 233.406 71.9858C233.661 72.1619 233.995 72.25 234.407 72.25C234.876 72.25 235.248 72.1506 235.523 71.9517C235.802 71.75 235.941 71.5085 235.941 71.2273C235.941 71 235.862 70.8097 235.702 70.6562C235.543 70.5 235.299 70.3835 234.969 70.3068L233.879 70.0511C233.279 69.9091 232.839 69.6889 232.558 69.3906C232.279 69.0895 232.14 68.7131 232.14 68.2614C232.14 67.892 232.244 67.5653 232.451 67.2812C232.661 66.9972 232.947 66.7741 233.308 66.6122C233.671 66.4503 234.083 66.3693 234.543 66.3693C235.191 66.3693 235.7 66.5114 236.069 66.7955C236.441 67.0795 236.705 67.4545 236.862 67.9205ZM240.421 73.1534C240.006 73.1534 239.63 73.0753 239.292 72.919C238.953 72.7599 238.685 72.5312 238.486 72.233C238.287 71.9318 238.188 71.5682 238.188 71.142C238.188 70.767 238.262 70.4631 238.409 70.2301C238.557 69.9943 238.755 69.8097 239.002 69.6761C239.249 69.5426 239.522 69.4432 239.82 69.3778C240.121 69.3097 240.424 69.2557 240.728 69.2159C241.125 69.1648 241.448 69.1264 241.695 69.1009C241.945 69.0724 242.127 69.0256 242.24 68.9602C242.357 68.8949 242.415 68.7812 242.415 68.6193V68.5852C242.415 68.1648 242.3 67.8381 242.07 67.6051C241.843 67.3722 241.498 67.2557 241.034 67.2557C240.554 67.2557 240.178 67.3608 239.905 67.571C239.632 67.7812 239.441 68.0057 239.33 68.2443L238.375 67.9034C238.546 67.5057 238.773 67.196 239.057 66.9744C239.344 66.75 239.657 66.5937 239.995 66.5057C240.336 66.4148 240.671 66.3693 241 66.3693C241.211 66.3693 241.452 66.3949 241.725 66.446C242 66.4943 242.266 66.5952 242.522 66.7486C242.78 66.902 242.995 67.1335 243.165 67.4432C243.336 67.7528 243.421 68.1676 243.421 68.6875V73H242.415V72.1136H242.364C242.296 72.2557 242.182 72.4077 242.023 72.5696C241.864 72.7315 241.652 72.8693 241.388 72.983C241.124 73.0966 240.801 73.1534 240.421 73.1534ZM240.574 72.25C240.972 72.25 241.307 72.1719 241.58 72.0156C241.855 71.8594 242.063 71.6577 242.202 71.4105C242.344 71.1634 242.415 70.9034 242.415 70.6307V69.7102C242.373 69.7614 242.279 69.8082 242.134 69.8509C241.992 69.8906 241.827 69.9261 241.64 69.9574C241.455 69.9858 241.275 70.0114 241.098 70.0341C240.925 70.054 240.784 70.071 240.676 70.0852C240.415 70.1193 240.171 70.1747 239.944 70.2514C239.719 70.3253 239.537 70.4375 239.398 70.5881C239.262 70.7358 239.194 70.9375 239.194 71.1932C239.194 71.5426 239.323 71.8068 239.581 71.9858C239.843 72.1619 240.174 72.25 240.574 72.25ZM246.262 64.2727V73H245.256V64.2727H246.262ZM250.848 73.1364C250.218 73.1364 249.674 72.9972 249.216 72.7188C248.762 72.4375 248.411 72.0455 248.164 71.5426C247.919 71.0369 247.797 70.4489 247.797 69.7784C247.797 69.108 247.919 68.517 248.164 68.0057C248.411 67.4915 248.755 67.0909 249.195 66.804C249.638 66.5142 250.155 66.3693 250.746 66.3693C251.087 66.3693 251.424 66.4261 251.756 66.5398C252.088 66.6534 252.391 66.8381 252.664 67.0938C252.936 67.3466 253.154 67.6818 253.316 68.0994C253.478 68.517 253.559 69.0312 253.559 69.642V70.0682H248.513V69.1989H252.536C252.536 68.8295 252.462 68.5 252.314 68.2102C252.169 67.9205 251.962 67.6918 251.692 67.5241C251.425 67.3565 251.11 67.2727 250.746 67.2727C250.346 67.2727 249.999 67.3722 249.706 67.571C249.417 67.767 249.194 68.0227 249.037 68.3381C248.881 68.6534 248.803 68.9915 248.803 69.3523V69.9318C248.803 70.4261 248.888 70.8452 249.059 71.1889C249.232 71.5298 249.472 71.7898 249.779 71.9688C250.086 72.1449 250.442 72.233 250.848 72.233C251.113 72.233 251.351 72.196 251.564 72.1222C251.78 72.0455 251.966 71.9318 252.123 71.7812C252.279 71.6278 252.4 71.4375 252.485 71.2102L253.456 71.483C253.354 71.8125 253.182 72.1023 252.941 72.3523C252.699 72.5994 252.401 72.7926 252.046 72.9318C251.691 73.0682 251.292 73.1364 250.848 73.1364ZM258.463 75.4545V66.4545H259.435V67.4943H259.554C259.628 67.3807 259.73 67.2358 259.861 67.0597C259.995 66.8807 260.185 66.7216 260.432 66.5824C260.682 66.4403 261.02 66.3693 261.446 66.3693C261.998 66.3693 262.483 66.5071 262.904 66.7827C263.324 67.0582 263.652 67.4489 263.888 67.9545C264.124 68.4602 264.242 69.0568 264.242 69.7443C264.242 70.4375 264.124 71.0384 263.888 71.5469C263.652 72.0526 263.326 72.4446 262.908 72.723C262.49 72.9986 262.009 73.1364 261.463 73.1364C261.043 73.1364 260.706 73.0668 260.453 72.9276C260.201 72.7855 260.006 72.625 259.87 72.446C259.733 72.2642 259.628 72.1136 259.554 71.9943H259.469V75.4545H258.463ZM259.452 69.7273C259.452 70.2216 259.525 70.6577 259.669 71.0355C259.814 71.4105 260.026 71.7045 260.304 71.9176C260.583 72.1278 260.924 72.233 261.327 72.233C261.748 72.233 262.098 72.1222 262.38 71.9006C262.664 71.6761 262.877 71.375 263.019 70.9972C263.164 70.6165 263.236 70.1932 263.236 69.7273C263.236 69.267 263.165 68.8523 263.023 68.483C262.884 68.1108 262.672 67.8168 262.388 67.6009C262.107 67.3821 261.753 67.2727 261.327 67.2727C260.918 67.2727 260.574 67.3764 260.296 67.5838C260.017 67.7884 259.807 68.0753 259.665 68.4446C259.523 68.8111 259.452 69.2386 259.452 69.7273ZM265.776 73V66.4545H266.748V67.4432H266.816C266.935 67.1193 267.151 66.8565 267.463 66.6548C267.776 66.4531 268.128 66.3523 268.52 66.3523C268.594 66.3523 268.686 66.3537 268.797 66.3565C268.908 66.3594 268.992 66.3636 269.049 66.3693V67.392C269.015 67.3835 268.936 67.3707 268.814 67.3537C268.695 67.3338 268.569 67.3239 268.435 67.3239C268.117 67.3239 267.833 67.3906 267.583 67.5241C267.336 67.6548 267.14 67.8366 266.995 68.0696C266.853 68.2997 266.782 68.5625 266.782 68.858V73H265.776ZM270.241 73V66.4545H271.246V73H270.241ZM270.752 65.3636C270.556 65.3636 270.387 65.2969 270.245 65.1634C270.106 65.0298 270.036 64.8693 270.036 64.6818C270.036 64.4943 270.106 64.3338 270.245 64.2003C270.387 64.0668 270.556 64 270.752 64C270.948 64 271.116 64.0668 271.255 64.2003C271.397 64.3338 271.468 64.4943 271.468 64.6818C271.468 64.8693 271.397 65.0298 271.255 65.1634C271.116 65.2969 270.948 65.3636 270.752 65.3636ZM275.748 73.1364C275.134 73.1364 274.605 72.9915 274.162 72.7017C273.719 72.4119 273.378 72.0128 273.14 71.5043C272.901 70.9957 272.782 70.4148 272.782 69.7614C272.782 69.0966 272.904 68.5099 273.148 68.0014C273.395 67.4901 273.739 67.0909 274.179 66.804C274.623 66.5142 275.14 66.3693 275.73 66.3693C276.191 66.3693 276.605 66.4545 276.975 66.625C277.344 66.7955 277.647 67.0341 277.882 67.3409C278.118 67.6477 278.265 68.0057 278.321 68.4148H277.316C277.239 68.1165 277.069 67.8523 276.804 67.6222C276.543 67.3892 276.191 67.2727 275.748 67.2727C275.355 67.2727 275.012 67.375 274.716 67.5795C274.424 67.7812 274.195 68.0668 274.03 68.4361C273.868 68.8026 273.787 69.233 273.787 69.7273C273.787 70.233 273.867 70.6733 274.026 71.0483C274.188 71.4233 274.415 71.7145 274.708 71.9219C275.003 72.1293 275.35 72.233 275.748 72.233C276.009 72.233 276.246 72.1875 276.459 72.0966C276.672 72.0057 276.853 71.875 277 71.7045C277.148 71.5341 277.253 71.3295 277.316 71.0909H278.321C278.265 71.4773 278.124 71.8253 277.9 72.1349C277.678 72.4418 277.384 72.6861 277.017 72.8679C276.654 73.0469 276.23 73.1364 275.748 73.1364ZM282.536 73.1364C281.905 73.1364 281.361 72.9972 280.904 72.7188C280.449 72.4375 280.098 72.0455 279.851 71.5426C279.607 71.0369 279.485 70.4489 279.485 69.7784C279.485 69.108 279.607 68.517 279.851 68.0057C280.098 67.4915 280.442 67.0909 280.882 66.804C281.326 66.5142 281.843 66.3693 282.434 66.3693C282.775 66.3693 283.111 66.4261 283.444 66.5398C283.776 66.6534 284.078 66.8381 284.351 67.0938C284.624 67.3466 284.841 67.6818 285.003 68.0994C285.165 68.517 285.246 69.0312 285.246 69.642V70.0682H280.201V69.1989H284.223C284.223 68.8295 284.15 68.5 284.002 68.2102C283.857 67.9205 283.65 67.6918 283.38 67.5241C283.113 67.3565 282.797 67.2727 282.434 67.2727C282.033 67.2727 281.686 67.3722 281.394 67.571C281.104 67.767 280.881 68.0227 280.725 68.3381C280.569 68.6534 280.49 68.9915 280.49 69.3523V69.9318C280.49 70.4261 280.576 70.8452 280.746 71.1889C280.919 71.5298 281.159 71.7898 281.466 71.9688C281.773 72.1449 282.13 72.233 282.536 72.233C282.8 72.233 283.039 72.196 283.252 72.1222C283.468 72.0455 283.654 71.9318 283.81 71.7812C283.966 71.6278 284.087 71.4375 284.172 71.2102L285.144 71.483C285.042 71.8125 284.87 72.1023 284.628 72.3523C284.387 72.5994 284.088 72.7926 283.733 72.9318C283.378 73.0682 282.979 73.1364 282.536 73.1364ZM291.412 67.9205L290.509 68.1761C290.452 68.0256 290.368 67.8793 290.257 67.7372C290.15 67.5923 290.002 67.473 289.814 67.3793C289.627 67.2855 289.387 67.2386 289.094 67.2386C288.694 67.2386 288.36 67.331 288.093 67.5156C287.828 67.6974 287.696 67.929 287.696 68.2102C287.696 68.4602 287.787 68.6577 287.969 68.8026C288.151 68.9474 288.435 69.0682 288.821 69.1648L289.793 69.4034C290.378 69.5455 290.814 69.7628 291.101 70.0554C291.388 70.3452 291.532 70.7187 291.532 71.1761C291.532 71.5511 291.424 71.8864 291.208 72.1818C290.995 72.4773 290.696 72.7102 290.313 72.8807C289.929 73.0511 289.483 73.1364 288.975 73.1364C288.307 73.1364 287.755 72.9915 287.317 72.7017C286.88 72.4119 286.603 71.9886 286.486 71.4318L287.441 71.1932C287.532 71.5455 287.703 71.8097 287.956 71.9858C288.212 72.1619 288.546 72.25 288.958 72.25C289.426 72.25 289.799 72.1506 290.074 71.9517C290.353 71.75 290.492 71.5085 290.492 71.2273C290.492 71 290.412 70.8097 290.253 70.6562C290.094 70.5 289.85 70.3835 289.52 70.3068L288.429 70.0511C287.83 69.9091 287.39 69.6889 287.108 69.3906C286.83 69.0895 286.691 68.7131 286.691 68.2614C286.691 67.892 286.794 67.5653 287.002 67.2812C287.212 66.9972 287.498 66.7741 287.858 66.6122C288.222 66.4503 288.634 66.3693 289.094 66.3693C289.742 66.3693 290.25 66.5114 290.62 66.7955C290.992 67.0795 291.256 67.4545 291.412 67.9205ZM298.347 73.1534C297.932 73.1534 297.555 73.0753 297.217 72.919C296.879 72.7599 296.611 72.5312 296.412 72.233C296.213 71.9318 296.114 71.5682 296.114 71.142C296.114 70.767 296.188 70.4631 296.335 70.2301C296.483 69.9943 296.68 69.8097 296.928 69.6761C297.175 69.5426 297.447 69.4432 297.746 69.3778C298.047 69.3097 298.349 69.2557 298.653 69.2159C299.051 69.1648 299.374 69.1264 299.621 69.1009C299.871 69.0724 300.053 69.0256 300.166 68.9602C300.283 68.8949 300.341 68.7812 300.341 68.6193V68.5852C300.341 68.1648 300.226 67.8381 299.996 67.6051C299.768 67.3722 299.423 67.2557 298.96 67.2557C298.48 67.2557 298.104 67.3608 297.831 67.571C297.558 67.7812 297.366 68.0057 297.256 68.2443L296.301 67.9034C296.472 67.5057 296.699 67.196 296.983 66.9744C297.27 66.75 297.582 66.5937 297.92 66.5057C298.261 66.4148 298.597 66.3693 298.926 66.3693C299.136 66.3693 299.378 66.3949 299.651 66.446C299.926 66.4943 300.192 66.5952 300.447 66.7486C300.706 66.902 300.92 67.1335 301.091 67.4432C301.261 67.7528 301.347 68.1676 301.347 68.6875V73H300.341V72.1136H300.29C300.222 72.2557 300.108 72.4077 299.949 72.5696C299.79 72.7315 299.578 72.8693 299.314 72.983C299.05 73.0966 298.727 73.1534 298.347 73.1534ZM298.5 72.25C298.898 72.25 299.233 72.1719 299.506 72.0156C299.781 71.8594 299.989 71.6577 300.128 71.4105C300.27 71.1634 300.341 70.9034 300.341 70.6307V69.7102C300.298 69.7614 300.205 69.8082 300.06 69.8509C299.918 69.8906 299.753 69.9261 299.565 69.9574C299.381 69.9858 299.2 70.0114 299.024 70.0341C298.851 70.054 298.71 70.071 298.602 70.0852C298.341 70.1193 298.097 70.1747 297.869 70.2514C297.645 70.3253 297.463 70.4375 297.324 70.5881C297.188 70.7358 297.119 70.9375 297.119 71.1932C297.119 71.5426 297.249 71.8068 297.507 71.9858C297.768 72.1619 298.099 72.25 298.5 72.25ZM304.188 69.0625V73H303.182V66.4545H304.154V67.4773H304.239C304.392 67.1449 304.625 66.8778 304.938 66.6761C305.25 66.4716 305.654 66.3693 306.148 66.3693C306.591 66.3693 306.979 66.4602 307.311 66.642C307.644 66.821 307.902 67.0938 308.087 67.4602C308.272 67.8239 308.364 68.2841 308.364 68.8409V73H307.358V68.9091C307.358 68.3949 307.225 67.9943 306.958 67.7074C306.691 67.4176 306.324 67.2727 305.858 67.2727C305.537 67.2727 305.25 67.3423 304.998 67.4815C304.748 67.6207 304.55 67.8239 304.405 68.0909C304.26 68.358 304.188 68.6818 304.188 69.0625ZM312.673 73.1364C312.128 73.1364 311.646 72.9986 311.229 72.723C310.811 72.4446 310.484 72.0526 310.249 71.5469C310.013 71.0384 309.895 70.4375 309.895 69.7443C309.895 69.0568 310.013 68.4602 310.249 67.9545C310.484 67.4489 310.813 67.0582 311.233 66.7827C311.653 66.5071 312.139 66.3693 312.69 66.3693C313.116 66.3693 313.453 66.4403 313.7 66.5824C313.95 66.7216 314.141 66.8807 314.271 67.0597C314.405 67.2358 314.509 67.3807 314.582 67.4943H314.668V64.2727H315.673V73H314.702V71.9943H314.582C314.509 72.1136 314.403 72.2642 314.267 72.446C314.131 72.625 313.936 72.7855 313.683 72.9276C313.43 73.0668 313.094 73.1364 312.673 73.1364ZM312.81 72.233C313.213 72.233 313.554 72.1278 313.832 71.9176C314.111 71.7045 314.322 71.4105 314.467 71.0355C314.612 70.6577 314.685 70.2216 314.685 69.7273C314.685 69.2386 314.614 68.8111 314.472 68.4446C314.33 68.0753 314.119 67.7884 313.841 67.5838C313.563 67.3764 313.219 67.2727 312.81 67.2727C312.384 67.2727 312.028 67.3821 311.744 67.6009C311.463 67.8168 311.251 68.1108 311.109 68.483C310.97 68.8523 310.901 69.267 310.901 69.7273C310.901 70.1932 310.972 70.6165 311.114 70.9972C311.259 71.375 311.472 71.6761 311.753 71.9006C312.037 72.1222 312.389 72.233 312.81 72.233ZM322.036 69.0625V73H321.03V64.2727H322.036V67.4773H322.121C322.274 67.1392 322.504 66.8707 322.811 66.6719C323.121 66.4702 323.533 66.3693 324.047 66.3693C324.493 66.3693 324.884 66.4588 325.219 66.6378C325.554 66.8139 325.814 67.0852 325.999 67.4517C326.186 67.8153 326.28 68.2784 326.28 68.8409V73H325.274V68.9091C325.274 68.3892 325.139 67.9872 324.869 67.7031C324.602 67.4162 324.232 67.2727 323.757 67.2727C323.428 67.2727 323.132 67.3423 322.871 67.4815C322.612 67.6207 322.408 67.8239 322.257 68.0909C322.109 68.358 322.036 68.6818 322.036 69.0625ZM328.12 73V66.4545H329.125V73H328.12ZM328.631 65.3636C328.435 65.3636 328.266 65.2969 328.124 65.1634C327.985 65.0298 327.915 64.8693 327.915 64.6818C327.915 64.4943 327.985 64.3338 328.124 64.2003C328.266 64.0668 328.435 64 328.631 64C328.827 64 328.995 64.0668 329.134 64.2003C329.276 64.3338 329.347 64.4943 329.347 64.6818C329.347 64.8693 329.276 65.0298 329.134 65.1634C328.995 65.2969 328.827 65.3636 328.631 65.3636ZM335.604 67.9205L334.7 68.1761C334.643 68.0256 334.56 67.8793 334.449 67.7372C334.341 67.5923 334.193 67.473 334.006 67.3793C333.818 67.2855 333.578 67.2386 333.286 67.2386C332.885 67.2386 332.551 67.331 332.284 67.5156C332.02 67.6974 331.888 67.929 331.888 68.2102C331.888 68.4602 331.979 68.6577 332.161 68.8026C332.342 68.9474 332.626 69.0682 333.013 69.1648L333.984 69.4034C334.57 69.5455 335.006 69.7628 335.293 70.0554C335.58 70.3452 335.723 70.7187 335.723 71.1761C335.723 71.5511 335.615 71.8864 335.399 72.1818C335.186 72.4773 334.888 72.7102 334.504 72.8807C334.121 73.0511 333.675 73.1364 333.166 73.1364C332.499 73.1364 331.946 72.9915 331.509 72.7017C331.071 72.4119 330.794 71.9886 330.678 71.4318L331.632 71.1932C331.723 71.5455 331.895 71.8097 332.148 71.9858C332.403 72.1619 332.737 72.25 333.149 72.25C333.618 72.25 333.99 72.1506 334.266 71.9517C334.544 71.75 334.683 71.5085 334.683 71.2273C334.683 71 334.604 70.8097 334.445 70.6562C334.286 70.5 334.041 70.3835 333.712 70.3068L332.621 70.0511C332.021 69.9091 331.581 69.6889 331.3 69.3906C331.021 69.0895 330.882 68.7131 330.882 68.2614C330.882 67.892 330.986 67.5653 331.193 67.2812C331.403 66.9972 331.689 66.7741 332.05 66.6122C332.413 66.4503 332.825 66.3693 333.286 66.3693C333.933 66.3693 334.442 66.5114 334.811 66.7955C335.183 67.0795 335.447 67.4545 335.604 67.9205ZM340.083 66.4545V67.3068H336.691V66.4545H340.083ZM337.68 64.8864H338.686V71.125C338.686 71.4091 338.727 71.6222 338.809 71.7642C338.895 71.9034 339.002 71.9972 339.133 72.0455C339.267 72.0909 339.407 72.1136 339.555 72.1136C339.666 72.1136 339.757 72.108 339.828 72.0966C339.899 72.0824 339.956 72.071 339.998 72.0625L340.203 72.9659C340.135 72.9915 340.039 73.017 339.917 73.0426C339.795 73.071 339.64 73.0852 339.453 73.0852C339.169 73.0852 338.89 73.0241 338.618 72.902C338.348 72.7798 338.123 72.5938 337.944 72.3438C337.768 72.0938 337.68 71.7784 337.68 71.3977V64.8864ZM344.185 73.1364C343.594 73.1364 343.076 72.9957 342.63 72.7145C342.186 72.4332 341.84 72.0398 341.59 71.5341C341.343 71.0284 341.219 70.4375 341.219 69.7614C341.219 69.0795 341.343 68.4844 341.59 67.9759C341.84 67.4673 342.186 67.0724 342.63 66.7912C343.076 66.5099 343.594 66.3693 344.185 66.3693C344.776 66.3693 345.293 66.5099 345.736 66.7912C346.182 67.0724 346.529 67.4673 346.776 67.9759C347.026 68.4844 347.151 69.0795 347.151 69.7614C347.151 70.4375 347.026 71.0284 346.776 71.5341C346.529 72.0398 346.182 72.4332 345.736 72.7145C345.293 72.9957 344.776 73.1364 344.185 73.1364ZM344.185 72.233C344.634 72.233 345.003 72.1179 345.293 71.8878C345.583 71.6577 345.797 71.3551 345.936 70.9801C346.076 70.6051 346.145 70.1989 346.145 69.7614C346.145 69.3239 346.076 68.9162 345.936 68.5384C345.797 68.1605 345.583 67.8551 345.293 67.6222C345.003 67.3892 344.634 67.2727 344.185 67.2727C343.736 67.2727 343.367 67.3892 343.077 67.6222C342.787 67.8551 342.573 68.1605 342.434 68.5384C342.294 68.9162 342.225 69.3239 342.225 69.7614C342.225 70.1989 342.294 70.6051 342.434 70.9801C342.573 71.3551 342.787 71.6577 343.077 71.8878C343.367 72.1179 343.736 72.233 344.185 72.233ZM348.686 73V66.4545H349.658V67.4432H349.726C349.845 67.1193 350.061 66.8565 350.374 66.6548C350.686 66.4531 351.038 66.3523 351.43 66.3523C351.504 66.3523 351.597 66.3537 351.707 66.3565C351.818 66.3594 351.902 66.3636 351.959 66.3693V67.392C351.925 67.3835 351.847 67.3707 351.724 67.3537C351.605 67.3338 351.479 67.3239 351.345 67.3239C351.027 67.3239 350.743 67.3906 350.493 67.5241C350.246 67.6548 350.05 67.8366 349.905 68.0696C349.763 68.2997 349.692 68.5625 349.692 68.858V73H348.686ZM353.998 75.4545C353.827 75.4545 353.675 75.4403 353.542 75.4119C353.408 75.3864 353.316 75.3608 353.265 75.3352L353.521 74.4489C353.765 74.5114 353.981 74.5341 354.168 74.517C354.356 74.5 354.522 74.4162 354.667 74.2656C354.815 74.1179 354.95 73.8778 355.072 73.5455L355.259 73.0341L352.839 66.4545H353.93L355.737 71.6705H355.805L357.612 66.4545H358.702L355.924 73.9545C355.799 74.2926 355.644 74.5724 355.46 74.794C355.275 75.0185 355.06 75.1847 354.816 75.2926C354.575 75.4006 354.302 75.4545 353.998 75.4545ZM360.353 73.0682C360.142 73.0682 359.962 72.9929 359.811 72.8423C359.661 72.6918 359.586 72.5114 359.586 72.3011C359.586 72.0909 359.661 71.9105 359.811 71.7599C359.962 71.6094 360.142 71.5341 360.353 71.5341C360.563 71.5341 360.743 71.6094 360.894 71.7599C361.044 71.9105 361.12 72.0909 361.12 72.3011C361.12 72.4403 361.084 72.5682 361.013 72.6847C360.945 72.8011 360.853 72.8949 360.736 72.9659C360.623 73.0341 360.495 73.0682 360.353 73.0682Z" fill="#737880"/>
</svg>
