<svg width="494" height="100" viewBox="0 0 494 100" fill="none" xmlns="http://www.w3.org/2000/svg">
<rect x="0.5" y="0.5" width="493" height="99" rx="15.5" fill="#171718"/>
<rect x="0.5" y="0.5" width="493" height="99" rx="15.5" stroke="#2E2E30"/>
<path d="M36.179 47L30.4347 39.3722H28.8835V47H25.7216V29.5455H28.8835V36.7216H29.6761L35.8807 29.5455H39.7756L32.8807 37.5057L40.0739 47H36.179ZM45.8523 47.2642C45.0227 47.2642 44.2756 47.1165 43.6108 46.821C42.9517 46.5199 42.429 46.0767 42.0426 45.4915C41.6619 44.9062 41.4716 44.1847 41.4716 43.3267C41.4716 42.5881 41.608 41.9773 41.8807 41.4943C42.1534 41.0114 42.5256 40.625 42.9972 40.3352C43.4688 40.0455 44 39.8267 44.5909 39.679C45.1875 39.5256 45.804 39.4148 46.4403 39.3466C47.2074 39.267 47.8295 39.196 48.3068 39.1335C48.7841 39.0653 49.1307 38.9631 49.3466 38.8267C49.5682 38.6847 49.679 38.4659 49.679 38.1705V38.1193C49.679 37.4773 49.4886 36.9801 49.108 36.6278C48.7273 36.2756 48.179 36.0994 47.4631 36.0994C46.7074 36.0994 46.108 36.2642 45.6648 36.5938C45.2273 36.9233 44.9318 37.3125 44.7784 37.7614L41.8977 37.3523C42.125 36.5568 42.5 35.892 43.0227 35.358C43.5455 34.8182 44.1847 34.4148 44.9403 34.1477C45.696 33.875 46.5313 33.7386 47.446 33.7386C48.0767 33.7386 48.7045 33.8125 49.3295 33.9602C49.9545 34.108 50.5256 34.3523 51.0426 34.6932C51.5597 35.0284 51.9744 35.4858 52.2869 36.0653C52.6051 36.6449 52.7642 37.3693 52.7642 38.2386V47H49.7983V45.2017H49.696C49.5085 45.5653 49.2443 45.9062 48.9034 46.2244C48.5682 46.5369 48.1449 46.7898 47.6335 46.983C47.1278 47.1705 46.5341 47.2642 45.8523 47.2642ZM46.6534 44.9972C47.2727 44.9972 47.8097 44.875 48.2642 44.6307C48.7188 44.3807 49.0682 44.0511 49.3125 43.642C49.5625 43.233 49.6875 42.7869 49.6875 42.304V40.7614C49.5909 40.8409 49.4261 40.9148 49.1932 40.983C48.9659 41.0511 48.7102 41.1108 48.4261 41.1619C48.142 41.2131 47.8608 41.2585 47.5824 41.2983C47.304 41.3381 47.0625 41.3722 46.858 41.4006C46.3977 41.4631 45.9858 41.5653 45.6222 41.7074C45.2585 41.8494 44.9716 42.0483 44.7614 42.304C44.5511 42.554 44.446 42.8778 44.446 43.2756C44.446 43.8438 44.6534 44.2727 45.0682 44.5625C45.483 44.8523 46.0114 44.9972 46.6534 44.9972ZM54.4006 36.4403V33.9091H65.8551V36.4403H61.6193V47H58.6364V36.4403H54.4006ZM71.5398 47.2642C70.7102 47.2642 69.9631 47.1165 69.2983 46.821C68.6392 46.5199 68.1165 46.0767 67.7301 45.4915C67.3494 44.9062 67.1591 44.1847 67.1591 43.3267C67.1591 42.5881 67.2955 41.9773 67.5682 41.4943C67.8409 41.0114 68.2131 40.625 68.6847 40.3352C69.1563 40.0455 69.6875 39.8267 70.2784 39.679C70.875 39.5256 71.4915 39.4148 72.1278 39.3466C72.8949 39.267 73.517 39.196 73.9943 39.1335C74.4716 39.0653 74.8182 38.9631 75.0341 38.8267C75.2557 38.6847 75.3665 38.4659 75.3665 38.1705V38.1193C75.3665 37.4773 75.1761 36.9801 74.7955 36.6278C74.4148 36.2756 73.8665 36.0994 73.1506 36.0994C72.3949 36.0994 71.7955 36.2642 71.3523 36.5938C70.9148 36.9233 70.6193 37.3125 70.4659 37.7614L67.5852 37.3523C67.8125 36.5568 68.1875 35.892 68.7102 35.358C69.233 34.8182 69.8722 34.4148 70.6278 34.1477C71.3835 33.875 72.2188 33.7386 73.1335 33.7386C73.7642 33.7386 74.392 33.8125 75.017 33.9602C75.642 34.108 76.2131 34.3523 76.7301 34.6932C77.2472 35.0284 77.6619 35.4858 77.9744 36.0653C78.2926 36.6449 78.4517 37.3693 78.4517 38.2386V47H75.4858V45.2017H75.3835C75.196 45.5653 74.9318 45.9062 74.5909 46.2244C74.2557 46.5369 73.8324 46.7898 73.321 46.983C72.8153 47.1705 72.2216 47.2642 71.5398 47.2642ZM72.3409 44.9972C72.9602 44.9972 73.4972 44.875 73.9517 44.6307C74.4063 44.3807 74.7557 44.0511 75 43.642C75.25 43.233 75.375 42.7869 75.375 42.304V40.7614C75.2784 40.8409 75.1136 40.9148 74.8807 40.983C74.6534 41.0511 74.3977 41.1108 74.1136 41.1619C73.8295 41.2131 73.5483 41.2585 73.2699 41.2983C72.9915 41.3381 72.75 41.3722 72.5455 41.4006C72.0852 41.4631 71.6733 41.5653 71.3097 41.7074C70.946 41.8494 70.6591 42.0483 70.4489 42.304C70.2386 42.554 70.1335 42.8778 70.1335 43.2756C70.1335 43.8438 70.3409 44.2727 70.7557 44.5625C71.1705 44.8523 71.6989 44.9972 72.3409 44.9972ZM80.6506 47L80.6335 44.4602H81.0852C81.4261 44.4602 81.7131 44.3835 81.946 44.2301C82.179 44.0767 82.3722 43.821 82.5256 43.4631C82.679 43.0994 82.7983 42.6108 82.8835 41.9972C82.9688 41.3835 83.0284 40.6193 83.0625 39.7045L83.2926 33.9091H92.8381V47H89.8551V36.4403H86.0966L85.892 40.6591C85.8409 41.75 85.7188 42.696 85.5256 43.4972C85.3381 44.2926 85.071 44.9489 84.7244 45.4659C84.3835 45.983 83.9545 46.3693 83.4375 46.625C82.9205 46.875 82.3097 47 81.6051 47H80.6506ZM101.655 47.2557C100.376 47.2557 99.2685 46.9744 98.331 46.4119C97.3935 45.8494 96.6662 45.0625 96.1491 44.0511C95.6378 43.0398 95.3821 41.858 95.3821 40.5057C95.3821 39.1534 95.6378 37.9687 96.1491 36.9517C96.6662 35.9347 97.3935 35.1449 98.331 34.5824C99.2685 34.0199 100.376 33.7386 101.655 33.7386C102.933 33.7386 104.041 34.0199 104.979 34.5824C105.916 35.1449 106.641 35.9347 107.152 36.9517C107.669 37.9687 107.928 39.1534 107.928 40.5057C107.928 41.858 107.669 43.0398 107.152 44.0511C106.641 45.0625 105.916 45.8494 104.979 46.4119C104.041 46.9744 102.933 47.2557 101.655 47.2557ZM101.672 44.7841C102.365 44.7841 102.945 44.5937 103.411 44.2131C103.876 43.8267 104.223 43.3097 104.45 42.6619C104.683 42.0142 104.8 41.2926 104.8 40.4972C104.8 39.696 104.683 38.9716 104.45 38.3239C104.223 37.6705 103.876 37.1506 103.411 36.7642C102.945 36.3778 102.365 36.1847 101.672 36.1847C100.962 36.1847 100.371 36.3778 99.8991 36.7642C99.4332 37.1506 99.0838 37.6705 98.8509 38.3239C98.6236 38.9716 98.5099 39.696 98.5099 40.4972C98.5099 41.2926 98.6236 42.0142 98.8509 42.6619C99.0838 43.3097 99.4332 43.8267 99.8991 44.2131C100.371 44.5937 100.962 44.7841 101.672 44.7841ZM119.205 33.9091V36.4403H113.563V47H110.546V33.9091H119.205ZM130.104 29.5455L134.646 43.2841H134.825L139.359 29.5455H142.837L136.683 47H132.78L126.635 29.5455H130.104ZM148.298 29.5455V47H145.136V29.5455H148.298ZM166.065 29.5455V47H163.253L155.028 35.1108H154.884V47H151.722V29.5455H154.551L162.767 41.4432H162.92V29.5455H166.065Z" fill="#EDEDF0"/>
<path d="M25.4148 73H24.3068L27.5114 64.2727H28.6023L31.8068 73H30.6989L28.0909 65.6534H28.0227L25.4148 73ZM25.8239 69.5909H30.2898V70.5284H25.8239V69.5909ZM33.0298 73V66.4545H34.0355V69.3011H34.7003L37.0526 66.4545H38.348L35.706 69.608L38.3821 73H37.0866L34.9389 70.2386H34.0355V73H33.0298ZM39.1001 67.392V66.4545H44.4183V67.392H42.2706V73H41.2649V67.392H39.1001ZM46.533 75.4545C46.3626 75.4545 46.2106 75.4403 46.0771 75.4119C45.9435 75.3864 45.8512 75.3608 45.8001 75.3352L46.0558 74.4489C46.3001 74.5114 46.516 74.5341 46.7035 74.517C46.891 74.5 47.0572 74.4162 47.2021 74.2656C47.3498 74.1179 47.4847 73.8778 47.6069 73.5455L47.7944 73.0341L45.3739 66.4545H46.4648L48.2717 71.6705H48.3398L50.1467 66.4545H51.2376L48.4592 73.9545C48.3342 74.2926 48.1793 74.5724 47.9947 74.794C47.81 75.0185 47.5955 75.1847 47.3512 75.2926C47.1097 75.4006 46.837 75.4545 46.533 75.4545ZM54.2919 73.1534C53.8771 73.1534 53.5007 73.0753 53.1626 72.919C52.8246 72.7599 52.5561 72.5312 52.3572 72.233C52.1584 71.9318 52.0589 71.5682 52.0589 71.142C52.0589 70.767 52.1328 70.4631 52.2805 70.2301C52.4283 69.9943 52.6257 69.8097 52.8729 69.6761C53.12 69.5426 53.3928 69.4432 53.6911 69.3778C53.9922 69.3097 54.2947 69.2557 54.5987 69.2159C54.9964 69.1648 55.3189 69.1264 55.5661 69.1009C55.8161 69.0724 55.9979 69.0256 56.1115 68.9602C56.228 68.8949 56.2862 68.7812 56.2862 68.6193V68.5852C56.2862 68.1648 56.1712 67.8381 55.9411 67.6051C55.7138 67.3722 55.3686 67.2557 54.9055 67.2557C54.4254 67.2557 54.049 67.3608 53.7763 67.571C53.5036 67.7812 53.3118 68.0057 53.201 68.2443L52.2464 67.9034C52.4169 67.5057 52.6442 67.196 52.9283 66.9744C53.2152 66.75 53.5277 66.5937 53.8658 66.5057C54.2067 66.4148 54.5419 66.3693 54.8714 66.3693C55.0817 66.3693 55.3232 66.3949 55.5959 66.446C55.8714 66.4943 56.1371 66.5952 56.3928 66.7486C56.6513 66.902 56.8658 67.1335 57.0362 67.4432C57.2067 67.7528 57.2919 68.1676 57.2919 68.6875V73H56.2862V72.1136H56.2351C56.1669 72.2557 56.0533 72.4077 55.8942 72.5696C55.7351 72.7315 55.5234 72.8693 55.2592 72.983C54.995 73.0966 54.6726 73.1534 54.2919 73.1534ZM54.4453 72.25C54.843 72.25 55.1783 72.1719 55.451 72.0156C55.7266 71.8594 55.9339 71.6577 56.0732 71.4105C56.2152 71.1634 56.2862 70.9034 56.2862 70.6307V69.7102C56.2436 69.7614 56.1499 69.8082 56.005 69.8509C55.8629 69.8906 55.6982 69.9261 55.5107 69.9574C55.326 69.9858 55.1456 70.0114 54.9695 70.0341C54.7962 70.054 54.6555 70.071 54.5476 70.0852C54.2862 70.1193 54.0419 70.1747 53.8146 70.2514C53.5902 70.3253 53.4084 70.4375 53.2692 70.5881C53.1328 70.7358 53.0646 70.9375 53.0646 71.1932C53.0646 71.5426 53.1939 71.8068 53.4524 71.9858C53.7138 72.1619 54.0447 72.25 54.4453 72.25ZM58.5479 73V72.0625H58.7866C58.9826 72.0625 59.146 72.0241 59.2766 71.9474C59.4073 71.8679 59.5124 71.7301 59.592 71.5341C59.6744 71.3352 59.7369 71.0597 59.7795 70.7074C59.8249 70.3523 59.8576 69.9006 59.8775 69.3523L59.9968 66.4545H64.3604V73H63.3548V67.392H60.9513L60.8491 69.7273C60.8263 70.2642 60.7781 70.7372 60.7042 71.1463C60.6332 71.5526 60.5238 71.8935 60.3761 72.169C60.2312 72.4446 60.038 72.652 59.7965 72.7912C59.555 72.9304 59.2525 73 58.8888 73H58.5479ZM67.0749 68.8239H68.9499C69.717 68.8239 70.3036 69.0185 70.7099 69.4077C71.1161 69.7969 71.3192 70.2898 71.3192 70.8864C71.3192 71.2784 71.2283 71.6349 71.0465 71.956C70.8647 72.2741 70.5977 72.5284 70.2454 72.7188C69.8931 72.9062 69.4613 73 68.9499 73H66.2056V66.4545H67.2113V72.0625H68.9499C69.3477 72.0625 69.6744 71.9574 69.93 71.7472C70.1857 71.5369 70.3136 71.267 70.3136 70.9375C70.3136 70.5909 70.1857 70.3082 69.93 70.0895C69.6744 69.8707 69.3477 69.7614 68.9499 69.7614H67.0749V68.8239ZM77.2308 69.267V70.2045H73.6172V69.267H77.2308ZM73.8558 66.4545V73H72.8501V66.4545H73.8558ZM77.9979 66.4545V73H76.9922V66.4545H77.9979ZM80.7038 68.8239H82.5788C83.3459 68.8239 83.9325 69.0185 84.3388 69.4077C84.745 69.7969 84.9482 70.2898 84.9482 70.8864C84.9482 71.2784 84.8572 71.6349 84.6754 71.956C84.4936 72.2741 84.2266 72.5284 83.8743 72.7188C83.522 72.9062 83.0902 73 82.5788 73H79.8345V66.4545H80.8402V72.0625H82.5788C82.9766 72.0625 83.3033 71.9574 83.5589 71.7472C83.8146 71.5369 83.9425 71.267 83.9425 70.9375C83.9425 70.5909 83.8146 70.3082 83.5589 70.0895C83.3033 69.8707 82.9766 69.7614 82.5788 69.7614H80.7038V68.8239ZM85.9879 73V66.4545H86.9936V73H85.9879ZM91.5788 73.1364C90.9482 73.1364 90.4041 72.9972 89.9467 72.7188C89.4922 72.4375 89.1413 72.0455 88.8942 71.5426C88.6499 71.0369 88.5277 70.4489 88.5277 69.7784C88.5277 69.108 88.6499 68.517 88.8942 68.0057C89.1413 67.4915 89.4851 67.0909 89.9254 66.804C90.3686 66.5142 90.8857 66.3693 91.4766 66.3693C91.8175 66.3693 92.1541 66.4261 92.4865 66.5398C92.8189 66.6534 93.1214 66.8381 93.3942 67.0938C93.6669 67.3466 93.8842 67.6818 94.0462 68.0994C94.2081 68.517 94.2891 69.0312 94.2891 69.642V70.0682H89.2436V69.1989H93.2663C93.2663 68.8295 93.1925 68.5 93.0447 68.2102C92.8999 67.9205 92.6925 67.6918 92.4226 67.5241C92.1555 67.3565 91.8402 67.2727 91.4766 67.2727C91.076 67.2727 90.7294 67.3722 90.4368 67.571C90.147 67.767 89.924 68.0227 89.7678 68.3381C89.6115 68.6534 89.5334 68.9915 89.5334 69.3523V69.9318C89.5334 70.4261 89.6186 70.8452 89.7891 71.1889C89.9624 71.5298 90.2024 71.7898 90.5092 71.9688C90.8161 72.1449 91.1726 72.233 91.5788 72.233C91.843 72.233 92.0817 72.196 92.2947 72.1222C92.5107 72.0455 92.6967 71.9318 92.853 71.7812C93.0092 71.6278 93.13 71.4375 93.2152 71.2102L94.1868 71.483C94.0845 71.8125 93.9126 72.1023 93.6712 72.3523C93.4297 72.5994 93.1314 72.7926 92.7763 72.9318C92.4212 73.0682 92.022 73.1364 91.5788 73.1364ZM98.6143 73V72.0625H98.853C99.049 72.0625 99.2124 72.0241 99.343 71.9474C99.4737 71.8679 99.5788 71.7301 99.6584 71.5341C99.7408 71.3352 99.8033 71.0597 99.8459 70.7074C99.8913 70.3523 99.924 69.9006 99.9439 69.3523L100.063 66.4545H104.427V73H103.421V67.392H101.018L100.915 69.7273C100.893 70.2642 100.844 70.7372 100.771 71.1463C100.7 71.5526 100.59 71.8935 100.442 72.169C100.298 72.4446 100.104 72.652 99.8629 72.7912C99.6214 72.9304 99.3189 73 98.9553 73H98.6143ZM108.931 73.1364C108.34 73.1364 107.822 72.9957 107.376 72.7145C106.933 72.4332 106.586 72.0398 106.336 71.5341C106.089 71.0284 105.965 70.4375 105.965 69.7614C105.965 69.0795 106.089 68.4844 106.336 67.9759C106.586 67.4673 106.933 67.0724 107.376 66.7912C107.822 66.5099 108.34 66.3693 108.931 66.3693C109.522 66.3693 110.039 66.5099 110.482 66.7912C110.928 67.0724 111.275 67.4673 111.522 67.9759C111.772 68.4844 111.897 69.0795 111.897 69.7614C111.897 70.4375 111.772 71.0284 111.522 71.5341C111.275 72.0398 110.928 72.4332 110.482 72.7145C110.039 72.9957 109.522 73.1364 108.931 73.1364ZM108.931 72.233C109.38 72.233 109.749 72.1179 110.039 71.8878C110.329 71.6577 110.543 71.3551 110.683 70.9801C110.822 70.6051 110.891 70.1989 110.891 69.7614C110.891 69.3239 110.822 68.9162 110.683 68.5384C110.543 68.1605 110.329 67.8551 110.039 67.6222C109.749 67.3892 109.38 67.2727 108.931 67.2727C108.482 67.2727 108.113 67.3892 107.823 67.6222C107.533 67.8551 107.319 68.1605 107.18 68.5384C107.04 68.9162 106.971 69.3239 106.971 69.7614C106.971 70.1989 107.04 70.6051 107.18 70.9801C107.319 71.3551 107.533 71.6577 107.823 71.8878C108.113 72.1179 108.482 72.233 108.931 72.233ZM112.577 67.392V66.4545H117.895V67.392H115.747V73H114.741V67.392H112.577ZM120.231 68.8239H122.106C122.873 68.8239 123.46 69.0185 123.866 69.4077C124.272 69.7969 124.475 70.2898 124.475 70.8864C124.475 71.2784 124.385 71.6349 124.203 71.956C124.021 72.2741 123.754 72.5284 123.402 72.7188C123.049 72.9062 122.618 73 122.106 73H119.362V66.4545H120.368V72.0625H122.106C122.504 72.0625 122.831 71.9574 123.086 71.7472C123.342 71.5369 123.47 71.267 123.47 70.9375C123.47 70.5909 123.342 70.3082 123.086 70.0895C122.831 69.8707 122.504 69.7614 122.106 69.7614H120.231V68.8239ZM125.515 73V66.4545H126.521V73H125.515ZM129.095 73.0682C128.885 73.0682 128.704 72.9929 128.554 72.8423C128.403 72.6918 128.328 72.5114 128.328 72.3011C128.328 72.0909 128.403 71.9105 128.554 71.7599C128.704 71.6094 128.885 71.5341 129.095 71.5341C129.305 71.5341 129.485 71.6094 129.636 71.7599C129.787 71.9105 129.862 72.0909 129.862 72.3011C129.862 72.4403 129.826 72.5682 129.755 72.6847C129.687 72.8011 129.595 72.8949 129.478 72.9659C129.365 73.0341 129.237 73.0682 129.095 73.0682ZM129.095 68.2102C128.885 68.2102 128.704 68.1349 128.554 67.9844C128.403 67.8338 128.328 67.6534 128.328 67.4432C128.328 67.233 128.403 67.0526 128.554 66.902C128.704 66.7514 128.885 66.6761 129.095 66.6761C129.305 66.6761 129.485 66.7514 129.636 66.902C129.787 67.0526 129.862 67.233 129.862 67.4432C129.862 67.5824 129.826 67.7102 129.755 67.8267C129.687 67.9432 129.595 68.0369 129.478 68.108C129.365 68.1761 129.237 68.2102 129.095 68.2102ZM137.701 75.233V64.2727H138.706V75.233H137.701ZM137.701 73.1364C137.257 73.1364 136.854 73.0568 136.49 72.8977C136.127 72.7358 135.814 72.5071 135.553 72.2116C135.292 71.9134 135.09 71.5568 134.948 71.142C134.806 70.7273 134.735 70.267 134.735 69.7614C134.735 69.25 134.806 68.7869 134.948 68.3722C135.09 67.9545 135.292 67.5966 135.553 67.2983C135.814 67 136.127 66.7713 136.49 66.6122C136.854 66.4503 137.257 66.3693 137.701 66.3693H138.007V73.1364H137.701ZM137.701 72.233H137.871V67.2727H137.701C137.365 67.2727 137.074 67.3409 136.827 67.4773C136.58 67.6108 136.375 67.794 136.213 68.027C136.054 68.2571 135.935 68.5213 135.855 68.8196C135.779 69.1179 135.74 69.4318 135.74 69.7614C135.74 70.1989 135.81 70.6051 135.949 70.9801C136.088 71.3551 136.303 71.6577 136.593 71.8878C136.882 72.1179 137.252 72.233 137.701 72.233ZM138.706 73.1364H138.4V66.3693H138.706C139.15 66.3693 139.553 66.4503 139.917 66.6122C140.28 66.7713 140.593 67 140.854 67.2983C141.115 67.5966 141.317 67.9545 141.459 68.3722C141.601 68.7869 141.672 69.25 141.672 69.7614C141.672 70.267 141.601 70.7273 141.459 71.142C141.317 71.5568 141.115 71.9134 140.854 72.2116C140.593 72.5071 140.28 72.7358 139.917 72.8977C139.553 73.0568 139.15 73.1364 138.706 73.1364ZM138.706 72.233C139.044 72.233 139.336 72.1676 139.58 72.0369C139.827 71.9034 140.03 71.7216 140.189 71.4915C140.351 71.2585 140.471 70.9943 140.547 70.6989C140.627 70.4006 140.667 70.0881 140.667 69.7614C140.667 69.3239 140.597 68.9162 140.458 68.5384C140.319 68.1605 140.104 67.8551 139.814 67.6222C139.525 67.3892 139.155 67.2727 138.706 67.2727H138.536V72.233H138.706ZM145.869 73.1364C145.278 73.1364 144.759 72.9957 144.313 72.7145C143.87 72.4332 143.523 72.0398 143.273 71.5341C143.026 71.0284 142.903 70.4375 142.903 69.7614C142.903 69.0795 143.026 68.4844 143.273 67.9759C143.523 67.4673 143.87 67.0724 144.313 66.7912C144.759 66.5099 145.278 66.3693 145.869 66.3693C146.46 66.3693 146.977 66.5099 147.42 66.7912C147.866 67.0724 148.212 67.4673 148.46 67.9759C148.71 68.4844 148.835 69.0795 148.835 69.7614C148.835 70.4375 148.71 71.0284 148.46 71.5341C148.212 72.0398 147.866 72.4332 147.42 72.7145C146.977 72.9957 146.46 73.1364 145.869 73.1364ZM145.869 72.233C146.317 72.233 146.687 72.1179 146.977 71.8878C147.266 71.6577 147.481 71.3551 147.62 70.9801C147.759 70.6051 147.829 70.1989 147.829 69.7614C147.829 69.3239 147.759 68.9162 147.62 68.5384C147.481 68.1605 147.266 67.8551 146.977 67.6222C146.687 67.3892 146.317 67.2727 145.869 67.2727C145.42 67.2727 145.05 67.3892 144.761 67.6222C144.471 67.8551 144.256 68.1605 144.117 68.5384C143.978 68.9162 143.908 69.3239 143.908 69.7614C143.908 70.1989 143.978 70.6051 144.117 70.9801C144.256 71.3551 144.471 71.6577 144.761 71.8878C145.05 72.1179 145.42 72.233 145.869 72.233ZM149.514 67.392V66.4545H154.832V67.392H152.685V73H151.679V67.392H149.514ZM158.619 73.1364C158.028 73.1364 157.509 72.9957 157.063 72.7145C156.62 72.4332 156.273 72.0398 156.023 71.5341C155.776 71.0284 155.653 70.4375 155.653 69.7614C155.653 69.0795 155.776 68.4844 156.023 67.9759C156.273 67.4673 156.62 67.0724 157.063 66.7912C157.509 66.5099 158.028 66.3693 158.619 66.3693C159.21 66.3693 159.727 66.5099 160.17 66.7912C160.616 67.0724 160.962 67.4673 161.21 67.9759C161.46 68.4844 161.585 69.0795 161.585 69.7614C161.585 70.4375 161.46 71.0284 161.21 71.5341C160.962 72.0398 160.616 72.4332 160.17 72.7145C159.727 72.9957 159.21 73.1364 158.619 73.1364ZM158.619 72.233C159.067 72.233 159.437 72.1179 159.727 71.8878C160.016 71.6577 160.231 71.3551 160.37 70.9801C160.509 70.6051 160.579 70.1989 160.579 69.7614C160.579 69.3239 160.509 68.9162 160.37 68.5384C160.231 68.1605 160.016 67.8551 159.727 67.6222C159.437 67.3892 159.067 67.2727 158.619 67.2727C158.17 67.2727 157.8 67.3892 157.511 67.6222C157.221 67.8551 157.006 68.1605 156.867 68.5384C156.728 68.9162 156.658 69.3239 156.658 69.7614C156.658 70.1989 156.728 70.6051 156.867 70.9801C157.006 71.3551 157.221 71.6577 157.511 71.8878C157.8 72.1179 158.17 72.233 158.619 72.233ZM164.62 71.8068L164.551 72.267C164.503 72.5909 164.429 72.9375 164.33 73.3068C164.233 73.6761 164.132 74.0241 164.027 74.3509C163.922 74.6776 163.836 74.9375 163.767 75.1307H163C163.037 74.9489 163.086 74.7088 163.145 74.4105C163.205 74.1122 163.265 73.7784 163.324 73.4091C163.387 73.0426 163.438 72.6676 163.478 72.2841L163.529 71.8068H164.62ZM170.608 66.4545L172.176 69.1307L173.744 66.4545H174.903L172.79 69.7273L174.903 73H173.744L172.176 70.4602L170.608 73H169.449L171.528 69.7273L169.449 66.4545H170.608ZM178.265 73.1534C177.85 73.1534 177.473 73.0753 177.135 72.919C176.797 72.7599 176.529 72.5312 176.33 72.233C176.131 71.9318 176.032 71.5682 176.032 71.142C176.032 70.767 176.105 70.4631 176.253 70.2301C176.401 69.9943 176.598 69.8097 176.846 69.6761C177.093 69.5426 177.365 69.4432 177.664 69.3778C177.965 69.3097 178.267 69.2557 178.571 69.2159C178.969 69.1648 179.292 69.1264 179.539 69.1009C179.789 69.0724 179.971 69.0256 180.084 68.9602C180.201 68.8949 180.259 68.7812 180.259 68.6193V68.5852C180.259 68.1648 180.144 67.8381 179.914 67.6051C179.686 67.3722 179.341 67.2557 178.878 67.2557C178.398 67.2557 178.022 67.3608 177.749 67.571C177.476 67.7812 177.284 68.0057 177.174 68.2443L176.219 67.9034C176.39 67.5057 176.617 67.196 176.901 66.9744C177.188 66.75 177.5 66.5937 177.838 66.5057C178.179 66.4148 178.515 66.3693 178.844 66.3693C179.054 66.3693 179.296 66.3949 179.569 66.446C179.844 66.4943 180.11 66.5952 180.365 66.7486C180.624 66.902 180.838 67.1335 181.009 67.4432C181.179 67.7528 181.265 68.1676 181.265 68.6875V73H180.259V72.1136H180.208C180.14 72.2557 180.026 72.4077 179.867 72.5696C179.708 72.7315 179.496 72.8693 179.232 72.983C178.968 73.0966 178.645 73.1534 178.265 73.1534ZM178.418 72.25C178.816 72.25 179.151 72.1719 179.424 72.0156C179.699 71.8594 179.907 71.6577 180.046 71.4105C180.188 71.1634 180.259 70.9034 180.259 70.6307V69.7102C180.216 69.7614 180.123 69.8082 179.978 69.8509C179.836 69.8906 179.671 69.9261 179.483 69.9574C179.299 69.9858 179.118 70.0114 178.942 70.0341C178.769 70.054 178.628 70.071 178.52 70.0852C178.259 70.1193 178.015 70.1747 177.787 70.2514C177.563 70.3253 177.381 70.4375 177.242 70.5881C177.105 70.7358 177.037 70.9375 177.037 71.1932C177.037 71.5426 177.167 71.8068 177.425 71.9858C177.686 72.1619 178.017 72.25 178.418 72.25ZM183.1 75.4545V66.4545H184.072V67.4943H184.191C184.265 67.3807 184.367 67.2358 184.498 67.0597C184.631 66.8807 184.822 66.7216 185.069 66.5824C185.319 66.4403 185.657 66.3693 186.083 66.3693C186.634 66.3693 187.12 66.5071 187.54 66.7827C187.961 67.0582 188.289 67.4489 188.525 67.9545C188.761 68.4602 188.879 69.0568 188.879 69.7443C188.879 70.4375 188.761 71.0384 188.525 71.5469C188.289 72.0526 187.962 72.4446 187.545 72.723C187.127 72.9986 186.646 73.1364 186.1 73.1364C185.68 73.1364 185.343 73.0668 185.09 72.9276C184.837 72.7855 184.643 72.625 184.506 72.446C184.37 72.2642 184.265 72.1136 184.191 71.9943H184.106V75.4545H183.1ZM184.089 69.7273C184.089 70.2216 184.161 70.6577 184.306 71.0355C184.451 71.4105 184.663 71.7045 184.941 71.9176C185.219 72.1278 185.56 72.233 185.964 72.233C186.384 72.233 186.735 72.1222 187.016 71.9006C187.3 71.6761 187.513 71.375 187.656 70.9972C187.8 70.6165 187.873 70.1932 187.873 69.7273C187.873 69.267 187.802 68.8523 187.66 68.483C187.521 68.1108 187.309 67.8168 187.025 67.6009C186.744 67.3821 186.39 67.2727 185.964 67.2727C185.555 67.2727 185.211 67.3764 184.933 67.5838C184.654 67.7884 184.444 68.0753 184.302 68.4446C184.16 68.8111 184.089 69.2386 184.089 69.7273ZM192.339 73.1534C191.924 73.1534 191.548 73.0753 191.21 72.919C190.871 72.7599 190.603 72.5312 190.404 72.233C190.205 71.9318 190.106 71.5682 190.106 71.142C190.106 70.767 190.18 70.4631 190.327 70.2301C190.475 69.9943 190.673 69.8097 190.92 69.6761C191.167 69.5426 191.44 69.4432 191.738 69.3778C192.039 69.3097 192.342 69.2557 192.646 69.2159C193.043 69.1648 193.366 69.1264 193.613 69.1009C193.863 69.0724 194.045 69.0256 194.158 68.9602C194.275 68.8949 194.333 68.7812 194.333 68.6193V68.5852C194.333 68.1648 194.218 67.8381 193.988 67.6051C193.761 67.3722 193.415 67.2557 192.952 67.2557C192.472 67.2557 192.096 67.3608 191.823 67.571C191.55 67.7812 191.359 68.0057 191.248 68.2443L190.293 67.9034C190.464 67.5057 190.691 67.196 190.975 66.9744C191.262 66.75 191.575 66.5937 191.913 66.5057C192.254 66.4148 192.589 66.3693 192.918 66.3693C193.129 66.3693 193.37 66.3949 193.643 66.446C193.918 66.4943 194.184 66.5952 194.44 66.7486C194.698 66.902 194.913 67.1335 195.083 67.4432C195.254 67.7528 195.339 68.1676 195.339 68.6875V73H194.333V72.1136H194.282C194.214 72.2557 194.1 72.4077 193.941 72.5696C193.782 72.7315 193.57 72.8693 193.306 72.983C193.042 73.0966 192.719 73.1534 192.339 73.1534ZM192.492 72.25C192.89 72.25 193.225 72.1719 193.498 72.0156C193.773 71.8594 193.981 71.6577 194.12 71.4105C194.262 71.1634 194.333 70.9034 194.333 70.6307V69.7102C194.29 69.7614 194.197 69.8082 194.052 69.8509C193.91 69.8906 193.745 69.9261 193.558 69.9574C193.373 69.9858 193.192 70.0114 193.016 70.0341C192.843 70.054 192.702 70.071 192.594 70.0852C192.333 70.1193 192.089 70.1747 191.862 70.2514C191.637 70.3253 191.455 70.4375 191.316 70.5881C191.18 70.7358 191.112 70.9375 191.112 71.1932C191.112 71.5426 191.241 71.8068 191.499 71.9858C191.761 72.1619 192.092 72.25 192.492 72.25ZM197.174 73V66.4545H198.18V69.3011H198.845L201.197 66.4545H202.493L199.85 69.608L202.527 73H201.231L199.083 70.2386H198.18V73H197.174ZM203.245 67.392V66.4545H208.563V67.392H206.415V73H205.409V67.392H203.245ZM212.434 73.1364C211.804 73.1364 211.26 72.9972 210.802 72.7188C210.348 72.4375 209.997 72.0455 209.75 71.5426C209.505 71.0369 209.383 70.4489 209.383 69.7784C209.383 69.108 209.505 68.517 209.75 68.0057C209.997 67.4915 210.341 67.0909 210.781 66.804C211.224 66.5142 211.741 66.3693 212.332 66.3693C212.673 66.3693 213.01 66.4261 213.342 66.5398C213.674 66.6534 213.977 66.8381 214.25 67.0938C214.522 67.3466 214.74 67.6818 214.902 68.0994C215.064 68.517 215.145 69.0312 215.145 69.642V70.0682H210.099V69.1989H214.122C214.122 68.8295 214.048 68.5 213.9 68.2102C213.755 67.9205 213.548 67.6918 213.278 67.5241C213.011 67.3565 212.696 67.2727 212.332 67.2727C211.931 67.2727 211.585 67.3722 211.292 67.571C211.002 67.767 210.779 68.0227 210.623 68.3381C210.467 68.6534 210.389 68.9915 210.389 69.3523V69.9318C210.389 70.4261 210.474 70.8452 210.645 71.1889C210.818 71.5298 211.058 71.7898 211.365 71.9688C211.672 72.1449 212.028 72.233 212.434 72.233C212.699 72.233 212.937 72.196 213.15 72.1222C213.366 72.0455 213.552 71.9318 213.708 71.7812C213.865 71.6278 213.985 71.4375 214.071 71.2102L215.042 71.483C214.94 71.8125 214.768 72.1023 214.527 72.3523C214.285 72.5994 213.987 72.7926 213.632 72.9318C213.277 73.0682 212.877 73.1364 212.434 73.1364ZM216.674 75.4545V66.4545H217.646V67.4943H217.765C217.839 67.3807 217.941 67.2358 218.072 67.0597C218.206 66.8807 218.396 66.7216 218.643 66.5824C218.893 66.4403 219.231 66.3693 219.657 66.3693C220.208 66.3693 220.694 66.5071 221.115 66.7827C221.535 67.0582 221.863 67.4489 222.099 67.9545C222.335 68.4602 222.453 69.0568 222.453 69.7443C222.453 70.4375 222.335 71.0384 222.099 71.5469C221.863 72.0526 221.537 72.4446 221.119 72.723C220.701 72.9986 220.22 73.1364 219.674 73.1364C219.254 73.1364 218.917 73.0668 218.664 72.9276C218.412 72.7855 218.217 72.625 218.081 72.446C217.944 72.2642 217.839 72.1136 217.765 71.9943H217.68V75.4545H216.674ZM217.663 69.7273C217.663 70.2216 217.735 70.6577 217.88 71.0355C218.025 71.4105 218.237 71.7045 218.515 71.9176C218.794 72.1278 219.135 72.233 219.538 72.233C219.958 72.233 220.309 72.1222 220.591 71.9006C220.875 71.6761 221.088 71.375 221.23 70.9972C221.375 70.6165 221.447 70.1932 221.447 69.7273C221.447 69.267 221.376 68.8523 221.234 68.483C221.095 68.1108 220.883 67.8168 220.599 67.6009C220.318 67.3821 219.964 67.2727 219.538 67.2727C219.129 67.2727 218.785 67.3764 218.507 67.5838C218.228 67.7884 218.018 68.0753 217.876 68.4446C217.734 68.8111 217.663 69.2386 217.663 69.7273ZM224.993 71.517L228.146 66.4545H229.305V73H228.299V67.9375L225.163 73H223.987V66.4545H224.993V71.517ZM233.806 73.1364C233.192 73.1364 232.664 72.9915 232.221 72.7017C231.778 72.4119 231.437 72.0128 231.198 71.5043C230.96 70.9957 230.84 70.4148 230.84 69.7614C230.84 69.0966 230.962 68.5099 231.207 68.0014C231.454 67.4901 231.798 67.0909 232.238 66.804C232.681 66.5142 233.198 66.3693 233.789 66.3693C234.249 66.3693 234.664 66.4545 235.033 66.625C235.403 66.7955 235.705 67.0341 235.941 67.3409C236.177 67.6477 236.323 68.0057 236.38 68.4148H235.374C235.298 68.1165 235.127 67.8523 234.863 67.6222C234.602 67.3892 234.249 67.2727 233.806 67.2727C233.414 67.2727 233.07 67.375 232.775 67.5795C232.482 67.7812 232.254 68.0668 232.089 68.4361C231.927 68.8026 231.846 69.233 231.846 69.7273C231.846 70.233 231.925 70.6733 232.085 71.0483C232.246 71.4233 232.474 71.7145 232.766 71.9219C233.062 72.1293 233.408 72.233 233.806 72.233C234.067 72.233 234.305 72.1875 234.518 72.0966C234.731 72.0057 234.911 71.875 235.059 71.7045C235.207 71.5341 235.312 71.3295 235.374 71.0909H236.38C236.323 71.4773 236.183 71.8253 235.958 72.1349C235.737 72.4418 235.442 72.6861 235.076 72.8679C234.712 73.0469 234.289 73.1364 233.806 73.1364ZM237.335 67.392V66.4545H242.653V67.392H240.505V73H239.499V67.392H237.335ZM245.125 71.517L248.279 66.4545H249.438V73H248.432V67.9375L245.296 73H244.12V66.4545H245.125V71.517ZM251.28 73V66.4545H252.286V69.3011H252.95L255.303 66.4545H256.598L253.956 69.608L256.632 73H255.337L253.189 70.2386H252.286V73H251.28ZM258.731 71.517L261.884 66.4545H263.043V73H262.038V67.9375L258.901 73H257.725V66.4545H258.731V71.517ZM266.385 71.8068L266.317 72.267C266.269 72.5909 266.195 72.9375 266.096 73.3068C265.999 73.6761 265.898 74.0241 265.793 74.3509C265.688 74.6776 265.601 74.9375 265.533 75.1307H264.766C264.803 74.9489 264.851 74.7088 264.911 74.4105C264.971 74.1122 265.03 73.7784 265.09 73.4091C265.152 73.0426 265.203 72.6676 265.243 72.2841L265.294 71.8068H266.385ZM274.283 73.1364C273.669 73.1364 273.141 72.9915 272.697 72.7017C272.254 72.4119 271.913 72.0128 271.675 71.5043C271.436 70.9957 271.317 70.4148 271.317 69.7614C271.317 69.0966 271.439 68.5099 271.683 68.0014C271.93 67.4901 272.274 67.0909 272.714 66.804C273.158 66.5142 273.675 66.3693 274.266 66.3693C274.726 66.3693 275.141 66.4545 275.51 66.625C275.879 66.7955 276.182 67.0341 276.418 67.3409C276.653 67.6477 276.8 68.0057 276.857 68.4148H275.851C275.774 68.1165 275.604 67.8523 275.339 67.6222C275.078 67.3892 274.726 67.2727 274.283 67.2727C273.891 67.2727 273.547 67.375 273.251 67.5795C272.959 67.7812 272.73 68.0668 272.565 68.4361C272.403 68.8026 272.322 69.233 272.322 69.7273C272.322 70.233 272.402 70.6733 272.561 71.0483C272.723 71.4233 272.95 71.7145 273.243 71.9219C273.538 72.1293 273.885 72.233 274.283 72.233C274.544 72.233 274.781 72.1875 274.994 72.0966C275.207 72.0057 275.388 71.875 275.536 71.7045C275.683 71.5341 275.788 71.3295 275.851 71.0909H276.857C276.8 71.4773 276.659 71.8253 276.435 72.1349C276.213 72.4418 275.919 72.6861 275.553 72.8679C275.189 73.0469 274.766 73.1364 274.283 73.1364ZM277.811 67.392V66.4545H283.129V67.392H280.982V73H279.976V67.392H277.811ZM286.183 73.1534C285.768 73.1534 285.391 73.0753 285.053 72.919C284.715 72.7599 284.447 72.5312 284.248 72.233C284.049 71.9318 283.95 71.5682 283.95 71.142C283.95 70.767 284.023 70.4631 284.171 70.2301C284.319 69.9943 284.516 69.8097 284.763 69.6761C285.011 69.5426 285.283 69.4432 285.582 69.3778C285.883 69.3097 286.185 69.2557 286.489 69.2159C286.887 69.1648 287.21 69.1264 287.457 69.1009C287.707 69.0724 287.888 69.0256 288.002 68.9602C288.119 68.8949 288.177 68.7812 288.177 68.6193V68.5852C288.177 68.1648 288.062 67.8381 287.832 67.6051C287.604 67.3722 287.259 67.2557 286.796 67.2557C286.316 67.2557 285.94 67.3608 285.667 67.571C285.394 67.7812 285.202 68.0057 285.092 68.2443L284.137 67.9034C284.308 67.5057 284.535 67.196 284.819 66.9744C285.106 66.75 285.418 66.5937 285.756 66.5057C286.097 66.4148 286.433 66.3693 286.762 66.3693C286.972 66.3693 287.214 66.3949 287.487 66.446C287.762 66.4943 288.028 66.5952 288.283 66.7486C288.542 66.902 288.756 67.1335 288.927 67.4432C289.097 67.7528 289.183 68.1676 289.183 68.6875V73H288.177V72.1136H288.126C288.058 72.2557 287.944 72.4077 287.785 72.5696C287.626 72.7315 287.414 72.8693 287.15 72.983C286.886 73.0966 286.563 73.1534 286.183 73.1534ZM286.336 72.25C286.734 72.25 287.069 72.1719 287.342 72.0156C287.617 71.8594 287.825 71.6577 287.964 71.4105C288.106 71.1634 288.177 70.9034 288.177 70.6307V69.7102C288.134 69.7614 288.04 69.8082 287.896 69.8509C287.754 69.8906 287.589 69.9261 287.401 69.9574C287.217 69.9858 287.036 70.0114 286.86 70.0341C286.687 70.054 286.546 70.071 286.438 70.0852C286.177 70.1193 285.933 70.1747 285.705 70.2514C285.481 70.3253 285.299 70.4375 285.16 70.5881C285.023 70.7358 284.955 70.9375 284.955 71.1932C284.955 71.5426 285.085 71.8068 285.343 71.9858C285.604 72.1619 285.935 72.25 286.336 72.25ZM290.127 67.392V66.4545H295.446V67.392H293.298V73H292.292V67.392H290.127ZM297.56 75.4545C297.39 75.4545 297.238 75.4403 297.104 75.4119C296.971 75.3864 296.879 75.3608 296.827 75.3352L297.083 74.4489C297.327 74.5114 297.543 74.5341 297.731 74.517C297.918 74.5 298.085 74.4162 298.229 74.2656C298.377 74.1179 298.512 73.8778 298.634 73.5455L298.822 73.0341L296.401 66.4545H297.492L299.299 71.6705H299.367L301.174 66.4545H302.265L299.487 73.9545C299.362 74.2926 299.207 74.5724 299.022 74.794C298.837 75.0185 298.623 75.1847 298.379 75.2926C298.137 75.4006 297.864 75.4545 297.56 75.4545ZM306.017 73.1364C305.403 73.1364 304.875 72.9915 304.432 72.7017C303.989 72.4119 303.648 72.0128 303.409 71.5043C303.17 70.9957 303.051 70.4148 303.051 69.7614C303.051 69.0966 303.173 68.5099 303.418 68.0014C303.665 67.4901 304.009 67.0909 304.449 66.804C304.892 66.5142 305.409 66.3693 306 66.3693C306.46 66.3693 306.875 66.4545 307.244 66.625C307.614 66.7955 307.916 67.0341 308.152 67.3409C308.388 67.6477 308.534 68.0057 308.591 68.4148H307.585C307.509 68.1165 307.338 67.8523 307.074 67.6222C306.813 67.3892 306.46 67.2727 306.017 67.2727C305.625 67.2727 305.281 67.375 304.986 67.5795C304.693 67.7812 304.464 68.0668 304.3 68.4361C304.138 68.8026 304.057 69.233 304.057 69.7273C304.057 70.233 304.136 70.6733 304.295 71.0483C304.457 71.4233 304.685 71.7145 304.977 71.9219C305.273 72.1293 305.619 72.233 306.017 72.233C306.278 72.233 306.516 72.1875 306.729 72.0966C306.942 72.0057 307.122 71.875 307.27 71.7045C307.418 71.5341 307.523 71.3295 307.585 71.0909H308.591C308.534 71.4773 308.393 71.8253 308.169 72.1349C307.947 72.4418 307.653 72.6861 307.287 72.8679C306.923 73.0469 306.5 73.1364 306.017 73.1364ZM310.93 68.8239H312.805C313.572 68.8239 314.159 69.0185 314.565 69.4077C314.972 69.7969 315.175 70.2898 315.175 70.8864C315.175 71.2784 315.084 71.6349 314.902 71.956C314.72 72.2741 314.453 72.5284 314.101 72.7188C313.749 72.9062 313.317 73 312.805 73H310.061V66.4545H311.067V72.0625H312.805C313.203 72.0625 313.53 71.9574 313.786 71.7472C314.041 71.5369 314.169 71.267 314.169 70.9375C314.169 70.5909 314.041 70.3082 313.786 70.0895C313.53 69.8707 313.203 69.7614 312.805 69.7614H310.93V68.8239ZM316.214 73V66.4545H317.22V73H316.214ZM320.561 71.8068L320.493 72.267C320.445 72.5909 320.371 72.9375 320.271 73.3068C320.175 73.6761 320.074 74.0241 319.969 74.3509C319.864 74.6776 319.777 74.9375 319.709 75.1307H318.942C318.979 74.9489 319.027 74.7088 319.087 74.4105C319.146 74.1122 319.206 73.7784 319.266 73.4091C319.328 73.0426 319.379 72.6676 319.419 72.2841L319.47 71.8068H320.561ZM330.947 66.4545V72.0625H331.868V75.1136H330.862V73H325.799V66.4545H326.805V72.0625H329.941V66.4545H330.947ZM336.091 73.1364C335.46 73.1364 334.916 72.9972 334.458 72.7188C334.004 72.4375 333.653 72.0455 333.406 71.5426C333.162 71.0369 333.039 70.4489 333.039 69.7784C333.039 69.108 333.162 68.517 333.406 68.0057C333.653 67.4915 333.997 67.0909 334.437 66.804C334.88 66.5142 335.397 66.3693 335.988 66.3693C336.329 66.3693 336.666 66.4261 336.998 66.5398C337.331 66.6534 337.633 66.8381 337.906 67.0938C338.179 67.3466 338.396 67.6818 338.558 68.0994C338.72 68.517 338.801 69.0312 338.801 69.642V70.0682H333.755V69.1989H337.778C337.778 68.8295 337.704 68.5 337.556 68.2102C337.412 67.9205 337.204 67.6918 336.934 67.5241C336.667 67.3565 336.352 67.2727 335.988 67.2727C335.588 67.2727 335.241 67.3722 334.949 67.571C334.659 67.767 334.436 68.0227 334.279 68.3381C334.123 68.6534 334.045 68.9915 334.045 69.3523V69.9318C334.045 70.4261 334.13 70.8452 334.301 71.1889C334.474 71.5298 334.714 71.7898 335.021 71.9688C335.328 72.1449 335.684 72.233 336.091 72.233C336.355 72.233 336.593 72.196 336.806 72.1222C337.022 72.0455 337.208 71.9318 337.365 71.7812C337.521 71.6278 337.642 71.4375 337.727 71.2102L338.699 71.483C338.596 71.8125 338.424 72.1023 338.183 72.3523C337.941 72.5994 337.643 72.7926 337.288 72.9318C336.933 73.0682 336.534 73.1364 336.091 73.1364ZM344.711 69.267V70.2045H341.098V69.267H344.711ZM341.336 66.4545V73H340.331V66.4545H341.336ZM345.478 66.4545V73H344.473V66.4545H345.478ZM348.184 68.8239H350.059C350.826 68.8239 351.413 69.0185 351.819 69.4077C352.225 69.7969 352.429 70.2898 352.429 70.8864C352.429 71.2784 352.338 71.6349 352.156 71.956C351.974 72.2741 351.707 72.5284 351.355 72.7188C351.002 72.9062 350.571 73 350.059 73H347.315V66.4545H348.321V72.0625H350.059C350.457 72.0625 350.784 71.9574 351.039 71.7472C351.295 71.5369 351.423 71.267 351.423 70.9375C351.423 70.5909 351.295 70.3082 351.039 70.0895C350.784 69.8707 350.457 69.7614 350.059 69.7614H348.184V68.8239ZM353.468 73V66.4545H354.474V73H353.468ZM359.69 73V66.4545H364.838V73H363.832V67.392H360.696V73H359.69ZM366.674 75.4545V66.4545H367.646V67.4943H367.765C367.839 67.3807 367.941 67.2358 368.072 67.0597C368.206 66.8807 368.396 66.7216 368.643 66.5824C368.893 66.4403 369.231 66.3693 369.657 66.3693C370.208 66.3693 370.694 66.5071 371.115 66.7827C371.535 67.0582 371.863 67.4489 372.099 67.9545C372.335 68.4602 372.453 69.0568 372.453 69.7443C372.453 70.4375 372.335 71.0384 372.099 71.5469C371.863 72.0526 371.537 72.4446 371.119 72.723C370.701 72.9986 370.22 73.1364 369.674 73.1364C369.254 73.1364 368.917 73.0668 368.664 72.9276C368.412 72.7855 368.217 72.625 368.081 72.446C367.944 72.2642 367.839 72.1136 367.765 71.9943H367.68V75.4545H366.674ZM367.663 69.7273C367.663 70.2216 367.735 70.6577 367.88 71.0355C368.025 71.4105 368.237 71.7045 368.515 71.9176C368.794 72.1278 369.135 72.233 369.538 72.233C369.958 72.233 370.309 72.1222 370.591 71.9006C370.875 71.6761 371.088 71.375 371.23 70.9972C371.375 70.6165 371.447 70.1932 371.447 69.7273C371.447 69.267 371.376 68.8523 371.234 68.483C371.095 68.1108 370.883 67.8168 370.599 67.6009C370.318 67.3821 369.964 67.2727 369.538 67.2727C369.129 67.2727 368.785 67.3764 368.507 67.5838C368.228 67.7884 368.018 68.0753 367.876 68.4446C367.734 68.8111 367.663 69.2386 367.663 69.7273ZM376.646 73.1364C376.055 73.1364 375.537 72.9957 375.091 72.7145C374.647 72.4332 374.301 72.0398 374.051 71.5341C373.804 71.0284 373.68 70.4375 373.68 69.7614C373.68 69.0795 373.804 68.4844 374.051 67.9759C374.301 67.4673 374.647 67.0724 375.091 66.7912C375.537 66.5099 376.055 66.3693 376.646 66.3693C377.237 66.3693 377.754 66.5099 378.197 66.7912C378.643 67.0724 378.99 67.4673 379.237 67.9759C379.487 68.4844 379.612 69.0795 379.612 69.7614C379.612 70.4375 379.487 71.0284 379.237 71.5341C378.99 72.0398 378.643 72.4332 378.197 72.7145C377.754 72.9957 377.237 73.1364 376.646 73.1364ZM376.646 72.233C377.095 72.233 377.464 72.1179 377.754 71.8878C378.044 71.6577 378.258 71.3551 378.397 70.9801C378.537 70.6051 378.606 70.1989 378.606 69.7614C378.606 69.3239 378.537 68.9162 378.397 68.5384C378.258 68.1605 378.044 67.8551 377.754 67.6222C377.464 67.3892 377.095 67.2727 376.646 67.2727C376.197 67.2727 375.828 67.3892 375.538 67.6222C375.248 67.8551 375.034 68.1605 374.895 68.5384C374.755 68.9162 374.686 69.3239 374.686 69.7614C374.686 70.1989 374.755 70.6051 374.895 70.9801C375.034 71.3551 375.248 71.6577 375.538 71.8878C375.828 72.1179 376.197 72.233 376.646 72.233ZM380.448 74.875V72.0625H380.994C381.127 71.9233 381.242 71.7727 381.339 71.6108C381.435 71.4489 381.519 71.2571 381.59 71.0355C381.664 70.8111 381.727 70.5384 381.778 70.2173C381.829 69.8935 381.874 69.5028 381.914 69.0455L382.136 66.4545H386.295V72.0625H387.3V74.875H386.295V73H381.454V74.875H380.448ZM382.136 72.0625H385.289V67.392H383.073L382.903 69.0455C382.832 69.7301 382.744 70.3281 382.638 70.8395C382.533 71.3509 382.366 71.7585 382.136 72.0625ZM390.561 73.1534C390.147 73.1534 389.77 73.0753 389.432 72.919C389.094 72.7599 388.826 72.5312 388.627 72.233C388.428 71.9318 388.328 71.5682 388.328 71.142C388.328 70.767 388.402 70.4631 388.55 70.2301C388.698 69.9943 388.895 69.8097 389.142 69.6761C389.39 69.5426 389.662 69.4432 389.961 69.3778C390.262 69.3097 390.564 69.2557 390.868 69.2159C391.266 69.1648 391.588 69.1264 391.836 69.1009C392.086 69.0724 392.267 69.0256 392.381 68.9602C392.498 68.8949 392.556 68.7812 392.556 68.6193V68.5852C392.556 68.1648 392.441 67.8381 392.211 67.6051C391.983 67.3722 391.638 67.2557 391.175 67.2557C390.695 67.2557 390.319 67.3608 390.046 67.571C389.773 67.7812 389.581 68.0057 389.471 68.2443L388.516 67.9034C388.686 67.5057 388.914 67.196 389.198 66.9744C389.485 66.75 389.797 66.5937 390.135 66.5057C390.476 66.4148 390.811 66.3693 391.141 66.3693C391.351 66.3693 391.593 66.3949 391.865 66.446C392.141 66.4943 392.407 66.5952 392.662 66.7486C392.921 66.902 393.135 67.1335 393.306 67.4432C393.476 67.7528 393.561 68.1676 393.561 68.6875V73H392.556V72.1136H392.505C392.436 72.2557 392.323 72.4077 392.164 72.5696C392.005 72.7315 391.793 72.8693 391.529 72.983C391.265 73.0966 390.942 73.1534 390.561 73.1534ZM390.715 72.25C391.113 72.25 391.448 72.1719 391.721 72.0156C391.996 71.8594 392.203 71.6577 392.343 71.4105C392.485 71.1634 392.556 70.9034 392.556 70.6307V69.7102C392.513 69.7614 392.419 69.8082 392.275 69.8509C392.132 69.8906 391.968 69.9261 391.78 69.9574C391.596 69.9858 391.415 70.0114 391.239 70.0341C391.066 70.054 390.925 70.071 390.817 70.0852C390.556 70.1193 390.311 70.1747 390.084 70.2514C389.86 70.3253 389.678 70.4375 389.539 70.5881C389.402 70.7358 389.334 70.9375 389.334 71.1932C389.334 71.5426 389.463 71.8068 389.722 71.9858C389.983 72.1619 390.314 72.25 390.715 72.25ZM394.988 73L397.647 69.6761L395.022 66.4545H396.215L398.397 69.25H398.942V66.4545H399.948V69.25H400.477L402.658 66.4545H403.852L401.244 69.6761L403.886 73H402.675L400.46 70.1875H399.948V73H398.942V70.1875H398.431L396.198 73H394.988ZM409.703 71.517L412.857 66.4545H414.016V73H413.01V67.9375L409.874 73H408.698V66.4545H409.703V71.517ZM420.239 71.517L423.392 66.4545H424.551V73H423.545V67.9375L420.409 73H419.233V66.4545H420.239V71.517ZM429.052 73.1364C428.439 73.1364 427.91 72.9915 427.467 72.7017C427.024 72.4119 426.683 72.0128 426.444 71.5043C426.206 70.9957 426.086 70.4148 426.086 69.7614C426.086 69.0966 426.208 68.5099 426.453 68.0014C426.7 67.4901 427.044 67.0909 427.484 66.804C427.927 66.5142 428.444 66.3693 429.035 66.3693C429.495 66.3693 429.91 66.4545 430.279 66.625C430.649 66.7955 430.951 67.0341 431.187 67.3409C431.423 67.6477 431.569 68.0057 431.626 68.4148H430.62C430.544 68.1165 430.373 67.8523 430.109 67.6222C429.848 67.3892 429.495 67.2727 429.052 67.2727C428.66 67.2727 428.316 67.375 428.021 67.5795C427.728 67.7812 427.5 68.0668 427.335 68.4361C427.173 68.8026 427.092 69.233 427.092 69.7273C427.092 70.233 427.172 70.6733 427.331 71.0483C427.493 71.4233 427.72 71.7145 428.012 71.9219C428.308 72.1293 428.654 72.233 429.052 72.233C429.314 72.233 429.551 72.1875 429.764 72.0966C429.977 72.0057 430.157 71.875 430.305 71.7045C430.453 71.5341 430.558 71.3295 430.62 71.0909H431.626C431.569 71.4773 431.429 71.8253 431.204 72.1349C430.983 72.4418 430.689 72.6861 430.322 72.8679C429.958 73.0469 429.535 73.1364 429.052 73.1364ZM432.581 67.392V66.4545H437.899V67.392H435.751V73H434.745V67.392H432.581ZM441.685 73.1364C441.094 73.1364 440.576 72.9957 440.13 72.7145C439.686 72.4332 439.34 72.0398 439.09 71.5341C438.843 71.0284 438.719 70.4375 438.719 69.7614C438.719 69.0795 438.843 68.4844 439.09 67.9759C439.34 67.4673 439.686 67.0724 440.13 66.7912C440.576 66.5099 441.094 66.3693 441.685 66.3693C442.276 66.3693 442.793 66.5099 443.236 66.7912C443.682 67.0724 444.029 67.4673 444.276 67.9759C444.526 68.4844 444.651 69.0795 444.651 69.7614C444.651 70.4375 444.526 71.0284 444.276 71.5341C444.029 72.0398 443.682 72.4332 443.236 72.7145C442.793 72.9957 442.276 73.1364 441.685 73.1364ZM441.685 72.233C442.134 72.233 442.503 72.1179 442.793 71.8878C443.083 71.6577 443.297 71.3551 443.436 70.9801C443.576 70.6051 443.645 70.1989 443.645 69.7614C443.645 69.3239 443.576 68.9162 443.436 68.5384C443.297 68.1605 443.083 67.8551 442.793 67.6222C442.503 67.3892 442.134 67.2727 441.685 67.2727C441.236 67.2727 440.867 67.3892 440.577 67.6222C440.287 67.8551 440.073 68.1605 439.934 68.5384C439.794 68.9162 439.725 69.3239 439.725 69.7614C439.725 70.1989 439.794 70.6051 439.934 70.9801C440.073 71.3551 440.287 71.6577 440.577 71.8878C440.867 72.1179 441.236 72.233 441.685 72.233ZM446.186 75.4545V66.4545H447.158V67.4943H447.277C447.351 67.3807 447.453 67.2358 447.584 67.0597C447.717 66.8807 447.908 66.7216 448.155 66.5824C448.405 66.4403 448.743 66.3693 449.169 66.3693C449.72 66.3693 450.206 66.5071 450.626 66.7827C451.047 67.0582 451.375 67.4489 451.611 67.9545C451.847 68.4602 451.964 69.0568 451.964 69.7443C451.964 70.4375 451.847 71.0384 451.611 71.5469C451.375 72.0526 451.048 72.4446 450.631 72.723C450.213 72.9986 449.732 73.1364 449.186 73.1364C448.766 73.1364 448.429 73.0668 448.176 72.9276C447.923 72.7855 447.729 72.625 447.592 72.446C447.456 72.2642 447.351 72.1136 447.277 71.9943H447.192V75.4545H446.186ZM447.175 69.7273C447.175 70.2216 447.247 70.6577 447.392 71.0355C447.537 71.4105 447.749 71.7045 448.027 71.9176C448.305 72.1278 448.646 72.233 449.05 72.233C449.47 72.233 449.821 72.1222 450.102 71.9006C450.386 71.6761 450.599 71.375 450.741 70.9972C450.886 70.6165 450.959 70.1932 450.959 69.7273C450.959 69.267 450.888 68.8523 450.746 68.483C450.607 68.1108 450.395 67.8168 450.111 67.6009C449.83 67.3821 449.476 67.2727 449.05 67.2727C448.641 67.2727 448.297 67.3764 448.018 67.5838C447.74 67.7884 447.53 68.0753 447.388 68.4446C447.246 68.8111 447.175 69.2386 447.175 69.7273ZM454.504 71.517L457.658 66.4545H458.817V73H457.811V67.9375L454.675 73H453.499V66.4545H454.504V71.517ZM464.596 73V67.375H462.858C462.466 67.375 462.157 67.4659 461.933 67.6477C461.708 67.8295 461.596 68.0795 461.596 68.3977C461.596 68.7102 461.697 68.956 461.899 69.1349C462.103 69.3139 462.383 69.4034 462.738 69.4034H464.852V70.3409H462.738C462.295 70.3409 461.913 70.2628 461.592 70.1065C461.271 69.9503 461.024 69.7273 460.85 69.4375C460.677 69.1449 460.591 68.7983 460.591 68.3977C460.591 67.9943 460.681 67.6477 460.863 67.358C461.045 67.0682 461.305 66.8452 461.643 66.6889C461.984 66.5327 462.389 66.4545 462.858 66.4545H465.551V73H464.596ZM460.233 73L462.091 69.7443H463.181L461.324 73H460.233ZM468.13 73.0682C467.92 73.0682 467.739 72.9929 467.589 72.8423C467.438 72.6918 467.363 72.5114 467.363 72.3011C467.363 72.0909 467.438 71.9105 467.589 71.7599C467.739 71.6094 467.92 71.5341 468.13 71.5341C468.34 71.5341 468.521 71.6094 468.671 71.7599C468.822 71.9105 468.897 72.0909 468.897 72.3011C468.897 72.4403 468.862 72.5682 468.79 72.6847C468.722 72.8011 468.63 72.8949 468.513 72.9659C468.4 73.0341 468.272 73.0682 468.13 73.0682Z" fill="#A8A8AD"/>
</svg>
