<svg width="658" height="56" viewBox="0 0 658 56" fill="none" xmlns="http://www.w3.org/2000/svg">
<path d="M1.80966 27V24.3352L8.87926 17.4048C9.5554 16.7221 10.1188 16.1155 10.5696 15.5852C11.0204 15.0549 11.3584 14.5412 11.5838 14.044C11.8092 13.5469 11.9219 13.0166 11.9219 12.4531C11.9219 11.8101 11.776 11.2599 11.4844 10.8026C11.1927 10.3385 10.7917 9.98059 10.2812 9.72869C9.77083 9.4768 9.19081 9.35085 8.54119 9.35085C7.87169 9.35085 7.28504 9.49006 6.78125 9.76847C6.27746 10.0402 5.88636 10.428 5.60795 10.9318C5.33617 11.4356 5.20028 12.0355 5.20028 12.7315H1.69034C1.69034 11.4389 1.98532 10.3153 2.57528 9.36079C3.16525 8.40625 3.97727 7.66714 5.01136 7.14347C6.05208 6.61979 7.24527 6.35795 8.59091 6.35795C9.95644 6.35795 11.1563 6.61316 12.1903 7.12358C13.2244 7.634 14.0265 8.33333 14.5966 9.22159C15.1733 10.1098 15.4616 11.1241 15.4616 12.2642C15.4616 13.0265 15.3158 13.7756 15.0241 14.5114C14.7325 15.2472 14.2188 16.0625 13.483 16.9574C12.7538 17.8523 11.7296 18.9361 10.4105 20.2088L6.90057 23.7784V23.9176H15.7699V27H1.80966ZM26.7273 27.3878C25.09 27.3878 23.6847 26.9735 22.5114 26.1449C21.3447 25.3097 20.4465 24.1065 19.8168 22.5355C19.1937 20.9579 18.8821 19.0587 18.8821 16.8381C18.8887 14.6174 19.2036 12.7282 19.8267 11.1705C20.4564 9.60606 21.3546 8.41288 22.5213 7.59091C23.6946 6.76894 25.0966 6.35795 26.7273 6.35795C28.358 6.35795 29.7599 6.76894 30.9332 7.59091C32.1065 8.41288 33.0047 9.60606 33.6278 11.1705C34.2576 12.7348 34.5724 14.6241 34.5724 16.8381C34.5724 19.0653 34.2576 20.9678 33.6278 22.5455C33.0047 24.1165 32.1065 25.3163 30.9332 26.1449C29.7666 26.9735 28.3646 27.3878 26.7273 27.3878ZM26.7273 24.2756C28 24.2756 29.0043 23.6491 29.7401 22.3963C30.4825 21.1368 30.8537 19.2841 30.8537 16.8381C30.8537 15.2206 30.6847 13.8617 30.3466 12.7614C30.0085 11.661 29.5313 10.8324 28.9148 10.2756C28.2983 9.71212 27.5691 9.4304 26.7273 9.4304C25.4612 9.4304 24.4602 10.0601 23.7244 11.3196C22.9886 12.5724 22.6174 14.4119 22.6108 16.8381C22.6042 18.4621 22.7666 19.8277 23.098 20.9347C23.4361 22.0417 23.9134 22.8769 24.5298 23.4403C25.1463 23.9972 25.8788 24.2756 26.7273 24.2756ZM46.1587 6.63636V27H42.4698V10.2259H42.3505L37.5877 13.2685V9.88778L42.6488 6.63636H46.1587ZM58.3988 6.35795C59.3732 6.36458 60.3211 6.53693 61.2425 6.875C62.1706 7.20644 63.0058 7.75 63.7482 8.50568C64.4906 9.25473 65.0806 10.259 65.5181 11.5185C65.9556 12.7779 66.1744 14.3357 66.1744 16.1918C66.181 17.9418 65.9954 19.5062 65.6175 20.8849C65.2463 22.2571 64.7127 23.4171 64.0167 24.3651C63.3207 25.313 62.4821 26.0355 61.5011 26.5327C60.52 27.0298 59.4163 27.2784 58.19 27.2784C56.904 27.2784 55.7638 27.0265 54.7695 26.5227C53.7818 26.0189 52.9831 25.3295 52.3732 24.4545C51.7634 23.5795 51.3888 22.5786 51.2496 21.4517H54.8789C55.0645 22.2604 55.4424 22.9034 56.0124 23.3807C56.5891 23.8513 57.315 24.0866 58.19 24.0866C59.6019 24.0866 60.689 23.4735 61.4513 22.2472C62.2137 21.0208 62.5948 19.3172 62.5948 17.1364H62.4556C62.1308 17.7197 61.7099 18.2235 61.1928 18.6477C60.6758 19.0653 60.0891 19.3868 59.4329 19.6122C58.7833 19.8376 58.0939 19.9503 57.3647 19.9503C56.1715 19.9503 55.0977 19.6652 54.1431 19.0952C53.1952 18.5251 52.4428 17.7429 51.886 16.7486C51.3358 15.7543 51.0574 14.6174 51.0508 13.3381C51.0508 12.0123 51.3557 10.8224 51.9656 9.76847C52.582 8.70786 53.4405 7.87263 54.5408 7.26278C55.6412 6.64631 56.9272 6.3447 58.3988 6.35795ZM58.4087 9.34091C57.6928 9.34091 57.0465 9.51657 56.4698 9.8679C55.8997 10.2126 55.449 10.6832 55.1175 11.2798C54.7927 11.8698 54.6303 12.5294 54.6303 13.2585C54.637 13.9811 54.7994 14.6373 55.1175 15.2273C55.4424 15.8172 55.8832 16.2846 56.44 16.6293C57.0034 16.974 57.6464 17.1463 58.369 17.1463C58.9059 17.1463 59.4064 17.0436 59.8704 16.8381C60.3344 16.6326 60.7388 16.3475 61.0835 15.983C61.4348 15.6117 61.7066 15.1908 61.8988 14.7202C62.0977 14.2495 62.1938 13.7524 62.1871 13.2287C62.1871 12.5327 62.0214 11.8897 61.69 11.2997C61.3652 10.7098 60.9177 10.2358 60.3477 9.87784C59.7842 9.51989 59.1379 9.34091 58.4087 9.34091ZM75.7347 9.72869V6.63636H91.9819V9.72869H85.6879V27H82.0288V9.72869H75.7347ZM99.402 27.2983C97.9105 27.2983 96.6179 26.9702 95.5241 26.3139C94.4304 25.6577 93.5819 24.7396 92.9787 23.5597C92.3821 22.3797 92.0838 21.0009 92.0838 19.4233C92.0838 17.8456 92.3821 16.4635 92.9787 15.277C93.5819 14.0904 94.4304 13.169 95.5241 12.5128C96.6179 11.8565 97.9105 11.5284 99.402 11.5284C100.893 11.5284 102.186 11.8565 103.28 12.5128C104.374 13.169 105.219 14.0904 105.815 15.277C106.419 16.4635 106.72 17.8456 106.72 19.4233C106.72 21.0009 106.419 22.3797 105.815 23.5597C105.219 24.7396 104.374 25.6577 103.28 26.3139C102.186 26.9702 100.893 27.2983 99.402 27.2983ZM99.4219 24.4148C100.231 24.4148 100.907 24.1927 101.45 23.7486C101.994 23.2978 102.398 22.6946 102.663 21.9389C102.935 21.1832 103.071 20.3414 103.071 19.4134C103.071 18.4787 102.935 17.6335 102.663 16.8778C102.398 16.1155 101.994 15.509 101.45 15.0582C100.907 14.6075 100.231 14.3821 99.4219 14.3821C98.5933 14.3821 97.9039 14.6075 97.3537 15.0582C96.8101 15.509 96.4025 16.1155 96.1307 16.8778C95.8655 17.6335 95.733 18.4787 95.733 19.4134C95.733 20.3414 95.8655 21.1832 96.1307 21.9389C96.4025 22.6946 96.8101 23.2978 97.3537 23.7486C97.9039 24.1927 98.5933 24.4148 99.4219 24.4148ZM111.493 32.7273C111.002 32.7273 110.548 32.6875 110.131 32.608C109.72 32.535 109.392 32.4489 109.146 32.3494L109.982 29.5455C110.505 29.6979 110.973 29.7708 111.384 29.7642C111.795 29.7576 112.156 29.6283 112.467 29.3764C112.786 29.1312 113.054 28.7202 113.273 28.1435L113.581 27.3182L108.043 11.7273H111.861L115.381 23.2614H115.54L119.07 11.7273H122.898L116.783 28.8494C116.498 29.6581 116.12 30.3509 115.649 30.9276C115.179 31.5109 114.602 31.955 113.919 32.2599C113.243 32.5715 112.434 32.7273 111.493 32.7273ZM131.531 27.2983C130.039 27.2983 128.747 26.9702 127.653 26.3139C126.559 25.6577 125.711 24.7396 125.108 23.5597C124.511 22.3797 124.213 21.0009 124.213 19.4233C124.213 17.8456 124.511 16.4635 125.108 15.277C125.711 14.0904 126.559 13.169 127.653 12.5128C128.747 11.8565 130.039 11.5284 131.531 11.5284C133.022 11.5284 134.315 11.8565 135.409 12.5128C136.502 13.169 137.348 14.0904 137.944 15.277C138.547 16.4635 138.849 17.8456 138.849 19.4233C138.849 21.0009 138.547 22.3797 137.944 23.5597C137.348 24.7396 136.502 25.6577 135.409 26.3139C134.315 26.9702 133.022 27.2983 131.531 27.2983ZM131.551 24.4148C132.359 24.4148 133.036 24.1927 133.579 23.7486C134.123 23.2978 134.527 22.6946 134.792 21.9389C135.064 21.1832 135.2 20.3414 135.2 19.4134C135.2 18.4787 135.064 17.6335 134.792 16.8778C134.527 16.1155 134.123 15.509 133.579 15.0582C133.036 14.6075 132.359 14.3821 131.551 14.3821C130.722 14.3821 130.033 14.6075 129.483 15.0582C128.939 15.509 128.531 16.1155 128.26 16.8778C127.994 17.6335 127.862 18.4787 127.862 19.4134C127.862 20.3414 127.994 21.1832 128.26 21.9389C128.531 22.6946 128.939 23.2978 129.483 23.7486C130.033 24.1927 130.722 24.4148 131.551 24.4148ZM149.531 11.7273V14.5114H140.751V11.7273H149.531ZM142.918 8.06818H146.518V22.4062C146.518 22.8902 146.591 23.2614 146.737 23.5199C146.889 23.7718 147.088 23.9441 147.333 24.0369C147.578 24.1297 147.85 24.1761 148.148 24.1761C148.374 24.1761 148.579 24.1596 148.765 24.1264C148.957 24.0933 149.103 24.0634 149.202 24.0369L149.809 26.8509C149.617 26.9171 149.342 26.9901 148.984 27.0696C148.632 27.1491 148.201 27.1955 147.691 27.2088C146.79 27.2353 145.978 27.0994 145.255 26.8011C144.532 26.4962 143.959 26.0256 143.535 25.3892C143.117 24.7528 142.912 23.9574 142.918 23.0028V8.06818ZM156.936 27.3082C155.968 27.3082 155.096 27.1359 154.321 26.7912C153.552 26.4399 152.942 25.9228 152.491 25.2401C152.047 24.5573 151.825 23.7154 151.825 22.7145C151.825 21.8527 151.984 21.1402 152.302 20.5767C152.62 20.0133 153.055 19.5625 153.605 19.2244C154.155 18.8864 154.775 18.6312 155.464 18.4588C156.16 18.2798 156.879 18.1506 157.622 18.071C158.517 17.9782 159.243 17.8954 159.799 17.8224C160.356 17.7429 160.761 17.6236 161.012 17.4645C161.271 17.2988 161.4 17.0436 161.4 16.6989V16.6392C161.4 15.8902 161.178 15.3101 160.734 14.8991C160.29 14.4882 159.65 14.2827 158.815 14.2827C157.933 14.2827 157.234 14.4749 156.717 14.8594C156.207 15.2438 155.862 15.6979 155.683 16.2216L152.322 15.7443C152.587 14.8163 153.025 14.0407 153.635 13.4176C154.244 12.7879 154.99 12.3172 155.872 12.0057C156.753 11.6875 157.728 11.5284 158.795 11.5284C159.531 11.5284 160.263 11.6146 160.993 11.7869C161.722 11.9593 162.388 12.2443 162.991 12.642C163.594 13.0331 164.078 13.5668 164.443 14.2429C164.814 14.919 165 15.7642 165 16.7784V27H161.539V24.902H161.42C161.201 25.3262 160.893 25.724 160.495 26.0952C160.104 26.4598 159.61 26.7547 159.014 26.9801C158.424 27.1989 157.731 27.3082 156.936 27.3082ZM157.87 24.6634C158.593 24.6634 159.219 24.5208 159.75 24.2358C160.28 23.9441 160.688 23.5597 160.973 23.0824C161.264 22.6051 161.41 22.0848 161.41 21.5213V19.7216C161.297 19.8144 161.105 19.9006 160.833 19.9801C160.568 20.0597 160.27 20.1293 159.939 20.1889C159.607 20.2486 159.279 20.3016 158.954 20.348C158.629 20.3944 158.348 20.4342 158.109 20.4673C157.572 20.5402 157.092 20.6596 156.667 20.8253C156.243 20.991 155.908 21.223 155.663 21.5213C155.418 21.813 155.295 22.1908 155.295 22.6548C155.295 23.3177 155.537 23.8182 156.021 24.1562C156.505 24.4943 157.121 24.6634 157.87 24.6634ZM193.154 13.5071H189.435C189.329 12.8973 189.133 12.357 188.848 11.8864C188.563 11.4091 188.209 11.0047 187.784 10.6733C187.36 10.3419 186.876 10.0933 186.333 9.92756C185.796 9.75521 185.216 9.66903 184.593 9.66903C183.486 9.66903 182.505 9.94744 181.65 10.5043C180.794 11.0544 180.125 11.8632 179.641 12.9304C179.157 13.991 178.915 15.2869 178.915 16.8182C178.915 18.3759 179.157 19.6884 179.641 20.7557C180.132 21.8163 180.801 22.6184 181.65 23.1619C182.505 23.6989 183.482 23.9673 184.583 23.9673C185.193 23.9673 185.763 23.8878 186.293 23.7287C186.83 23.563 187.31 23.321 187.735 23.0028C188.166 22.6847 188.527 22.2936 188.819 21.8295C189.117 21.3655 189.322 20.8352 189.435 20.2386L193.154 20.2585C193.015 21.2263 192.713 22.1345 192.249 22.983C191.792 23.8314 191.192 24.5805 190.449 25.2301C189.707 25.8731 188.838 26.3769 187.844 26.7415C186.85 27.0994 185.746 27.2784 184.533 27.2784C182.743 27.2784 181.146 26.8641 179.74 26.0355C178.335 25.2069 177.228 24.0104 176.419 22.446C175.611 20.8816 175.206 19.0057 175.206 16.8182C175.206 14.6241 175.614 12.7481 176.429 11.1903C177.245 9.62595 178.355 8.42945 179.76 7.60085C181.166 6.77225 182.757 6.35795 184.533 6.35795C185.667 6.35795 186.721 6.51704 187.695 6.83523C188.669 7.15341 189.538 7.62074 190.3 8.23722C191.062 8.84706 191.689 9.59612 192.179 10.4844C192.676 11.366 193.001 12.3736 193.154 13.5071ZM200.768 27.3082C199.8 27.3082 198.928 27.1359 198.153 26.7912C197.384 26.4399 196.774 25.9228 196.323 25.2401C195.879 24.5573 195.657 23.7154 195.657 22.7145C195.657 21.8527 195.816 21.1402 196.134 20.5767C196.452 20.0133 196.887 19.5625 197.437 19.2244C197.987 18.8864 198.607 18.6312 199.296 18.4588C199.992 18.2798 200.711 18.1506 201.454 18.071C202.349 17.9782 203.075 17.8954 203.631 17.8224C204.188 17.7429 204.593 17.6236 204.844 17.4645C205.103 17.2988 205.232 17.0436 205.232 16.6989V16.6392C205.232 15.8902 205.01 15.3101 204.566 14.8991C204.122 14.4882 203.482 14.2827 202.647 14.2827C201.765 14.2827 201.066 14.4749 200.549 14.8594C200.039 15.2438 199.694 15.6979 199.515 16.2216L196.154 15.7443C196.419 14.8163 196.857 14.0407 197.467 13.4176C198.076 12.7879 198.822 12.3172 199.704 12.0057C200.585 11.6875 201.56 11.5284 202.627 11.5284C203.363 11.5284 204.095 11.6146 204.825 11.7869C205.554 11.9593 206.22 12.2443 206.823 12.642C207.426 13.0331 207.91 13.5668 208.275 14.2429C208.646 14.919 208.832 15.7642 208.832 16.7784V27H205.371V24.902H205.252C205.033 25.3262 204.725 25.724 204.327 26.0952C203.936 26.4598 203.442 26.7547 202.846 26.9801C202.256 27.1989 201.563 27.3082 200.768 27.3082ZM201.702 24.6634C202.425 24.6634 203.051 24.5208 203.582 24.2358C204.112 23.9441 204.52 23.5597 204.805 23.0824C205.096 22.6051 205.242 22.0848 205.242 21.5213V19.7216C205.129 19.8144 204.937 19.9006 204.665 19.9801C204.4 20.0597 204.102 20.1293 203.771 20.1889C203.439 20.2486 203.111 20.3016 202.786 20.348C202.461 20.3944 202.18 20.4342 201.941 20.4673C201.404 20.5402 200.924 20.6596 200.499 20.8253C200.075 20.991 199.74 21.223 199.495 21.5213C199.25 21.813 199.127 22.1908 199.127 22.6548C199.127 23.3177 199.369 23.8182 199.853 24.1562C200.337 24.4943 200.953 24.6634 201.702 24.6634ZM212.451 27V11.7273H215.891V14.3224H216.07C216.388 13.4474 216.915 12.7647 217.651 12.2741C218.387 11.777 219.265 11.5284 220.286 11.5284C221.32 11.5284 222.192 11.7803 222.901 12.2841C223.617 12.7812 224.121 13.4607 224.413 14.3224H224.572C224.91 13.474 225.48 12.7978 226.282 12.294C227.091 11.7836 228.049 11.5284 229.156 11.5284C230.561 11.5284 231.708 11.9725 232.596 12.8608C233.484 13.7491 233.928 15.045 233.928 16.7486V27H230.319V17.3054C230.319 16.3575 230.067 15.6648 229.563 15.2273C229.059 14.7831 228.443 14.5611 227.714 14.5611C226.845 14.5611 226.166 14.8329 225.675 15.3764C225.192 15.9134 224.95 16.6127 224.95 17.4744V27H221.42V17.1562C221.42 16.3674 221.181 15.7377 220.704 15.267C220.233 14.7964 219.617 14.5611 218.854 14.5611C218.337 14.5611 217.867 14.6937 217.442 14.9588C217.018 15.2173 216.68 15.5852 216.428 16.0625C216.176 16.5331 216.05 17.0833 216.05 17.7131V27H212.451ZM237.58 27V11.7273H241.07V14.2727H241.229C241.507 13.3911 241.985 12.7116 242.661 12.2344C243.344 11.7505 244.123 11.5085 244.998 11.5085C245.196 11.5085 245.418 11.5185 245.664 11.5384C245.916 11.5516 246.124 11.5748 246.29 11.608V14.919C246.138 14.866 245.896 14.8196 245.564 14.7798C245.239 14.7334 244.925 14.7102 244.62 14.7102C243.963 14.7102 243.373 14.8527 242.85 15.1378C242.333 15.4162 241.925 15.804 241.627 16.3011C241.328 16.7983 241.179 17.3717 241.179 18.0213V27H237.58ZM251.384 32.7273C250.893 32.7273 250.439 32.6875 250.021 32.608C249.61 32.535 249.282 32.4489 249.037 32.3494L249.872 29.5455C250.396 29.6979 250.863 29.7708 251.274 29.7642C251.685 29.7576 252.046 29.6283 252.358 29.3764C252.676 29.1312 252.945 28.7202 253.163 28.1435L253.472 27.3182L247.933 11.7273H251.751L255.271 23.2614H255.43L258.96 11.7273H262.788L256.673 28.8494C256.388 29.6581 256.01 30.3509 255.54 30.9276C255.069 31.5109 254.492 31.955 253.81 32.2599C253.134 32.5715 252.325 32.7273 251.384 32.7273ZM298.375 15.3366V18.2997H270.375V15.3366H298.375ZM310.053 6.63636L315.353 22.6648H315.562L320.852 6.63636H324.908L317.729 27H313.175L306.006 6.63636H310.053ZM331.279 6.63636V27H327.591V6.63636H331.279ZM352.009 6.63636V27H348.727L339.132 13.1293H338.963V27H335.274V6.63636H338.575L348.161 20.517H348.339V6.63636H352.009ZM362.407 23.2216V20.2884L371.047 6.63636H373.493V10.8125H372.002L366.185 20.0298V20.1889H378.246V23.2216H362.407ZM372.121 27V22.3267L372.161 21.0142V6.63636H375.641V27H372.121ZM380.727 9.72869V6.63636H396.974V9.72869H390.68V27H387.021V9.72869H380.727ZM408.19 6.63636V27H404.501V10.2259H404.382L399.619 13.2685V9.88778L404.68 6.63636H408.19ZM413.559 27V6.63636H421.355C422.826 6.63636 424.049 6.86837 425.024 7.33239C426.005 7.78977 426.737 8.41619 427.221 9.21165C427.712 10.0071 427.957 10.9086 427.957 11.9162C427.957 12.7448 427.798 13.4541 427.48 14.044C427.162 14.6274 426.734 15.1013 426.197 15.4659C425.66 15.8305 425.06 16.0923 424.397 16.2514V16.4503C425.12 16.4901 425.813 16.7121 426.475 17.1165C427.145 17.5142 427.692 18.0777 428.116 18.8068C428.54 19.536 428.752 20.4176 428.752 21.4517C428.752 22.5057 428.497 23.4536 427.987 24.2955C427.476 25.1307 426.708 25.7902 425.68 26.2741C424.653 26.758 423.36 27 421.802 27H413.559ZM417.248 23.9176H421.216C422.555 23.9176 423.519 23.6624 424.109 23.152C424.706 22.6349 425.004 21.9721 425.004 21.1634C425.004 20.5601 424.855 20.0166 424.556 19.5327C424.258 19.0421 423.834 18.6577 423.284 18.3793C422.734 18.0942 422.077 17.9517 421.315 17.9517H417.248V23.9176ZM417.248 15.2969H420.897C421.534 15.2969 422.107 15.1809 422.618 14.9489C423.128 14.7102 423.529 14.3755 423.821 13.9446C424.119 13.5071 424.268 12.9901 424.268 12.3935C424.268 11.6046 423.99 10.955 423.433 10.4446C422.883 9.93418 422.064 9.67898 420.977 9.67898H417.248V15.2969ZM440.045 6.63636V27H436.357V10.2259H436.237L431.474 13.2685V9.88778L436.536 6.63636H440.045ZM453.499 6.63636V27H449.81V10.2259H449.69L444.928 13.2685V9.88778L449.989 6.63636H453.499ZM458.868 27V6.63636H462.557V15.2571H471.993V6.63636H475.692V27H471.993V18.3494H462.557V27H458.868ZM479.704 27V6.63636H483.393V15.9929H483.641L491.586 6.63636H496.09L488.215 15.7741L496.16 27H491.725L485.65 18.2699L483.393 20.9347V27H479.704ZM505.762 27.2784C504.331 27.2784 503.058 27.0331 501.944 26.5426C500.837 26.0521 499.962 25.3693 499.319 24.4943C498.676 23.6193 498.335 22.6084 498.295 21.4616H502.034C502.067 22.0118 502.249 22.4924 502.581 22.9034C502.912 23.3078 503.353 23.6226 503.903 23.848C504.453 24.0734 505.07 24.1861 505.752 24.1861C506.482 24.1861 507.128 24.0601 507.691 23.8082C508.255 23.5497 508.696 23.1918 509.014 22.7344C509.332 22.277 509.488 21.75 509.481 21.1534C509.488 20.5369 509.329 19.9934 509.004 19.5227C508.679 19.0521 508.208 18.6842 507.592 18.419C506.982 18.1539 506.246 18.0213 505.385 18.0213H503.585V15.1776H505.385C506.094 15.1776 506.714 15.0549 507.244 14.8097C507.781 14.5644 508.202 14.2197 508.507 13.7756C508.812 13.3248 508.961 12.8045 508.954 12.2145C508.961 11.6378 508.832 11.1373 508.566 10.7131C508.308 10.2822 507.94 9.94744 507.463 9.70881C506.992 9.47017 506.439 9.35085 505.802 9.35085C505.179 9.35085 504.602 9.46354 504.072 9.68892C503.542 9.9143 503.114 10.2358 502.789 10.6534C502.465 11.0644 502.292 11.5549 502.272 12.125H498.723C498.749 10.9848 499.077 9.9839 499.707 9.12216C500.343 8.25379 501.192 7.57765 502.252 7.09375C503.313 6.60322 504.503 6.35795 505.822 6.35795C507.181 6.35795 508.361 6.61316 509.362 7.12358C510.369 7.62737 511.148 8.30682 511.699 9.16193C512.249 10.017 512.524 10.9616 512.524 11.9957C512.53 13.1425 512.192 14.1037 511.51 14.8793C510.833 15.6548 509.945 16.1619 508.845 16.4006V16.5597C510.277 16.7585 511.374 17.2888 512.136 18.1506C512.905 19.0057 513.286 20.0696 513.279 21.3423C513.279 22.4825 512.955 23.5033 512.305 24.4048C511.662 25.2997 510.774 26.0024 509.64 26.5128C508.513 27.0232 507.221 27.2784 505.762 27.2784ZM516.891 27V6.63636H520.58V15.9929H520.829L528.773 6.63636H533.278L525.403 15.7741L533.347 27H528.913L522.837 18.2699L520.58 20.9347V27H516.891ZM548.677 6.63636H552.366V19.9403C552.366 21.3987 552.021 22.6813 551.332 23.7884C550.649 24.8954 549.688 25.7604 548.449 26.3835C547.209 27 545.761 27.3082 544.103 27.3082C542.44 27.3082 540.988 27 539.748 26.3835C538.509 25.7604 537.547 24.8954 536.865 23.7884C536.182 22.6813 535.841 21.3987 535.841 19.9403V6.63636H539.529V19.6321C539.529 20.4806 539.715 21.2363 540.086 21.8991C540.464 22.562 540.994 23.0824 541.677 23.4602C542.36 23.8314 543.169 24.017 544.103 24.017C545.038 24.017 545.847 23.8314 546.529 23.4602C547.219 23.0824 547.749 22.562 548.12 21.8991C548.492 21.2363 548.677 20.4806 548.677 19.6321V6.63636ZM564.46 6.63636V27H560.771V10.2259H560.651L555.888 13.2685V9.88778L560.95 6.63636H564.46ZM569.63 27V24.3352L576.7 17.4048C577.376 16.7221 577.939 16.1155 578.39 15.5852C578.841 15.0549 579.179 14.5412 579.404 14.044C579.629 13.5469 579.742 13.0166 579.742 12.4531C579.742 11.8101 579.596 11.2599 579.305 10.8026C579.013 10.3385 578.612 9.98059 578.102 9.72869C577.591 9.4768 577.011 9.35085 576.362 9.35085C575.692 9.35085 575.105 9.49006 574.602 9.76847C574.098 10.0402 573.707 10.428 573.428 10.9318C573.156 11.4356 573.021 12.0355 573.021 12.7315H569.511C569.511 11.4389 569.806 10.3153 570.396 9.36079C570.986 8.40625 571.798 7.66714 572.832 7.14347C573.872 6.61979 575.066 6.35795 576.411 6.35795C577.777 6.35795 578.977 6.61316 580.011 7.12358C581.045 7.634 581.847 8.33333 582.417 9.22159C582.994 10.1098 583.282 11.1241 583.282 12.2642C583.282 13.0265 583.136 13.7756 582.844 14.5114C582.553 15.2472 582.039 16.0625 581.303 16.9574C580.574 17.8523 579.55 18.9361 578.231 20.2088L574.721 23.7784V23.9176H583.59V27H569.63ZM594.329 27.2784C592.897 27.2784 591.624 27.0331 590.511 26.5426C589.404 26.0521 588.529 25.3693 587.886 24.4943C587.243 23.6193 586.901 22.6084 586.862 21.4616H590.6C590.633 22.0118 590.816 22.4924 591.147 22.9034C591.478 23.3078 591.919 23.6226 592.469 23.848C593.02 24.0734 593.636 24.1861 594.319 24.1861C595.048 24.1861 595.694 24.0601 596.258 23.8082C596.821 23.5497 597.262 23.1918 597.58 22.7344C597.898 22.277 598.054 21.75 598.048 21.1534C598.054 20.5369 597.895 19.9934 597.57 19.5227C597.246 19.0521 596.775 18.6842 596.158 18.419C595.549 18.1539 594.813 18.0213 593.951 18.0213H592.151V15.1776H593.951C594.66 15.1776 595.28 15.0549 595.81 14.8097C596.347 14.5644 596.768 14.2197 597.073 13.7756C597.378 13.3248 597.527 12.8045 597.521 12.2145C597.527 11.6378 597.398 11.1373 597.133 10.7131C596.874 10.2822 596.506 9.94744 596.029 9.70881C595.558 9.47017 595.005 9.35085 594.369 9.35085C593.746 9.35085 593.169 9.46354 592.638 9.68892C592.108 9.9143 591.681 10.2358 591.356 10.6534C591.031 11.0644 590.859 11.5549 590.839 12.125H587.289C587.316 10.9848 587.644 9.9839 588.273 9.12216C588.91 8.25379 589.758 7.57765 590.819 7.09375C591.879 6.60322 593.069 6.35795 594.388 6.35795C595.747 6.35795 596.927 6.61316 597.928 7.12358C598.936 7.62737 599.715 8.30682 600.265 9.16193C600.815 10.017 601.09 10.9616 601.09 11.9957C601.097 13.1425 600.759 14.1037 600.076 14.8793C599.4 15.6548 598.512 16.1619 597.411 16.4006V16.5597C598.843 16.7585 599.94 17.2888 600.702 18.1506C601.471 19.0057 601.853 20.0696 601.846 21.3423C601.846 22.4825 601.521 23.5033 600.871 24.4048C600.228 25.2997 599.34 26.0024 598.207 26.5128C597.08 27.0232 595.787 27.2784 594.329 27.2784ZM604.891 23.2216V20.2884L613.532 6.63636H615.978V10.8125H614.486L608.669 20.0298V20.1889H620.73V23.2216H604.891ZM614.605 27V22.3267L614.645 21.0142V6.63636H618.125V27H614.605ZM630.987 27.2784C629.661 27.2784 628.475 27.0298 627.427 26.5327C626.38 26.0289 625.548 25.3395 624.931 24.4645C624.322 23.5895 623.997 22.5885 623.957 21.4616H627.537C627.603 22.2969 627.964 22.9796 628.62 23.5099C629.277 24.0336 630.065 24.2955 630.987 24.2955C631.709 24.2955 632.352 24.1297 632.916 23.7983C633.479 23.4669 633.923 23.0062 634.248 22.4162C634.573 21.8262 634.732 21.1534 634.725 20.3977C634.732 19.6288 634.57 18.946 634.238 18.3494C633.907 17.7528 633.453 17.2855 632.876 16.9474C632.299 16.6027 631.636 16.4304 630.887 16.4304C630.278 16.4238 629.678 16.5365 629.088 16.7685C628.498 17.0005 628.03 17.3054 627.686 17.6832L624.355 17.1364L625.419 6.63636H637.231V9.71875H628.471L627.885 15.1179H628.004C628.382 14.6738 628.915 14.3059 629.605 14.0142C630.294 13.7159 631.05 13.5668 631.872 13.5668C633.105 13.5668 634.205 13.8584 635.173 14.4418C636.141 15.0185 636.903 15.8139 637.46 16.8281C638.017 17.8423 638.295 19.0024 638.295 20.3082C638.295 21.6539 637.984 22.8537 637.36 23.9077C636.744 24.955 635.886 25.7803 634.785 26.3835C633.691 26.9801 632.425 27.2784 630.987 27.2784ZM649.083 27.2784C648.109 27.2718 647.158 27.1027 646.23 26.7713C645.302 26.4332 644.467 25.8864 643.724 25.1307C642.982 24.3684 642.392 23.3575 641.954 22.098C641.517 20.8319 641.301 19.2642 641.308 17.3949C641.308 15.6515 641.493 14.0971 641.865 12.7315C642.236 11.366 642.77 10.2126 643.466 9.27131C644.162 8.32339 645 7.60085 645.981 7.10369C646.969 6.60653 648.073 6.35795 649.292 6.35795C650.572 6.35795 651.705 6.60985 652.693 7.11364C653.687 7.61742 654.489 8.30682 655.099 9.18182C655.709 10.0502 656.087 11.0312 656.233 12.125H652.603C652.418 11.3428 652.037 10.7197 651.46 10.2557C650.89 9.78504 650.167 9.54972 649.292 9.54972C647.88 9.54972 646.793 10.1629 646.031 11.3892C645.275 12.6155 644.894 14.2992 644.887 16.4403H645.027C645.351 15.857 645.772 15.3565 646.289 14.9389C646.806 14.5213 647.39 14.1998 648.039 13.9744C648.696 13.7424 649.388 13.6264 650.118 13.6264C651.311 13.6264 652.381 13.9115 653.329 14.4815C654.284 15.0516 655.039 15.8371 655.596 16.8381C656.153 17.8324 656.428 18.9725 656.422 20.2585C656.428 21.5975 656.123 22.8007 655.507 23.8679C654.89 24.9285 654.032 25.7637 652.931 26.3736C651.831 26.9834 650.548 27.285 649.083 27.2784ZM649.064 24.2955C649.786 24.2955 650.432 24.1198 651.002 23.7685C651.573 23.4171 652.023 22.9432 652.355 22.3466C652.686 21.75 652.849 21.0805 652.842 20.3381C652.849 19.6089 652.69 18.9493 652.365 18.3594C652.047 17.7694 651.606 17.3021 651.042 16.9574C650.479 16.6127 649.836 16.4403 649.113 16.4403C648.576 16.4403 648.076 16.5431 647.612 16.7486C647.148 16.9541 646.743 17.2391 646.399 17.6037C646.054 17.9616 645.782 18.3793 645.583 18.8565C645.391 19.3272 645.292 19.831 645.285 20.3679C645.292 21.0772 645.458 21.7301 645.782 22.3267C646.107 22.9233 646.555 23.4006 647.125 23.7585C647.695 24.1165 648.341 24.2955 649.064 24.2955Z" fill="#EDEDF0"/>
<path d="M1.65057 41.8182L4.6733 50.3892H4.79261L7.81534 41.8182H9.10795L5.36932 52H4.09659L0.357955 41.8182H1.65057ZM13.0256 52.1591C12.2898 52.1591 11.6551 51.9967 11.1214 51.6719C10.5911 51.3438 10.1818 50.8864 9.89347 50.2997C9.60843 49.7098 9.46591 49.0237 9.46591 48.2415C9.46591 47.4593 9.60843 46.7699 9.89347 46.1733C10.1818 45.5734 10.5829 45.1061 11.0966 44.7713C11.6136 44.4332 12.2169 44.2642 12.9062 44.2642C13.304 44.2642 13.6967 44.3305 14.0845 44.4631C14.4723 44.5956 14.8253 44.8111 15.1435 45.1094C15.4616 45.4044 15.7152 45.7955 15.9041 46.2827C16.093 46.7699 16.1875 47.3698 16.1875 48.0824V48.5795H10.3011V47.5653H14.9943C14.9943 47.1345 14.9081 46.75 14.7358 46.4119C14.5668 46.0739 14.3248 45.8071 14.0099 45.6115C13.6984 45.416 13.3305 45.3182 12.9062 45.3182C12.4389 45.3182 12.0346 45.4342 11.6932 45.6662C11.3551 45.8949 11.0949 46.1932 10.9126 46.5611C10.7304 46.929 10.6392 47.3234 10.6392 47.7443V48.4205C10.6392 48.9972 10.7386 49.486 10.9375 49.8871C11.1397 50.2848 11.4197 50.5881 11.7777 50.7969C12.1357 51.0024 12.5516 51.1051 13.0256 51.1051C13.3338 51.1051 13.6122 51.062 13.8608 50.9759C14.1127 50.8864 14.3298 50.7538 14.5121 50.5781C14.6944 50.3991 14.8352 50.1771 14.9347 49.9119L16.0682 50.2301C15.9489 50.6146 15.7483 50.9527 15.4666 51.2443C15.1849 51.5327 14.8369 51.758 14.4226 51.9205C14.0083 52.0795 13.5426 52.1591 13.0256 52.1591ZM19.1456 47.4062V52H17.9723V41.8182H19.1456V45.5568H19.245C19.424 45.1624 19.6925 44.8492 20.0504 44.6172C20.4117 44.3819 20.8923 44.2642 21.4922 44.2642C22.0125 44.2642 22.4683 44.3686 22.8594 44.5774C23.2505 44.7829 23.5537 45.0994 23.7692 45.527C23.9879 45.9512 24.0973 46.4915 24.0973 47.1477V52H22.924V47.2273C22.924 46.6207 22.7666 46.1518 22.4517 45.8203C22.1402 45.4856 21.7076 45.3182 21.1541 45.3182C20.7696 45.3182 20.425 45.3994 20.12 45.5618C19.8184 45.7242 19.5798 45.9612 19.4041 46.2727C19.2318 46.5843 19.1456 46.9621 19.1456 47.4062ZM26.2438 52V44.3636H27.4171V52H26.2438ZM26.8404 43.0909C26.6117 43.0909 26.4145 43.013 26.2488 42.8572C26.0864 42.7015 26.0051 42.5142 26.0051 42.2955C26.0051 42.0767 26.0864 41.8894 26.2488 41.7337C26.4145 41.5779 26.6117 41.5 26.8404 41.5C27.0691 41.5 27.2646 41.5779 27.427 41.7337C27.5927 41.8894 27.6756 42.0767 27.6756 42.2955C27.6756 42.5142 27.5927 42.7015 27.427 42.8572C27.2646 43.013 27.0691 43.0909 26.8404 43.0909ZM32.6683 52.1591C31.9524 52.1591 31.3359 51.9901 30.8189 51.652C30.3018 51.3139 29.9041 50.8482 29.6257 50.255C29.3473 49.6617 29.2081 48.9839 29.2081 48.2216C29.2081 47.446 29.3506 46.7616 29.6357 46.1683C29.924 45.5717 30.325 45.1061 30.8388 44.7713C31.3558 44.4332 31.959 44.2642 32.6484 44.2642C33.1854 44.2642 33.6693 44.3636 34.1001 44.5625C34.531 44.7614 34.884 45.0398 35.1591 45.3977C35.4342 45.7557 35.6049 46.1733 35.6712 46.6506H34.4979C34.4084 46.3026 34.2095 45.9943 33.9013 45.7259C33.5964 45.4541 33.1854 45.3182 32.6683 45.3182C32.2109 45.3182 31.8099 45.4375 31.4652 45.6761C31.1238 45.9115 30.857 46.2446 30.6648 46.6754C30.4759 47.103 30.3814 47.6051 30.3814 48.1818C30.3814 48.7718 30.4742 49.2855 30.6598 49.723C30.8487 50.1605 31.1139 50.5002 31.4553 50.7422C31.8 50.9841 32.2043 51.1051 32.6683 51.1051C32.9732 51.1051 33.25 51.0521 33.4986 50.946C33.7472 50.84 33.9576 50.6875 34.13 50.4886C34.3023 50.2898 34.425 50.0511 34.4979 49.7727H35.6712C35.6049 50.2235 35.4408 50.6295 35.179 50.9908C34.9205 51.3487 34.5774 51.6338 34.1499 51.8459C33.7256 52.0547 33.2318 52.1591 32.6683 52.1591ZM38.5597 41.8182V52H37.3864V41.8182H38.5597ZM43.9103 52.1591C43.1745 52.1591 42.5398 51.9967 42.0062 51.6719C41.4759 51.3438 41.0666 50.8864 40.7782 50.2997C40.4932 49.7098 40.3507 49.0237 40.3507 48.2415C40.3507 47.4593 40.4932 46.7699 40.7782 46.1733C41.0666 45.5734 41.4676 45.1061 41.9814 44.7713C42.4984 44.4332 43.1016 44.2642 43.791 44.2642C44.1887 44.2642 44.5815 44.3305 44.9693 44.4631C45.3571 44.5956 45.7101 44.8111 46.0282 45.1094C46.3464 45.4044 46.6 45.7955 46.7889 46.2827C46.9778 46.7699 47.0723 47.3698 47.0723 48.0824V48.5795H41.1859V47.5653H45.8791C45.8791 47.1345 45.7929 46.75 45.6206 46.4119C45.4515 46.0739 45.2096 45.8071 44.8947 45.6115C44.5832 45.416 44.2153 45.3182 43.791 45.3182C43.3237 45.3182 42.9193 45.4342 42.5779 45.6662C42.2399 45.8949 41.9797 46.1932 41.7974 46.5611C41.6151 46.929 41.524 47.3234 41.524 47.7443V48.4205C41.524 48.9972 41.6234 49.486 41.8223 49.8871C42.0244 50.2848 42.3045 50.5881 42.6625 50.7969C43.0204 51.0024 43.4364 51.1051 43.9103 51.1051C44.2186 51.1051 44.497 51.062 44.7456 50.9759C44.9975 50.8864 45.2145 50.7538 45.3968 50.5781C45.5791 50.3991 45.72 50.1771 45.8194 49.9119L46.9529 50.2301C46.8336 50.6146 46.6331 50.9527 46.3514 51.2443C46.0697 51.5327 45.7217 51.758 45.3074 51.9205C44.8931 52.0795 44.4274 52.1591 43.9103 52.1591ZM52.7946 54.8636V44.3636H53.9281V45.5767H54.0673C54.1535 45.4441 54.2728 45.2751 54.4252 45.0696C54.581 44.8608 54.8031 44.6752 55.0914 44.5128C55.3831 44.3471 55.7775 44.2642 56.2747 44.2642C56.9177 44.2642 57.4844 44.425 57.975 44.7464C58.4655 45.0679 58.8483 45.5237 59.1234 46.1136C59.3985 46.7036 59.536 47.3996 59.536 48.2017C59.536 49.0104 59.3985 49.7114 59.1234 50.3047C58.8483 50.8946 58.4672 51.352 57.9799 51.6768C57.4927 51.9983 56.9309 52.1591 56.2946 52.1591C55.804 52.1591 55.4113 52.0779 55.1163 51.9155C54.8213 51.7498 54.5943 51.5625 54.4352 51.3537C54.2761 51.1416 54.1535 50.9659 54.0673 50.8267H53.9679V54.8636H52.7946ZM53.948 48.1818C53.948 48.7585 54.0325 49.2673 54.2015 49.7081C54.3706 50.1456 54.6175 50.4886 54.9423 50.7372C55.2671 50.9825 55.6648 51.1051 56.1355 51.1051C56.626 51.1051 57.0353 50.9759 57.3635 50.7173C57.6949 50.4555 57.9435 50.1042 58.1092 49.6634C58.2782 49.2192 58.3627 48.7254 58.3627 48.1818C58.3627 47.6449 58.2799 47.161 58.1142 46.7301C57.9518 46.2959 57.7048 45.9529 57.3734 45.701C57.0453 45.4458 56.6326 45.3182 56.1355 45.3182C55.6582 45.3182 55.2572 45.4392 54.9324 45.6811C54.6075 45.9197 54.3623 46.2545 54.1966 46.6854C54.0308 47.1129 53.948 47.6117 53.948 48.1818ZM63.573 52.179C63.0891 52.179 62.6499 52.0878 62.2555 51.9055C61.8611 51.7199 61.5479 51.4531 61.3159 51.1051C61.0839 50.7538 60.9679 50.3295 60.9679 49.8324C60.9679 49.3949 61.054 49.0402 61.2264 48.7685C61.3987 48.4934 61.6291 48.2779 61.9174 48.1222C62.2058 47.9664 62.524 47.8504 62.872 47.7741C63.2233 47.6946 63.5763 47.6316 63.9309 47.5852C64.3949 47.5256 64.7711 47.4808 65.0595 47.451C65.3511 47.4179 65.5633 47.3632 65.6958 47.2869C65.8317 47.2107 65.8997 47.0781 65.8997 46.8892V46.8494C65.8997 46.3589 65.7654 45.9777 65.497 45.706C65.2318 45.4342 64.8291 45.2983 64.2889 45.2983C63.7288 45.2983 63.2896 45.4209 62.9714 45.6662C62.6532 45.9115 62.4295 46.1733 62.3002 46.4517L61.1866 46.054C61.3855 45.59 61.6506 45.2287 61.9821 44.9702C62.3168 44.7083 62.6814 44.526 63.0758 44.4233C63.4735 44.3172 63.8646 44.2642 64.2491 44.2642C64.4944 44.2642 64.7761 44.294 65.0943 44.3537C65.4158 44.41 65.7257 44.5277 66.024 44.7067C66.3256 44.8857 66.5758 45.1558 66.7747 45.517C66.9735 45.8783 67.073 46.3622 67.073 46.9688V52H65.8997V50.9659H65.84C65.7605 51.1316 65.6279 51.3089 65.4423 51.4979C65.2567 51.6868 65.0098 51.8475 64.7015 51.9801C64.3933 52.1127 64.0171 52.179 63.573 52.179ZM63.752 51.125C64.216 51.125 64.6071 51.0339 64.9252 50.8516C65.2467 50.6693 65.4887 50.4339 65.6511 50.1456C65.8168 49.8572 65.8997 49.554 65.8997 49.2358V48.1619C65.85 48.2216 65.7406 48.2763 65.5716 48.326C65.4058 48.3724 65.2136 48.4138 64.9949 48.4503C64.7794 48.4834 64.569 48.5133 64.3635 48.5398C64.1613 48.563 63.9972 48.5829 63.8713 48.5994C63.5663 48.6392 63.2813 48.7038 63.0162 48.7933C62.7543 48.8795 62.5422 49.0104 62.3798 49.1861C62.2207 49.3584 62.1412 49.5937 62.1412 49.892C62.1412 50.2997 62.292 50.608 62.5936 50.8168C62.8985 51.0223 63.2846 51.125 63.752 51.125ZM72.2969 55.0227C71.7301 55.0227 71.2429 54.9498 70.8352 54.804C70.4276 54.6615 70.0878 54.4725 69.8161 54.2372C69.5476 54.0052 69.3338 53.7566 69.1747 53.4915L70.1094 52.8352C70.2154 52.9744 70.3497 53.1335 70.5121 53.3125C70.6745 53.4948 70.8965 53.6522 71.1783 53.7848C71.4633 53.9207 71.8362 53.9886 72.2969 53.9886C72.9134 53.9886 73.4221 53.8395 73.8232 53.5412C74.2242 53.2429 74.4247 52.7756 74.4247 52.1392V50.5881H74.3253C74.2391 50.7273 74.1165 50.8996 73.9574 51.1051C73.8016 51.3073 73.5762 51.4879 73.2812 51.647C72.9896 51.8028 72.5952 51.8807 72.098 51.8807C71.4815 51.8807 70.928 51.7348 70.4375 51.4432C69.9503 51.1515 69.5642 50.7273 69.2791 50.1705C68.9974 49.6136 68.8565 48.9375 68.8565 48.142C68.8565 47.3598 68.9941 46.6787 69.2692 46.0987C69.5443 45.5154 69.9271 45.0646 70.4176 44.7464C70.9081 44.425 71.4749 44.2642 72.1179 44.2642C72.6151 44.2642 73.0095 44.3471 73.3011 44.5128C73.5961 44.6752 73.8215 44.8608 73.9773 45.0696C74.1364 45.2751 74.259 45.4441 74.3452 45.5767H74.4645V44.3636H75.598V52.2188C75.598 52.875 75.4489 53.4086 75.1506 53.8196C74.8556 54.2339 74.4579 54.5372 73.9574 54.7294C73.4602 54.925 72.9067 55.0227 72.2969 55.0227ZM72.2571 50.8267C72.7277 50.8267 73.1255 50.719 73.4503 50.5036C73.7751 50.2881 74.022 49.9782 74.1911 49.5739C74.3601 49.1695 74.4446 48.6856 74.4446 48.1222C74.4446 47.572 74.3617 47.0864 74.196 46.6655C74.0303 46.2446 73.785 45.9148 73.4602 45.6761C73.1354 45.4375 72.7344 45.3182 72.2571 45.3182C71.7599 45.3182 71.3456 45.4441 71.0142 45.696C70.6861 45.9479 70.4392 46.286 70.2734 46.7102C70.111 47.1345 70.0298 47.6051 70.0298 48.1222C70.0298 48.6525 70.1127 49.1214 70.2784 49.5291C70.4474 49.9335 70.696 50.2517 71.0241 50.4837C71.3556 50.7124 71.7666 50.8267 72.2571 50.8267ZM80.9474 52.1591C80.2116 52.1591 79.5769 51.9967 79.0433 51.6719C78.513 51.3438 78.1037 50.8864 77.8153 50.2997C77.5303 49.7098 77.3878 49.0237 77.3878 48.2415C77.3878 47.4593 77.5303 46.7699 77.8153 46.1733C78.1037 45.5734 78.5047 45.1061 79.0185 44.7713C79.5355 44.4332 80.1387 44.2642 80.8281 44.2642C81.2259 44.2642 81.6186 44.3305 82.0064 44.4631C82.3942 44.5956 82.7472 44.8111 83.0653 45.1094C83.3835 45.4044 83.6371 45.7955 83.826 46.2827C84.0149 46.7699 84.1094 47.3698 84.1094 48.0824V48.5795H78.223V47.5653H82.9162C82.9162 47.1345 82.83 46.75 82.6577 46.4119C82.4886 46.0739 82.2467 45.8071 81.9318 45.6115C81.6203 45.416 81.2524 45.3182 80.8281 45.3182C80.3608 45.3182 79.9564 45.4342 79.6151 45.6662C79.277 45.8949 79.0168 46.1932 78.8345 46.5611C78.6522 46.929 78.5611 47.3234 78.5611 47.7443V48.4205C78.5611 48.9972 78.6605 49.486 78.8594 49.8871C79.0616 50.2848 79.3416 50.5881 79.6996 50.7969C80.0575 51.0024 80.4735 51.1051 80.9474 51.1051C81.2557 51.1051 81.5341 51.062 81.7827 50.9759C82.0346 50.8864 82.2517 50.7538 82.4339 50.5781C82.6162 50.3991 82.7571 50.1771 82.8565 49.9119L83.9901 50.2301C83.8707 50.6146 83.6702 50.9527 83.3885 51.2443C83.1068 51.5327 82.7588 51.758 82.3445 51.9205C81.9302 52.0795 81.4645 52.1591 80.9474 52.1591ZM91.5618 52L89.2351 44.3636H90.468L92.1186 50.2102H92.1982L93.8288 44.3636H95.0817L96.6925 50.1903H96.772L98.4226 44.3636H99.6555L97.3288 52H96.1754L94.505 46.1335H94.3857L92.7152 52H91.5618ZM101.207 52V44.3636H102.38V52H101.207ZM101.803 43.0909C101.575 43.0909 101.377 43.013 101.212 42.8572C101.049 42.7015 100.968 42.5142 100.968 42.2955C100.968 42.0767 101.049 41.8894 101.212 41.7337C101.377 41.5779 101.575 41.5 101.803 41.5C102.032 41.5 102.228 41.5779 102.39 41.7337C102.556 41.8894 102.638 42.0767 102.638 42.2955C102.638 42.5142 102.556 42.7015 102.39 42.8572C102.228 43.013 102.032 43.0909 101.803 43.0909ZM107.85 44.3636V45.358H103.893V44.3636H107.85ZM105.046 42.5341H106.219V49.8125C106.219 50.1439 106.267 50.3925 106.363 50.5582C106.463 50.7206 106.589 50.83 106.741 50.8864C106.897 50.9394 107.061 50.9659 107.233 50.9659C107.363 50.9659 107.469 50.9593 107.552 50.946C107.635 50.9295 107.701 50.9162 107.751 50.9062L107.989 51.9602C107.91 51.9901 107.799 52.0199 107.656 52.0497C107.514 52.0829 107.333 52.0994 107.114 52.0994C106.783 52.0994 106.458 52.0282 106.14 51.8857C105.825 51.7431 105.563 51.526 105.354 51.2344C105.149 50.9427 105.046 50.5748 105.046 50.1307V42.5341ZM110.952 47.4062V52H109.779V41.8182H110.952V45.5568H111.052C111.231 45.1624 111.499 44.8492 111.857 44.6172C112.218 44.3819 112.699 44.2642 113.299 44.2642C113.819 44.2642 114.275 44.3686 114.666 44.5774C115.057 44.7829 115.36 45.0994 115.576 45.527C115.795 45.9512 115.904 46.4915 115.904 47.1477V52H114.731V47.2273C114.731 46.6207 114.573 46.1518 114.258 45.8203C113.947 45.4856 113.514 45.3182 112.961 45.3182C112.576 45.3182 112.232 45.3994 111.927 45.5618C111.625 45.7242 111.386 45.9612 111.211 46.2727C111.038 46.5843 110.952 46.9621 110.952 47.4062ZM121.988 54.8636V44.3636H123.121V45.5767H123.261C123.347 45.4441 123.466 45.2751 123.619 45.0696C123.774 44.8608 123.996 44.6752 124.285 44.5128C124.576 44.3471 124.971 44.2642 125.468 44.2642C126.111 44.2642 126.678 44.425 127.168 44.7464C127.659 45.0679 128.042 45.5237 128.317 46.1136C128.592 46.7036 128.729 47.3996 128.729 48.2017C128.729 49.0104 128.592 49.7114 128.317 50.3047C128.042 50.8946 127.661 51.352 127.173 51.6768C126.686 51.9983 126.124 52.1591 125.488 52.1591C124.997 52.1591 124.605 52.0779 124.31 51.9155C124.015 51.7498 123.788 51.5625 123.629 51.3537C123.469 51.1416 123.347 50.9659 123.261 50.8267H123.161V54.8636H121.988ZM123.141 48.1818C123.141 48.7585 123.226 49.2673 123.395 49.7081C123.564 50.1456 123.811 50.4886 124.136 50.7372C124.46 50.9825 124.858 51.1051 125.329 51.1051C125.819 51.1051 126.229 50.9759 126.557 50.7173C126.888 50.4555 127.137 50.1042 127.303 49.6634C127.472 49.2192 127.556 48.7254 127.556 48.1818C127.556 47.6449 127.473 47.161 127.308 46.7301C127.145 46.2959 126.898 45.9529 126.567 45.701C126.239 45.4458 125.826 45.3182 125.329 45.3182C124.852 45.3182 124.451 45.4392 124.126 45.6811C123.801 45.9197 123.556 46.2545 123.39 46.6854C123.224 47.1129 123.141 47.6117 123.141 48.1818ZM131.692 47.4062V52H130.519V41.8182H131.692V45.5568H131.792C131.971 45.1624 132.239 44.8492 132.597 44.6172C132.959 44.3819 133.439 44.2642 134.039 44.2642C134.559 44.2642 135.015 44.3686 135.406 44.5774C135.797 44.7829 136.101 45.0994 136.316 45.527C136.535 45.9512 136.644 46.4915 136.644 47.1477V52H135.471V47.2273C135.471 46.6207 135.313 46.1518 134.999 45.8203C134.687 45.4856 134.254 45.3182 133.701 45.3182C133.317 45.3182 132.972 45.3994 132.667 45.5618C132.365 45.7242 132.127 45.9612 131.951 46.2727C131.779 46.5843 131.692 46.9621 131.692 47.4062ZM141.893 52.1591C141.204 52.1591 140.599 51.995 140.078 51.6669C139.561 51.3388 139.157 50.8797 138.865 50.2898C138.577 49.6998 138.433 49.0104 138.433 48.2216C138.433 47.4261 138.577 46.7318 138.865 46.1385C139.157 45.5452 139.561 45.0845 140.078 44.7564C140.599 44.4283 141.204 44.2642 141.893 44.2642C142.582 44.2642 143.186 44.4283 143.703 44.7564C144.223 45.0845 144.627 45.5452 144.916 46.1385C145.207 46.7318 145.353 47.4261 145.353 48.2216C145.353 49.0104 145.207 49.6998 144.916 50.2898C144.627 50.8797 144.223 51.3388 143.703 51.6669C143.186 51.995 142.582 52.1591 141.893 52.1591ZM141.893 51.1051C142.417 51.1051 142.847 50.9709 143.186 50.7024C143.524 50.4339 143.774 50.081 143.936 49.6435C144.099 49.206 144.18 48.732 144.18 48.2216C144.18 47.7112 144.099 47.2356 143.936 46.7947C143.774 46.3539 143.524 45.9976 143.186 45.7259C142.847 45.4541 142.417 45.3182 141.893 45.3182C141.369 45.3182 140.938 45.4541 140.6 45.7259C140.262 45.9976 140.012 46.3539 139.85 46.7947C139.687 47.2356 139.606 47.7112 139.606 48.2216C139.606 48.732 139.687 49.206 139.85 49.6435C140.012 50.081 140.262 50.4339 140.6 50.7024C140.938 50.9709 141.369 51.1051 141.893 51.1051ZM150.465 44.3636V45.358H146.508V44.3636H150.465ZM147.661 42.5341H148.835V49.8125C148.835 50.1439 148.883 50.3925 148.979 50.5582C149.078 50.7206 149.204 50.83 149.357 50.8864C149.512 50.9394 149.676 50.9659 149.849 50.9659C149.978 50.9659 150.084 50.9593 150.167 50.946C150.25 50.9295 150.316 50.9162 150.366 50.9062L150.604 51.9602C150.525 51.9901 150.414 52.0199 150.271 52.0497C150.129 52.0829 149.948 52.0994 149.729 52.0994C149.398 52.0994 149.073 52.0282 148.755 51.8857C148.44 51.7431 148.178 51.526 147.969 51.2344C147.764 50.9427 147.661 50.5748 147.661 50.1307V42.5341ZM155.25 52.1591C154.561 52.1591 153.956 51.995 153.436 51.6669C152.919 51.3388 152.514 50.8797 152.223 50.2898C151.934 49.6998 151.79 49.0104 151.79 48.2216C151.79 47.4261 151.934 46.7318 152.223 46.1385C152.514 45.5452 152.919 45.0845 153.436 44.7564C153.956 44.4283 154.561 44.2642 155.25 44.2642C155.94 44.2642 156.543 44.4283 157.06 44.7564C157.58 45.0845 157.985 45.5452 158.273 46.1385C158.565 46.7318 158.711 47.4261 158.711 48.2216C158.711 49.0104 158.565 49.6998 158.273 50.2898C157.985 50.8797 157.58 51.3388 157.06 51.6669C156.543 51.995 155.94 52.1591 155.25 52.1591ZM155.25 51.1051C155.774 51.1051 156.205 50.9709 156.543 50.7024C156.881 50.4339 157.131 50.081 157.294 49.6435C157.456 49.206 157.537 48.732 157.537 48.2216C157.537 47.7112 157.456 47.2356 157.294 46.7947C157.131 46.3539 156.881 45.9976 156.543 45.7259C156.205 45.4541 155.774 45.3182 155.25 45.3182C154.727 45.3182 154.296 45.4541 153.958 45.7259C153.62 45.9976 153.369 46.3539 153.207 46.7947C153.045 47.2356 152.963 47.7112 152.963 48.2216C152.963 48.732 153.045 49.206 153.207 49.6435C153.369 50.081 153.62 50.4339 153.958 50.7024C154.296 50.9709 154.727 51.1051 155.25 51.1051ZM165.911 46.0739L164.857 46.3722C164.79 46.1965 164.693 46.0258 164.563 45.8601C164.437 45.6911 164.265 45.5518 164.046 45.4425C163.828 45.3331 163.548 45.2784 163.206 45.2784C162.739 45.2784 162.349 45.3861 162.038 45.6016C161.73 45.8137 161.575 46.0838 161.575 46.4119C161.575 46.7036 161.682 46.9339 161.894 47.103C162.106 47.272 162.437 47.4129 162.888 47.5256L164.021 47.804C164.704 47.9697 165.213 48.2232 165.548 48.5646C165.883 48.9027 166.05 49.3385 166.05 49.8722C166.05 50.3097 165.924 50.7008 165.672 51.0455C165.423 51.3902 165.075 51.6619 164.628 51.8608C164.181 52.0597 163.66 52.1591 163.067 52.1591C162.288 52.1591 161.643 51.9901 161.133 51.652C160.623 51.3139 160.299 50.8201 160.164 50.1705L161.277 49.892C161.383 50.303 161.584 50.6113 161.879 50.8168C162.177 51.0223 162.566 51.125 163.047 51.125C163.594 51.125 164.028 51.009 164.35 50.777C164.674 50.5417 164.837 50.2599 164.837 49.9318C164.837 49.6667 164.744 49.4446 164.558 49.2656C164.373 49.0833 164.088 48.9474 163.703 48.858L162.431 48.5597C161.731 48.3939 161.218 48.1371 160.889 47.7891C160.565 47.4377 160.402 46.9986 160.402 46.4716C160.402 46.0407 160.523 45.6596 160.765 45.3281C161.01 44.9967 161.343 44.7365 161.764 44.5476C162.189 44.3587 162.669 44.2642 163.206 44.2642C163.962 44.2642 164.555 44.4299 164.986 44.7614C165.42 45.0928 165.728 45.5303 165.911 46.0739ZM169.566 50.608L169.487 51.1449C169.43 51.5227 169.344 51.9271 169.228 52.358C169.115 52.7888 168.998 53.1948 168.875 53.576C168.752 53.9571 168.651 54.2604 168.572 54.4858H167.677C167.72 54.2737 167.776 53.9936 167.846 53.6456C167.915 53.2976 167.985 52.9081 168.055 52.4773C168.128 52.0497 168.187 51.6122 168.234 51.1648L168.293 50.608H169.566ZM181.086 46.0739L180.032 46.3722C179.966 46.1965 179.868 46.0258 179.739 45.8601C179.613 45.6911 179.441 45.5518 179.222 45.4425C179.003 45.3331 178.723 45.2784 178.382 45.2784C177.915 45.2784 177.525 45.3861 177.214 45.6016C176.905 45.8137 176.751 46.0838 176.751 46.4119C176.751 46.7036 176.857 46.9339 177.069 47.103C177.282 47.272 177.613 47.4129 178.064 47.5256L179.197 47.804C179.88 47.9697 180.389 48.2232 180.724 48.5646C181.058 48.9027 181.226 49.3385 181.226 49.8722C181.226 50.3097 181.1 50.7008 180.848 51.0455C180.599 51.3902 180.251 51.6619 179.804 51.8608C179.356 52.0597 178.836 52.1591 178.243 52.1591C177.464 52.1591 176.819 51.9901 176.309 51.652C175.798 51.3139 175.475 50.8201 175.339 50.1705L176.453 49.892C176.559 50.303 176.76 50.6113 177.055 50.8168C177.353 51.0223 177.742 51.125 178.223 51.125C178.77 51.125 179.204 51.009 179.525 50.777C179.85 50.5417 180.013 50.2599 180.013 49.9318C180.013 49.6667 179.92 49.4446 179.734 49.2656C179.549 49.0833 179.264 48.9474 178.879 48.858L177.606 48.5597C176.907 48.3939 176.393 48.1371 176.065 47.7891C175.74 47.4377 175.578 46.9986 175.578 46.4716C175.578 46.0407 175.699 45.6596 175.941 45.3281C176.186 44.9967 176.519 44.7365 176.94 44.5476C177.364 44.3587 177.845 44.2642 178.382 44.2642C179.138 44.2642 179.731 44.4299 180.162 44.7614C180.596 45.0928 180.904 45.5303 181.086 46.0739ZM182.992 54.8636V44.3636H184.125V45.5767H184.265C184.351 45.4441 184.47 45.2751 184.623 45.0696C184.778 44.8608 185 44.6752 185.289 44.5128C185.58 44.3471 185.975 44.2642 186.472 44.2642C187.115 44.2642 187.682 44.425 188.172 44.7464C188.663 45.0679 189.046 45.5237 189.321 46.1136C189.596 46.7036 189.733 47.3996 189.733 48.2017C189.733 49.0104 189.596 49.7114 189.321 50.3047C189.046 50.8946 188.664 51.352 188.177 51.6768C187.69 51.9983 187.128 52.1591 186.492 52.1591C186.001 52.1591 185.609 52.0779 185.314 51.9155C185.019 51.7498 184.792 51.5625 184.632 51.3537C184.473 51.1416 184.351 50.9659 184.265 50.8267H184.165V54.8636H182.992ZM184.145 48.1818C184.145 48.7585 184.23 49.2673 184.399 49.7081C184.568 50.1456 184.815 50.4886 185.14 50.7372C185.464 50.9825 185.862 51.1051 186.333 51.1051C186.823 51.1051 187.233 50.9759 187.561 50.7173C187.892 50.4555 188.141 50.1042 188.306 49.6634C188.475 49.2192 188.56 48.7254 188.56 48.1818C188.56 47.6449 188.477 47.161 188.311 46.7301C188.149 46.2959 187.902 45.9529 187.571 45.701C187.243 45.4458 186.83 45.3182 186.333 45.3182C185.855 45.3182 185.454 45.4392 185.13 45.6811C184.805 45.9197 184.56 46.2545 184.394 46.6854C184.228 47.1129 184.145 47.6117 184.145 48.1818ZM194.725 52.1591C193.989 52.1591 193.354 51.9967 192.821 51.6719C192.29 51.3438 191.881 50.8864 191.593 50.2997C191.308 49.7098 191.165 49.0237 191.165 48.2415C191.165 47.4593 191.308 46.7699 191.593 46.1733C191.881 45.5734 192.282 45.1061 192.796 44.7713C193.313 44.4332 193.916 44.2642 194.605 44.2642C195.003 44.2642 195.396 44.3305 195.784 44.4631C196.172 44.5956 196.525 44.8111 196.843 45.1094C197.161 45.4044 197.414 45.7955 197.603 46.2827C197.792 46.7699 197.887 47.3698 197.887 48.0824V48.5795H192V47.5653H196.694C196.694 47.1345 196.607 46.75 196.435 46.4119C196.266 46.0739 196.024 45.8071 195.709 45.6115C195.398 45.416 195.03 45.3182 194.605 45.3182C194.138 45.3182 193.734 45.4342 193.392 45.6662C193.054 45.8949 192.794 46.1932 192.612 46.5611C192.43 46.929 192.338 47.3234 192.338 47.7443V48.4205C192.338 48.9972 192.438 49.486 192.637 49.8871C192.839 50.2848 193.119 50.5881 193.477 50.7969C193.835 51.0024 194.251 51.1051 194.725 51.1051C195.033 51.1051 195.311 51.062 195.56 50.9759C195.812 50.8864 196.029 50.7538 196.211 50.5781C196.394 50.3991 196.534 50.1771 196.634 49.9119L197.767 50.2301C197.648 50.6146 197.448 50.9527 197.166 51.2443C196.884 51.5327 196.536 51.758 196.122 51.9205C195.708 52.0795 195.242 52.1591 194.725 52.1591ZM202.774 52.1591C202.058 52.1591 201.441 51.9901 200.924 51.652C200.407 51.3139 200.01 50.8482 199.731 50.255C199.453 49.6617 199.314 48.9839 199.314 48.2216C199.314 47.446 199.456 46.7616 199.741 46.1683C200.029 45.5717 200.431 45.1061 200.944 44.7713C201.461 44.4332 202.065 44.2642 202.754 44.2642C203.291 44.2642 203.775 44.3636 204.206 44.5625C204.636 44.7614 204.989 45.0398 205.265 45.3977C205.54 45.7557 205.71 46.1733 205.777 46.6506H204.603C204.514 46.3026 204.315 45.9943 204.007 45.7259C203.702 45.4541 203.291 45.3182 202.774 45.3182C202.316 45.3182 201.915 45.4375 201.571 45.6761C201.229 45.9115 200.962 46.2446 200.77 46.6754C200.581 47.103 200.487 47.6051 200.487 48.1818C200.487 48.7718 200.58 49.2855 200.765 49.723C200.954 50.1605 201.219 50.5002 201.561 50.7422C201.905 50.9841 202.31 51.1051 202.774 51.1051C203.079 51.1051 203.355 51.0521 203.604 50.946C203.853 50.84 204.063 50.6875 204.235 50.4886C204.408 50.2898 204.53 50.0511 204.603 49.7727H205.777C205.71 50.2235 205.546 50.6295 205.284 50.9908C205.026 51.3487 204.683 51.6338 204.255 51.8459C203.831 52.0547 203.337 52.1591 202.774 52.1591ZM212.901 46.0739L211.847 46.3722C211.781 46.1965 211.683 46.0258 211.554 45.8601C211.428 45.6911 211.255 45.5518 211.037 45.4425C210.818 45.3331 210.538 45.2784 210.196 45.2784C209.729 45.2784 209.34 45.3861 209.028 45.6016C208.72 45.8137 208.566 46.0838 208.566 46.4119C208.566 46.7036 208.672 46.9339 208.884 47.103C209.096 47.272 209.427 47.4129 209.878 47.5256L211.012 47.804C211.694 47.9697 212.203 48.2232 212.538 48.5646C212.873 48.9027 213.04 49.3385 213.04 49.8722C213.04 50.3097 212.914 50.7008 212.662 51.0455C212.414 51.3902 212.066 51.6619 211.618 51.8608C211.171 52.0597 210.65 52.1591 210.057 52.1591C209.278 52.1591 208.634 51.9901 208.123 51.652C207.613 51.3139 207.29 50.8201 207.154 50.1705L208.267 49.892C208.373 50.303 208.574 50.6113 208.869 50.8168C209.167 51.0223 209.557 51.125 210.037 51.125C210.584 51.125 211.018 51.009 211.34 50.777C211.665 50.5417 211.827 50.2599 211.827 49.9318C211.827 49.6667 211.734 49.4446 211.549 49.2656C211.363 49.0833 211.078 48.9474 210.694 48.858L209.421 48.5597C208.721 48.3939 208.208 48.1371 207.88 47.7891C207.555 47.4377 207.392 46.9986 207.392 46.4716C207.392 46.0407 207.513 45.6596 207.755 45.3281C208.001 44.9967 208.334 44.7365 208.755 44.5476C209.179 44.3587 209.659 44.2642 210.196 44.2642C210.952 44.2642 211.545 44.4299 211.976 44.7614C212.41 45.0928 212.719 45.5303 212.901 46.0739ZM216.556 50.608L216.477 51.1449C216.42 51.5227 216.334 51.9271 216.218 52.358C216.106 52.7888 215.988 53.1948 215.865 53.576C215.743 53.9571 215.642 54.2604 215.562 54.4858H214.667C214.71 54.2737 214.767 53.9936 214.836 53.6456C214.906 53.2976 214.975 52.9081 215.045 52.4773C215.118 52.0497 215.177 51.6122 215.224 51.1648L215.284 50.608H216.556ZM224.915 52.179C224.431 52.179 223.992 52.0878 223.597 51.9055C223.203 51.7199 222.89 51.4531 222.658 51.1051C222.426 50.7538 222.31 50.3295 222.31 49.8324C222.31 49.3949 222.396 49.0402 222.568 48.7685C222.741 48.4934 222.971 48.2779 223.259 48.1222C223.548 47.9664 223.866 47.8504 224.214 47.7741C224.565 47.6946 224.918 47.6316 225.273 47.5852C225.737 47.5256 226.113 47.4808 226.401 47.451C226.693 47.4179 226.905 47.3632 227.038 47.2869C227.174 47.2107 227.241 47.0781 227.241 46.8892V46.8494C227.241 46.3589 227.107 45.9777 226.839 45.706C226.574 45.4342 226.171 45.2983 225.631 45.2983C225.071 45.2983 224.631 45.4209 224.313 45.6662C223.995 45.9115 223.771 46.1733 223.642 46.4517L222.528 46.054C222.727 45.59 222.992 45.2287 223.324 44.9702C223.659 44.7083 224.023 44.526 224.418 44.4233C224.815 44.3172 225.206 44.2642 225.591 44.2642C225.836 44.2642 226.118 44.294 226.436 44.3537C226.758 44.41 227.067 44.5277 227.366 44.7067C227.667 44.8857 227.918 45.1558 228.116 45.517C228.315 45.8783 228.415 46.3622 228.415 46.9688V52H227.241V50.9659H227.182C227.102 51.1316 226.97 51.3089 226.784 51.4979C226.598 51.6868 226.352 51.8475 226.043 51.9801C225.735 52.1127 225.359 52.179 224.915 52.179ZM225.094 51.125C225.558 51.125 225.949 51.0339 226.267 50.8516C226.589 50.6693 226.83 50.4339 226.993 50.1456C227.159 49.8572 227.241 49.554 227.241 49.2358V48.1619C227.192 48.2216 227.082 48.2763 226.913 48.326C226.748 48.3724 226.555 48.4138 226.337 48.4503C226.121 48.4834 225.911 48.5133 225.705 48.5398C225.503 48.563 225.339 48.5829 225.213 48.5994C224.908 48.6392 224.623 48.7038 224.358 48.7933C224.096 48.8795 223.884 49.0104 223.722 49.1861C223.563 49.3584 223.483 49.5937 223.483 49.892C223.483 50.2997 223.634 50.608 223.935 50.8168C224.24 51.0223 224.626 51.125 225.094 51.125ZM231.73 47.4062V52H230.556V44.3636H231.69V45.5568H231.789C231.968 45.169 232.24 44.8575 232.605 44.6222C232.969 44.3835 233.44 44.2642 234.017 44.2642C234.534 44.2642 234.986 44.3703 235.374 44.5824C235.762 44.7912 236.063 45.1094 236.279 45.5369C236.494 45.9612 236.602 46.4981 236.602 47.1477V52H235.428V47.2273C235.428 46.6274 235.273 46.16 234.961 45.8253C234.65 45.4872 234.222 45.3182 233.678 45.3182C233.304 45.3182 232.969 45.3994 232.674 45.5618C232.383 45.7242 232.152 45.9612 231.983 46.2727C231.814 46.5843 231.73 46.9621 231.73 47.4062ZM241.629 52.1591C240.993 52.1591 240.431 51.9983 239.944 51.6768C239.457 51.352 239.076 50.8946 238.8 50.3047C238.525 49.7114 238.388 49.0104 238.388 48.2017C238.388 47.3996 238.525 46.7036 238.8 46.1136C239.076 45.5237 239.458 45.0679 239.949 44.7464C240.439 44.425 241.006 44.2642 241.649 44.2642C242.146 44.2642 242.539 44.3471 242.827 44.5128C243.119 44.6752 243.341 44.8608 243.494 45.0696C243.649 45.2751 243.77 45.4441 243.857 45.5767H243.956V41.8182H245.129V52H243.996V50.8267H243.857C243.77 50.9659 243.648 51.1416 243.489 51.3537C243.33 51.5625 243.103 51.7498 242.808 51.9155C242.513 52.0779 242.12 52.1591 241.629 52.1591ZM241.788 51.1051C242.259 51.1051 242.657 50.9825 242.982 50.7372C243.306 50.4886 243.553 50.1456 243.722 49.7081C243.891 49.2673 243.976 48.7585 243.976 48.1818C243.976 47.6117 243.893 47.1129 243.727 46.6854C243.562 46.2545 243.316 45.9197 242.991 45.6811C242.667 45.4392 242.266 45.3182 241.788 45.3182C241.291 45.3182 240.877 45.4458 240.545 45.701C240.217 45.9529 239.97 46.2959 239.805 46.7301C239.642 47.161 239.561 47.6449 239.561 48.1818C239.561 48.7254 239.644 49.2192 239.81 49.6634C239.979 50.1042 240.227 50.4555 240.555 50.7173C240.887 50.9759 241.298 51.1051 241.788 51.1051ZM256.788 46.0739L255.734 46.3722C255.667 46.1965 255.57 46.0258 255.44 45.8601C255.314 45.6911 255.142 45.5518 254.923 45.4425C254.705 45.3331 254.424 45.2784 254.083 45.2784C253.616 45.2784 253.226 45.3861 252.915 45.6016C252.607 45.8137 252.452 46.0838 252.452 46.4119C252.452 46.7036 252.558 46.9339 252.771 47.103C252.983 47.272 253.314 47.4129 253.765 47.5256L254.898 47.804C255.581 47.9697 256.09 48.2232 256.425 48.5646C256.759 48.9027 256.927 49.3385 256.927 49.8722C256.927 50.3097 256.801 50.7008 256.549 51.0455C256.3 51.3902 255.952 51.6619 255.505 51.8608C255.058 52.0597 254.537 52.1591 253.944 52.1591C253.165 52.1591 252.52 51.9901 252.01 51.652C251.5 51.3139 251.176 50.8201 251.04 50.1705L252.154 49.892C252.26 50.303 252.461 50.6113 252.756 50.8168C253.054 51.0223 253.443 51.125 253.924 51.125C254.471 51.125 254.905 51.009 255.227 50.777C255.551 50.5417 255.714 50.2599 255.714 49.9318C255.714 49.6667 255.621 49.4446 255.435 49.2656C255.25 49.0833 254.965 48.9474 254.58 48.858L253.308 48.5597C252.608 48.3939 252.094 48.1371 251.766 47.7891C251.442 47.4377 251.279 46.9986 251.279 46.4716C251.279 46.0407 251.4 45.6596 251.642 45.3281C251.887 44.9967 252.22 44.7365 252.641 44.5476C253.066 44.3587 253.546 44.2642 254.083 44.2642C254.839 44.2642 255.432 44.4299 255.863 44.7614C256.297 45.0928 256.605 45.5303 256.788 46.0739ZM260.94 52.179C260.456 52.179 260.017 52.0878 259.623 51.9055C259.228 51.7199 258.915 51.4531 258.683 51.1051C258.451 50.7538 258.335 50.3295 258.335 49.8324C258.335 49.3949 258.421 49.0402 258.594 48.7685C258.766 48.4934 258.996 48.2779 259.285 48.1222C259.573 47.9664 259.891 47.8504 260.239 47.7741C260.59 47.6946 260.943 47.6316 261.298 47.5852C261.762 47.5256 262.138 47.4808 262.427 47.451C262.718 47.4179 262.93 47.3632 263.063 47.2869C263.199 47.2107 263.267 47.0781 263.267 46.8892V46.8494C263.267 46.3589 263.133 45.9777 262.864 45.706C262.599 45.4342 262.196 45.2983 261.656 45.2983C261.096 45.2983 260.657 45.4209 260.339 45.6662C260.02 45.9115 259.797 46.1733 259.667 46.4517L258.554 46.054C258.753 45.59 259.018 45.2287 259.349 44.9702C259.684 44.7083 260.049 44.526 260.443 44.4233C260.841 44.3172 261.232 44.2642 261.616 44.2642C261.862 44.2642 262.143 44.294 262.461 44.3537C262.783 44.41 263.093 44.5277 263.391 44.7067C263.693 44.8857 263.943 45.1558 264.142 45.517C264.341 45.8783 264.44 46.3622 264.44 46.9688V52H263.267V50.9659H263.207C263.128 51.1316 262.995 51.3089 262.809 51.4979C262.624 51.6868 262.377 51.8475 262.069 51.9801C261.76 52.1127 261.384 52.179 260.94 52.179ZM261.119 51.125C261.583 51.125 261.974 51.0339 262.292 50.8516C262.614 50.6693 262.856 50.4339 263.018 50.1456C263.184 49.8572 263.267 49.554 263.267 49.2358V48.1619C263.217 48.2216 263.108 48.2763 262.939 48.326C262.773 48.3724 262.581 48.4138 262.362 48.4503C262.147 48.4834 261.936 48.5133 261.731 48.5398C261.528 48.563 261.364 48.5829 261.238 48.5994C260.934 48.6392 260.648 48.7038 260.383 48.7933C260.122 48.8795 259.909 49.0104 259.747 49.1861C259.588 49.3584 259.508 49.5937 259.508 49.892C259.508 50.2997 259.659 50.608 259.961 50.8168C260.266 51.0223 260.652 51.125 261.119 51.125ZM267.755 41.8182V52H266.582V41.8182H267.755ZM273.106 52.1591C272.37 52.1591 271.735 51.9967 271.202 51.6719C270.671 51.3438 270.262 50.8864 269.974 50.2997C269.689 49.7098 269.546 49.0237 269.546 48.2415C269.546 47.4593 269.689 46.7699 269.974 46.1733C270.262 45.5734 270.663 45.1061 271.177 44.7713C271.694 44.4332 272.297 44.2642 272.986 44.2642C273.384 44.2642 273.777 44.3305 274.165 44.4631C274.552 44.5956 274.905 44.8111 275.224 45.1094C275.542 45.4044 275.795 45.7955 275.984 46.2827C276.173 46.7699 276.268 47.3698 276.268 48.0824V48.5795H270.381V47.5653H275.074C275.074 47.1345 274.988 46.75 274.816 46.4119C274.647 46.0739 274.405 45.8071 274.09 45.6115C273.778 45.416 273.411 45.3182 272.986 45.3182C272.519 45.3182 272.115 45.4342 271.773 45.6662C271.435 45.8949 271.175 46.1932 270.993 46.5611C270.81 46.929 270.719 47.3234 270.719 47.7443V48.4205C270.719 48.9972 270.819 49.486 271.018 49.8871C271.22 50.2848 271.5 50.5881 271.858 50.7969C272.216 51.0024 272.632 51.1051 273.106 51.1051C273.414 51.1051 273.692 51.062 273.941 50.9759C274.193 50.8864 274.41 50.7538 274.592 50.5781C274.774 50.3991 274.915 50.1771 275.015 49.9119L276.148 50.2301C276.029 50.6146 275.828 50.9527 275.547 51.2443C275.265 51.5327 274.917 51.758 274.503 51.9205C274.088 52.0795 273.623 52.1591 273.106 52.1591ZM283.163 47.4062V52H281.99V41.8182H283.163V45.5568H283.263C283.442 45.1624 283.71 44.8492 284.068 44.6172C284.429 44.3819 284.91 44.2642 285.51 44.2642C286.03 44.2642 286.486 44.3686 286.877 44.5774C287.268 44.7829 287.571 45.0994 287.787 45.527C288.006 45.9512 288.115 46.4915 288.115 47.1477V52H286.942V47.2273C286.942 46.6207 286.784 46.1518 286.469 45.8203C286.158 45.4856 285.725 45.3182 285.172 45.3182C284.787 45.3182 284.443 45.3994 284.138 45.5618C283.836 45.7242 283.597 45.9612 283.422 46.2727C283.249 46.5843 283.163 46.9621 283.163 47.4062ZM290.261 52V44.3636H291.435V52H290.261ZM290.858 43.0909C290.629 43.0909 290.432 43.013 290.266 42.8572C290.104 42.7015 290.023 42.5142 290.023 42.2955C290.023 42.0767 290.104 41.8894 290.266 41.7337C290.432 41.5779 290.629 41.5 290.858 41.5C291.087 41.5 291.282 41.5779 291.445 41.7337C291.61 41.8894 291.693 42.0767 291.693 42.2955C291.693 42.5142 291.61 42.7015 291.445 42.8572C291.282 43.013 291.087 43.0909 290.858 43.0909ZM298.993 46.0739L297.939 46.3722C297.872 46.1965 297.775 46.0258 297.645 45.8601C297.519 45.6911 297.347 45.5518 297.128 45.4425C296.91 45.3331 296.63 45.2784 296.288 45.2784C295.821 45.2784 295.431 45.3861 295.12 45.6016C294.812 45.8137 294.657 46.0838 294.657 46.4119C294.657 46.7036 294.764 46.9339 294.976 47.103C295.188 47.272 295.519 47.4129 295.97 47.5256L297.104 47.804C297.786 47.9697 298.295 48.2232 298.63 48.5646C298.965 48.9027 299.132 49.3385 299.132 49.8722C299.132 50.3097 299.006 50.7008 298.754 51.0455C298.506 51.3902 298.157 51.6619 297.71 51.8608C297.263 52.0597 296.742 52.1591 296.149 52.1591C295.37 52.1591 294.725 51.9901 294.215 51.652C293.705 51.3139 293.381 50.8201 293.246 50.1705L294.359 49.892C294.465 50.303 294.666 50.6113 294.961 50.8168C295.259 51.0223 295.648 51.125 296.129 51.125C296.676 51.125 297.11 51.009 297.432 50.777C297.756 50.5417 297.919 50.2599 297.919 49.9318C297.919 49.6667 297.826 49.4446 297.64 49.2656C297.455 49.0833 297.17 48.9474 296.785 48.858L295.513 48.5597C294.813 48.3939 294.3 48.1371 293.971 47.7891C293.647 47.4377 293.484 46.9986 293.484 46.4716C293.484 46.0407 293.605 45.6596 293.847 45.3281C294.092 44.9967 294.425 44.7365 294.846 44.5476C295.271 44.3587 295.751 44.2642 296.288 44.2642C297.044 44.2642 297.637 44.4299 298.068 44.7614C298.502 45.0928 298.81 45.5303 298.993 46.0739ZM304.219 44.3636V45.358H300.262V44.3636H304.219ZM301.415 42.5341H302.588V49.8125C302.588 50.1439 302.636 50.3925 302.733 50.5582C302.832 50.7206 302.958 50.83 303.11 50.8864C303.266 50.9394 303.43 50.9659 303.603 50.9659C303.732 50.9659 303.838 50.9593 303.921 50.946C304.004 50.9295 304.07 50.9162 304.12 50.9062L304.358 51.9602C304.279 51.9901 304.168 52.0199 304.025 52.0497C303.883 52.0829 303.702 52.0994 303.483 52.0994C303.152 52.0994 302.827 52.0282 302.509 51.8857C302.194 51.7431 301.932 51.526 301.723 51.2344C301.518 50.9427 301.415 50.5748 301.415 50.1307V42.5341ZM309.004 52.1591C308.315 52.1591 307.71 51.995 307.19 51.6669C306.673 51.3388 306.268 50.8797 305.977 50.2898C305.688 49.6998 305.544 49.0104 305.544 48.2216C305.544 47.4261 305.688 46.7318 305.977 46.1385C306.268 45.5452 306.673 45.0845 307.19 44.7564C307.71 44.4283 308.315 44.2642 309.004 44.2642C309.694 44.2642 310.297 44.4283 310.814 44.7564C311.334 45.0845 311.739 45.5452 312.027 46.1385C312.319 46.7318 312.464 47.4261 312.464 48.2216C312.464 49.0104 312.319 49.6998 312.027 50.2898C311.739 50.8797 311.334 51.3388 310.814 51.6669C310.297 51.995 309.694 52.1591 309.004 52.1591ZM309.004 51.1051C309.528 51.1051 309.959 50.9709 310.297 50.7024C310.635 50.4339 310.885 50.081 311.048 49.6435C311.21 49.206 311.291 48.732 311.291 48.2216C311.291 47.7112 311.21 47.2356 311.048 46.7947C310.885 46.3539 310.635 45.9976 310.297 45.7259C309.959 45.4541 309.528 45.3182 309.004 45.3182C308.481 45.3182 308.05 45.4541 307.712 45.7259C307.374 45.9976 307.123 46.3539 306.961 46.7947C306.799 47.2356 306.717 47.7112 306.717 48.2216C306.717 48.732 306.799 49.206 306.961 49.6435C307.123 50.081 307.374 50.4339 307.712 50.7024C308.05 50.9709 308.481 51.1051 309.004 51.1051ZM314.256 52V44.3636H315.389V45.517H315.469C315.608 45.1392 315.86 44.8326 316.224 44.5973C316.589 44.362 317 44.2443 317.457 44.2443C317.543 44.2443 317.651 44.246 317.78 44.2493C317.91 44.2526 318.007 44.2576 318.074 44.2642V45.4574C318.034 45.4474 317.943 45.4325 317.8 45.4126C317.661 45.3894 317.514 45.3778 317.358 45.3778C316.987 45.3778 316.655 45.4557 316.363 45.6115C316.075 45.764 315.846 45.9761 315.677 46.2479C315.512 46.5163 315.429 46.8229 315.429 47.1676V52H314.256ZM320.453 54.8636C320.254 54.8636 320.076 54.8471 319.921 54.8139C319.765 54.7841 319.657 54.7543 319.597 54.7244L319.896 53.6903C320.181 53.7633 320.433 53.7898 320.651 53.7699C320.87 53.75 321.064 53.6522 321.233 53.4766C321.405 53.3042 321.563 53.0241 321.705 52.6364L321.924 52.0398L319.1 44.3636H320.373L322.481 50.4489H322.561L324.669 44.3636H325.941L322.7 53.1136C322.554 53.508 322.373 53.8345 322.158 54.093C321.942 54.3549 321.692 54.5488 321.407 54.6747C321.125 54.8007 320.807 54.8636 320.453 54.8636Z" fill="#A8A8AD"/>
</svg>
